<mxfile host="app.diagrams.net" modified="2024-04-15T05:40:52.047Z" agent="Mozilla/5.0 (Macintosh; Intel Mac OS X 10_15_7) AppleWebKit/537.36 (KHTML, like Gecko) Chrome/123.0.0.0 Safari/537.36" etag="Y-FqGst663U8TbMIR_uX" version="24.2.5" type="device" pages="3">
  <diagram id="R2lEEEUBdFMjLlhIrx00" name="Page-1">
    <mxGraphModel dx="1354" dy="693" grid="1" gridSize="10" guides="1" tooltips="1" connect="1" arrows="1" fold="1" page="1" pageScale="1" pageWidth="1169" pageHeight="827" math="0" shadow="0" extFonts="Permanent Marker^https://fonts.googleapis.com/css?family=Permanent+Marker">
      <root>
        <mxCell id="0" />
        <mxCell id="1" parent="0" />
        <mxCell id="BljzLWtQxP2AV-R5Jl4V-1" value="Room" style="shape=table;startSize=35;container=1;collapsible=1;childLayout=tableLayout;fixedRows=1;rowLines=0;fontStyle=1;align=center;resizeLast=1;" parent="1" vertex="1">
          <mxGeometry x="810" y="318" width="165" height="130" as="geometry" />
        </mxCell>
        <mxCell id="BljzLWtQxP2AV-R5Jl4V-2" value="" style="shape=partialRectangle;collapsible=0;dropTarget=0;pointerEvents=0;fillColor=none;points=[[0,0.5],[1,0.5]];portConstraint=eastwest;top=0;left=0;right=0;bottom=1;" parent="BljzLWtQxP2AV-R5Jl4V-1" vertex="1">
          <mxGeometry y="35" width="165" height="30" as="geometry" />
        </mxCell>
        <mxCell id="BljzLWtQxP2AV-R5Jl4V-3" value="PK" style="shape=partialRectangle;overflow=hidden;connectable=0;fillColor=none;top=0;left=0;bottom=0;right=0;fontStyle=1;" parent="BljzLWtQxP2AV-R5Jl4V-2" vertex="1">
          <mxGeometry width="30" height="30" as="geometry">
            <mxRectangle width="30" height="30" as="alternateBounds" />
          </mxGeometry>
        </mxCell>
        <mxCell id="BljzLWtQxP2AV-R5Jl4V-4" value="roomNo" style="shape=partialRectangle;overflow=hidden;connectable=0;fillColor=none;top=0;left=0;bottom=0;right=0;align=left;spacingLeft=6;fontStyle=5;" parent="BljzLWtQxP2AV-R5Jl4V-2" vertex="1">
          <mxGeometry x="30" width="135" height="30" as="geometry">
            <mxRectangle width="135" height="30" as="alternateBounds" />
          </mxGeometry>
        </mxCell>
        <mxCell id="BljzLWtQxP2AV-R5Jl4V-5" value="" style="shape=partialRectangle;collapsible=0;dropTarget=0;pointerEvents=0;fillColor=none;points=[[0,0.5],[1,0.5]];portConstraint=eastwest;top=0;left=0;right=0;bottom=0;" parent="BljzLWtQxP2AV-R5Jl4V-1" vertex="1">
          <mxGeometry y="65" width="165" height="30" as="geometry" />
        </mxCell>
        <mxCell id="BljzLWtQxP2AV-R5Jl4V-6" value="" style="shape=partialRectangle;overflow=hidden;connectable=0;fillColor=none;top=0;left=0;bottom=0;right=0;" parent="BljzLWtQxP2AV-R5Jl4V-5" vertex="1">
          <mxGeometry width="30" height="30" as="geometry">
            <mxRectangle width="30" height="30" as="alternateBounds" />
          </mxGeometry>
        </mxCell>
        <mxCell id="BljzLWtQxP2AV-R5Jl4V-7" value="roomName" style="shape=partialRectangle;overflow=hidden;connectable=0;fillColor=none;top=0;left=0;bottom=0;right=0;align=left;spacingLeft=6;" parent="BljzLWtQxP2AV-R5Jl4V-5" vertex="1">
          <mxGeometry x="30" width="135" height="30" as="geometry">
            <mxRectangle width="135" height="30" as="alternateBounds" />
          </mxGeometry>
        </mxCell>
        <mxCell id="BljzLWtQxP2AV-R5Jl4V-8" value="" style="shape=partialRectangle;collapsible=0;dropTarget=0;pointerEvents=0;fillColor=none;points=[[0,0.5],[1,0.5]];portConstraint=eastwest;top=0;left=0;right=0;bottom=0;" parent="BljzLWtQxP2AV-R5Jl4V-1" vertex="1">
          <mxGeometry y="95" width="165" height="30" as="geometry" />
        </mxCell>
        <mxCell id="BljzLWtQxP2AV-R5Jl4V-9" value="" style="shape=partialRectangle;overflow=hidden;connectable=0;fillColor=none;top=0;left=0;bottom=0;right=0;" parent="BljzLWtQxP2AV-R5Jl4V-8" vertex="1">
          <mxGeometry width="30" height="30" as="geometry">
            <mxRectangle width="30" height="30" as="alternateBounds" />
          </mxGeometry>
        </mxCell>
        <mxCell id="BljzLWtQxP2AV-R5Jl4V-10" value="facility" style="shape=partialRectangle;overflow=hidden;connectable=0;fillColor=none;top=0;left=0;bottom=0;right=0;align=left;spacingLeft=6;" parent="BljzLWtQxP2AV-R5Jl4V-8" vertex="1">
          <mxGeometry x="30" width="135" height="30" as="geometry">
            <mxRectangle width="135" height="30" as="alternateBounds" />
          </mxGeometry>
        </mxCell>
        <mxCell id="BljzLWtQxP2AV-R5Jl4V-11" style="edgeStyle=orthogonalEdgeStyle;rounded=0;orthogonalLoop=1;jettySize=auto;html=1;exitX=1;exitY=0.5;exitDx=0;exitDy=0;entryX=0;entryY=0.5;entryDx=0;entryDy=0;endArrow=none;endFill=0;" parent="1" source="BljzLWtQxP2AV-R5Jl4V-13" target="BljzLWtQxP2AV-R5Jl4V-101" edge="1">
          <mxGeometry relative="1" as="geometry" />
        </mxCell>
        <mxCell id="BljzLWtQxP2AV-R5Jl4V-12" value="Surgeon" style="shape=table;startSize=30;container=1;collapsible=1;childLayout=tableLayout;fixedRows=1;rowLines=0;fontStyle=1;align=center;resizeLast=1;" parent="1" vertex="1">
          <mxGeometry x="547" y="39" width="165" height="250" as="geometry" />
        </mxCell>
        <mxCell id="BljzLWtQxP2AV-R5Jl4V-13" value="" style="shape=partialRectangle;collapsible=0;dropTarget=0;pointerEvents=0;fillColor=none;points=[[0,0.5],[1,0.5]];portConstraint=eastwest;top=0;left=0;right=0;bottom=1;" parent="BljzLWtQxP2AV-R5Jl4V-12" vertex="1">
          <mxGeometry y="30" width="165" height="30" as="geometry" />
        </mxCell>
        <mxCell id="BljzLWtQxP2AV-R5Jl4V-14" value="PK" style="shape=partialRectangle;overflow=hidden;connectable=0;fillColor=none;top=0;left=0;bottom=0;right=0;fontStyle=1;" parent="BljzLWtQxP2AV-R5Jl4V-13" vertex="1">
          <mxGeometry width="30" height="30" as="geometry">
            <mxRectangle width="30" height="30" as="alternateBounds" />
          </mxGeometry>
        </mxCell>
        <mxCell id="BljzLWtQxP2AV-R5Jl4V-15" value="surgeonID" style="shape=partialRectangle;overflow=hidden;connectable=0;fillColor=none;top=0;left=0;bottom=0;right=0;align=left;spacingLeft=6;fontStyle=5;" parent="BljzLWtQxP2AV-R5Jl4V-13" vertex="1">
          <mxGeometry x="30" width="135" height="30" as="geometry">
            <mxRectangle width="135" height="30" as="alternateBounds" />
          </mxGeometry>
        </mxCell>
        <mxCell id="BljzLWtQxP2AV-R5Jl4V-16" value="" style="shape=partialRectangle;collapsible=0;dropTarget=0;pointerEvents=0;fillColor=none;points=[[0,0.5],[1,0.5]];portConstraint=eastwest;top=0;left=0;right=0;bottom=0;" parent="BljzLWtQxP2AV-R5Jl4V-12" vertex="1">
          <mxGeometry y="60" width="165" height="30" as="geometry" />
        </mxCell>
        <mxCell id="BljzLWtQxP2AV-R5Jl4V-17" value="" style="shape=partialRectangle;overflow=hidden;connectable=0;fillColor=none;top=0;left=0;bottom=0;right=0;" parent="BljzLWtQxP2AV-R5Jl4V-16" vertex="1">
          <mxGeometry width="30" height="30" as="geometry">
            <mxRectangle width="30" height="30" as="alternateBounds" />
          </mxGeometry>
        </mxCell>
        <mxCell id="BljzLWtQxP2AV-R5Jl4V-18" value="name" style="shape=partialRectangle;overflow=hidden;connectable=0;fillColor=none;top=0;left=0;bottom=0;right=0;align=left;spacingLeft=6;" parent="BljzLWtQxP2AV-R5Jl4V-16" vertex="1">
          <mxGeometry x="30" width="135" height="30" as="geometry">
            <mxRectangle width="135" height="30" as="alternateBounds" />
          </mxGeometry>
        </mxCell>
        <mxCell id="BljzLWtQxP2AV-R5Jl4V-19" value="" style="shape=partialRectangle;collapsible=0;dropTarget=0;pointerEvents=0;fillColor=none;points=[[0,0.5],[1,0.5]];portConstraint=eastwest;top=0;left=0;right=0;bottom=0;" parent="BljzLWtQxP2AV-R5Jl4V-12" vertex="1">
          <mxGeometry y="90" width="165" height="30" as="geometry" />
        </mxCell>
        <mxCell id="BljzLWtQxP2AV-R5Jl4V-20" value="" style="shape=partialRectangle;overflow=hidden;connectable=0;fillColor=none;top=0;left=0;bottom=0;right=0;" parent="BljzLWtQxP2AV-R5Jl4V-19" vertex="1">
          <mxGeometry width="30" height="30" as="geometry">
            <mxRectangle width="30" height="30" as="alternateBounds" />
          </mxGeometry>
        </mxCell>
        <mxCell id="BljzLWtQxP2AV-R5Jl4V-21" value="    fName" style="shape=partialRectangle;overflow=hidden;connectable=0;fillColor=none;top=0;left=0;bottom=0;right=0;align=left;spacingLeft=6;" parent="BljzLWtQxP2AV-R5Jl4V-19" vertex="1">
          <mxGeometry x="30" width="135" height="30" as="geometry">
            <mxRectangle width="135" height="30" as="alternateBounds" />
          </mxGeometry>
        </mxCell>
        <mxCell id="BljzLWtQxP2AV-R5Jl4V-22" value="" style="shape=partialRectangle;collapsible=0;dropTarget=0;pointerEvents=0;fillColor=none;points=[[0,0.5],[1,0.5]];portConstraint=eastwest;top=0;left=0;right=0;bottom=0;" parent="BljzLWtQxP2AV-R5Jl4V-12" vertex="1">
          <mxGeometry y="120" width="165" height="30" as="geometry" />
        </mxCell>
        <mxCell id="BljzLWtQxP2AV-R5Jl4V-23" value="" style="shape=partialRectangle;overflow=hidden;connectable=0;fillColor=none;top=0;left=0;bottom=0;right=0;" parent="BljzLWtQxP2AV-R5Jl4V-22" vertex="1">
          <mxGeometry width="30" height="30" as="geometry">
            <mxRectangle width="30" height="30" as="alternateBounds" />
          </mxGeometry>
        </mxCell>
        <mxCell id="BljzLWtQxP2AV-R5Jl4V-24" value="    lName" style="shape=partialRectangle;overflow=hidden;connectable=0;fillColor=none;top=0;left=0;bottom=0;right=0;align=left;spacingLeft=6;" parent="BljzLWtQxP2AV-R5Jl4V-22" vertex="1">
          <mxGeometry x="30" width="135" height="30" as="geometry">
            <mxRectangle width="135" height="30" as="alternateBounds" />
          </mxGeometry>
        </mxCell>
        <mxCell id="BljzLWtQxP2AV-R5Jl4V-25" value="" style="shape=partialRectangle;collapsible=0;dropTarget=0;pointerEvents=0;fillColor=none;points=[[0,0.5],[1,0.5]];portConstraint=eastwest;top=0;left=0;right=0;bottom=0;" parent="BljzLWtQxP2AV-R5Jl4V-12" vertex="1">
          <mxGeometry y="150" width="165" height="30" as="geometry" />
        </mxCell>
        <mxCell id="BljzLWtQxP2AV-R5Jl4V-26" value="" style="shape=partialRectangle;overflow=hidden;connectable=0;fillColor=none;top=0;left=0;bottom=0;right=0;" parent="BljzLWtQxP2AV-R5Jl4V-25" vertex="1">
          <mxGeometry width="30" height="30" as="geometry">
            <mxRectangle width="30" height="30" as="alternateBounds" />
          </mxGeometry>
        </mxCell>
        <mxCell id="BljzLWtQxP2AV-R5Jl4V-27" value="    title" style="shape=partialRectangle;overflow=hidden;connectable=0;fillColor=none;top=0;left=0;bottom=0;right=0;align=left;spacingLeft=6;" parent="BljzLWtQxP2AV-R5Jl4V-25" vertex="1">
          <mxGeometry x="30" width="135" height="30" as="geometry">
            <mxRectangle width="135" height="30" as="alternateBounds" />
          </mxGeometry>
        </mxCell>
        <mxCell id="BljzLWtQxP2AV-R5Jl4V-28" value="" style="shape=partialRectangle;collapsible=0;dropTarget=0;pointerEvents=0;fillColor=none;points=[[0,0.5],[1,0.5]];portConstraint=eastwest;top=0;left=0;right=0;bottom=0;" parent="BljzLWtQxP2AV-R5Jl4V-12" vertex="1">
          <mxGeometry y="180" width="165" height="30" as="geometry" />
        </mxCell>
        <mxCell id="BljzLWtQxP2AV-R5Jl4V-29" value="" style="shape=partialRectangle;overflow=hidden;connectable=0;fillColor=none;top=0;left=0;bottom=0;right=0;" parent="BljzLWtQxP2AV-R5Jl4V-28" vertex="1">
          <mxGeometry width="30" height="30" as="geometry">
            <mxRectangle width="30" height="30" as="alternateBounds" />
          </mxGeometry>
        </mxCell>
        <mxCell id="BljzLWtQxP2AV-R5Jl4V-30" value="phoneNum" style="shape=partialRectangle;overflow=hidden;connectable=0;fillColor=none;top=0;left=0;bottom=0;right=0;align=left;spacingLeft=6;" parent="BljzLWtQxP2AV-R5Jl4V-28" vertex="1">
          <mxGeometry x="30" width="135" height="30" as="geometry">
            <mxRectangle width="135" height="30" as="alternateBounds" />
          </mxGeometry>
        </mxCell>
        <mxCell id="BljzLWtQxP2AV-R5Jl4V-31" value="" style="shape=partialRectangle;collapsible=0;dropTarget=0;pointerEvents=0;fillColor=none;points=[[0,0.5],[1,0.5]];portConstraint=eastwest;top=0;left=0;right=0;bottom=0;" parent="BljzLWtQxP2AV-R5Jl4V-12" vertex="1">
          <mxGeometry y="210" width="165" height="30" as="geometry" />
        </mxCell>
        <mxCell id="BljzLWtQxP2AV-R5Jl4V-32" value="" style="shape=partialRectangle;overflow=hidden;connectable=0;fillColor=none;top=0;left=0;bottom=0;right=0;" parent="BljzLWtQxP2AV-R5Jl4V-31" vertex="1">
          <mxGeometry width="30" height="30" as="geometry">
            <mxRectangle width="30" height="30" as="alternateBounds" />
          </mxGeometry>
        </mxCell>
        <mxCell id="BljzLWtQxP2AV-R5Jl4V-33" value="qualification (1..3)" style="shape=partialRectangle;overflow=hidden;connectable=0;fillColor=none;top=0;left=0;bottom=0;right=0;align=left;spacingLeft=6;" parent="BljzLWtQxP2AV-R5Jl4V-31" vertex="1">
          <mxGeometry x="30" width="135" height="30" as="geometry">
            <mxRectangle width="135" height="30" as="alternateBounds" />
          </mxGeometry>
        </mxCell>
        <mxCell id="BljzLWtQxP2AV-R5Jl4V-43" value="Client" style="shape=table;startSize=30;container=1;collapsible=1;childLayout=tableLayout;fixedRows=1;rowLines=0;fontStyle=1;align=center;resizeLast=1;html=1;" parent="1" vertex="1">
          <mxGeometry x="120" y="162" width="165" height="270" as="geometry" />
        </mxCell>
        <mxCell id="BljzLWtQxP2AV-R5Jl4V-44" value="" style="shape=tableRow;horizontal=0;startSize=0;swimlaneHead=0;swimlaneBody=0;fillColor=none;collapsible=0;dropTarget=0;points=[[0,0.5],[1,0.5]];portConstraint=eastwest;top=0;left=0;right=0;bottom=1;" parent="BljzLWtQxP2AV-R5Jl4V-43" vertex="1">
          <mxGeometry y="30" width="165" height="30" as="geometry" />
        </mxCell>
        <mxCell id="BljzLWtQxP2AV-R5Jl4V-45" value="PK" style="shape=partialRectangle;connectable=0;fillColor=none;top=0;left=0;bottom=0;right=0;fontStyle=1;overflow=hidden;whiteSpace=wrap;html=1;" parent="BljzLWtQxP2AV-R5Jl4V-44" vertex="1">
          <mxGeometry width="30" height="30" as="geometry">
            <mxRectangle width="30" height="30" as="alternateBounds" />
          </mxGeometry>
        </mxCell>
        <mxCell id="BljzLWtQxP2AV-R5Jl4V-46" value="&lt;span style=&quot;font-size: 11pt; line-height: 15.6933px; font-family: Aptos, sans-serif;&quot; lang=&quot;EN-AU&quot;&gt;clientNo&lt;/span&gt;&lt;span style=&quot;font-size: medium; font-weight: 400;&quot;&gt;&lt;/span&gt;" style="shape=partialRectangle;connectable=0;fillColor=none;top=0;left=0;bottom=0;right=0;align=left;spacingLeft=6;fontStyle=5;overflow=hidden;whiteSpace=wrap;html=1;" parent="BljzLWtQxP2AV-R5Jl4V-44" vertex="1">
          <mxGeometry x="30" width="135" height="30" as="geometry">
            <mxRectangle width="135" height="30" as="alternateBounds" />
          </mxGeometry>
        </mxCell>
        <mxCell id="BljzLWtQxP2AV-R5Jl4V-47" value="" style="shape=tableRow;horizontal=0;startSize=0;swimlaneHead=0;swimlaneBody=0;fillColor=none;collapsible=0;dropTarget=0;points=[[0,0.5],[1,0.5]];portConstraint=eastwest;top=0;left=0;right=0;bottom=0;" parent="BljzLWtQxP2AV-R5Jl4V-43" vertex="1">
          <mxGeometry y="60" width="165" height="30" as="geometry" />
        </mxCell>
        <mxCell id="BljzLWtQxP2AV-R5Jl4V-48" value="" style="shape=partialRectangle;connectable=0;fillColor=none;top=0;left=0;bottom=0;right=0;editable=1;overflow=hidden;whiteSpace=wrap;html=1;" parent="BljzLWtQxP2AV-R5Jl4V-47" vertex="1">
          <mxGeometry width="30" height="30" as="geometry">
            <mxRectangle width="30" height="30" as="alternateBounds" />
          </mxGeometry>
        </mxCell>
        <mxCell id="BljzLWtQxP2AV-R5Jl4V-49" value="name" style="shape=partialRectangle;connectable=0;fillColor=none;top=0;left=0;bottom=0;right=0;align=left;spacingLeft=6;overflow=hidden;whiteSpace=wrap;html=1;" parent="BljzLWtQxP2AV-R5Jl4V-47" vertex="1">
          <mxGeometry x="30" width="135" height="30" as="geometry">
            <mxRectangle width="135" height="30" as="alternateBounds" />
          </mxGeometry>
        </mxCell>
        <mxCell id="BljzLWtQxP2AV-R5Jl4V-50" value="" style="shape=tableRow;horizontal=0;startSize=0;swimlaneHead=0;swimlaneBody=0;fillColor=none;collapsible=0;dropTarget=0;points=[[0,0.5],[1,0.5]];portConstraint=eastwest;top=0;left=0;right=0;bottom=0;" parent="BljzLWtQxP2AV-R5Jl4V-43" vertex="1">
          <mxGeometry y="90" width="165" height="30" as="geometry" />
        </mxCell>
        <mxCell id="BljzLWtQxP2AV-R5Jl4V-51" value="" style="shape=partialRectangle;connectable=0;fillColor=none;top=0;left=0;bottom=0;right=0;editable=1;overflow=hidden;whiteSpace=wrap;html=1;" parent="BljzLWtQxP2AV-R5Jl4V-50" vertex="1">
          <mxGeometry width="30" height="30" as="geometry">
            <mxRectangle width="30" height="30" as="alternateBounds" />
          </mxGeometry>
        </mxCell>
        <mxCell id="BljzLWtQxP2AV-R5Jl4V-52" value="&lt;span style=&quot;white-space: pre;&quot;&gt;&#x9;&lt;/span&gt;fname" style="shape=partialRectangle;connectable=0;fillColor=none;top=0;left=0;bottom=0;right=0;align=left;spacingLeft=6;overflow=hidden;whiteSpace=wrap;html=1;" parent="BljzLWtQxP2AV-R5Jl4V-50" vertex="1">
          <mxGeometry x="30" width="135" height="30" as="geometry">
            <mxRectangle width="135" height="30" as="alternateBounds" />
          </mxGeometry>
        </mxCell>
        <mxCell id="BljzLWtQxP2AV-R5Jl4V-53" value="" style="shape=tableRow;horizontal=0;startSize=0;swimlaneHead=0;swimlaneBody=0;fillColor=none;collapsible=0;dropTarget=0;points=[[0,0.5],[1,0.5]];portConstraint=eastwest;top=0;left=0;right=0;bottom=0;" parent="BljzLWtQxP2AV-R5Jl4V-43" vertex="1">
          <mxGeometry y="120" width="165" height="30" as="geometry" />
        </mxCell>
        <mxCell id="BljzLWtQxP2AV-R5Jl4V-54" value="" style="shape=partialRectangle;connectable=0;fillColor=none;top=0;left=0;bottom=0;right=0;editable=1;overflow=hidden;whiteSpace=wrap;html=1;" parent="BljzLWtQxP2AV-R5Jl4V-53" vertex="1">
          <mxGeometry width="30" height="30" as="geometry">
            <mxRectangle width="30" height="30" as="alternateBounds" />
          </mxGeometry>
        </mxCell>
        <mxCell id="BljzLWtQxP2AV-R5Jl4V-55" value="&lt;span style=&quot;white-space: pre;&quot;&gt;&#x9;&lt;/span&gt;lName" style="shape=partialRectangle;connectable=0;fillColor=none;top=0;left=0;bottom=0;right=0;align=left;spacingLeft=6;overflow=hidden;whiteSpace=wrap;html=1;" parent="BljzLWtQxP2AV-R5Jl4V-53" vertex="1">
          <mxGeometry x="30" width="135" height="30" as="geometry">
            <mxRectangle width="135" height="30" as="alternateBounds" />
          </mxGeometry>
        </mxCell>
        <mxCell id="BljzLWtQxP2AV-R5Jl4V-56" value="" style="shape=tableRow;horizontal=0;startSize=0;swimlaneHead=0;swimlaneBody=0;fillColor=none;collapsible=0;dropTarget=0;points=[[0,0.5],[1,0.5]];portConstraint=eastwest;top=0;left=0;right=0;bottom=0;" parent="BljzLWtQxP2AV-R5Jl4V-43" vertex="1">
          <mxGeometry y="150" width="165" height="30" as="geometry" />
        </mxCell>
        <mxCell id="BljzLWtQxP2AV-R5Jl4V-57" value="" style="shape=partialRectangle;connectable=0;fillColor=none;top=0;left=0;bottom=0;right=0;editable=1;overflow=hidden;whiteSpace=wrap;html=1;" parent="BljzLWtQxP2AV-R5Jl4V-56" vertex="1">
          <mxGeometry width="30" height="30" as="geometry">
            <mxRectangle width="30" height="30" as="alternateBounds" />
          </mxGeometry>
        </mxCell>
        <mxCell id="BljzLWtQxP2AV-R5Jl4V-58" value="adress" style="shape=partialRectangle;connectable=0;fillColor=none;top=0;left=0;bottom=0;right=0;align=left;spacingLeft=6;overflow=hidden;whiteSpace=wrap;html=1;" parent="BljzLWtQxP2AV-R5Jl4V-56" vertex="1">
          <mxGeometry x="30" width="135" height="30" as="geometry">
            <mxRectangle width="135" height="30" as="alternateBounds" />
          </mxGeometry>
        </mxCell>
        <mxCell id="BljzLWtQxP2AV-R5Jl4V-59" value="" style="shape=tableRow;horizontal=0;startSize=0;swimlaneHead=0;swimlaneBody=0;fillColor=none;collapsible=0;dropTarget=0;points=[[0,0.5],[1,0.5]];portConstraint=eastwest;top=0;left=0;right=0;bottom=0;" parent="BljzLWtQxP2AV-R5Jl4V-43" vertex="1">
          <mxGeometry y="180" width="165" height="30" as="geometry" />
        </mxCell>
        <mxCell id="BljzLWtQxP2AV-R5Jl4V-60" value="" style="shape=partialRectangle;connectable=0;fillColor=none;top=0;left=0;bottom=0;right=0;editable=1;overflow=hidden;whiteSpace=wrap;html=1;" parent="BljzLWtQxP2AV-R5Jl4V-59" vertex="1">
          <mxGeometry width="30" height="30" as="geometry">
            <mxRectangle width="30" height="30" as="alternateBounds" />
          </mxGeometry>
        </mxCell>
        <mxCell id="BljzLWtQxP2AV-R5Jl4V-61" value="&lt;blockquote style=&quot;margin: 0 0 0 40px; border: none; padding: 0px;&quot;&gt;street&lt;/blockquote&gt;" style="shape=partialRectangle;connectable=0;fillColor=none;top=0;left=0;bottom=0;right=0;align=left;spacingLeft=6;overflow=hidden;whiteSpace=wrap;html=1;" parent="BljzLWtQxP2AV-R5Jl4V-59" vertex="1">
          <mxGeometry x="30" width="135" height="30" as="geometry">
            <mxRectangle width="135" height="30" as="alternateBounds" />
          </mxGeometry>
        </mxCell>
        <mxCell id="BljzLWtQxP2AV-R5Jl4V-62" value="" style="shape=tableRow;horizontal=0;startSize=0;swimlaneHead=0;swimlaneBody=0;fillColor=none;collapsible=0;dropTarget=0;points=[[0,0.5],[1,0.5]];portConstraint=eastwest;top=0;left=0;right=0;bottom=0;" parent="BljzLWtQxP2AV-R5Jl4V-43" vertex="1">
          <mxGeometry y="210" width="165" height="30" as="geometry" />
        </mxCell>
        <mxCell id="BljzLWtQxP2AV-R5Jl4V-63" value="" style="shape=partialRectangle;connectable=0;fillColor=none;top=0;left=0;bottom=0;right=0;editable=1;overflow=hidden;whiteSpace=wrap;html=1;" parent="BljzLWtQxP2AV-R5Jl4V-62" vertex="1">
          <mxGeometry width="30" height="30" as="geometry">
            <mxRectangle width="30" height="30" as="alternateBounds" />
          </mxGeometry>
        </mxCell>
        <mxCell id="BljzLWtQxP2AV-R5Jl4V-64" value="&lt;blockquote style=&quot;margin: 0 0 0 40px; border: none; padding: 0px;&quot;&gt;postCode&lt;/blockquote&gt;" style="shape=partialRectangle;connectable=0;fillColor=none;top=0;left=0;bottom=0;right=0;align=left;spacingLeft=6;overflow=hidden;whiteSpace=wrap;html=1;" parent="BljzLWtQxP2AV-R5Jl4V-62" vertex="1">
          <mxGeometry x="30" width="135" height="30" as="geometry">
            <mxRectangle width="135" height="30" as="alternateBounds" />
          </mxGeometry>
        </mxCell>
        <mxCell id="BljzLWtQxP2AV-R5Jl4V-65" value="" style="shape=tableRow;horizontal=0;startSize=0;swimlaneHead=0;swimlaneBody=0;fillColor=none;collapsible=0;dropTarget=0;points=[[0,0.5],[1,0.5]];portConstraint=eastwest;top=0;left=0;right=0;bottom=0;" parent="BljzLWtQxP2AV-R5Jl4V-43" vertex="1">
          <mxGeometry y="240" width="165" height="30" as="geometry" />
        </mxCell>
        <mxCell id="BljzLWtQxP2AV-R5Jl4V-66" value="" style="shape=partialRectangle;connectable=0;fillColor=none;top=0;left=0;bottom=0;right=0;editable=1;overflow=hidden;whiteSpace=wrap;html=1;" parent="BljzLWtQxP2AV-R5Jl4V-65" vertex="1">
          <mxGeometry width="30" height="30" as="geometry">
            <mxRectangle width="30" height="30" as="alternateBounds" />
          </mxGeometry>
        </mxCell>
        <mxCell id="BljzLWtQxP2AV-R5Jl4V-67" value="phoneNum (1..3 )" style="shape=partialRectangle;connectable=0;fillColor=none;top=0;left=0;bottom=0;right=0;align=left;spacingLeft=6;overflow=hidden;whiteSpace=wrap;html=1;" parent="BljzLWtQxP2AV-R5Jl4V-65" vertex="1">
          <mxGeometry x="30" width="135" height="30" as="geometry">
            <mxRectangle width="135" height="30" as="alternateBounds" />
          </mxGeometry>
        </mxCell>
        <mxCell id="BljzLWtQxP2AV-R5Jl4V-68" value="Bill" style="shape=table;startSize=30;container=1;collapsible=1;childLayout=tableLayout;fixedRows=1;rowLines=0;fontStyle=1;align=center;resizeLast=1;html=1;" parent="1" vertex="1">
          <mxGeometry x="380" y="669" width="165" height="120" as="geometry" />
        </mxCell>
        <mxCell id="BljzLWtQxP2AV-R5Jl4V-69" value="" style="shape=tableRow;horizontal=0;startSize=0;swimlaneHead=0;swimlaneBody=0;fillColor=none;collapsible=0;dropTarget=0;points=[[0,0.5],[1,0.5]];portConstraint=eastwest;top=0;left=0;right=0;bottom=1;" parent="BljzLWtQxP2AV-R5Jl4V-68" vertex="1">
          <mxGeometry y="30" width="165" height="30" as="geometry" />
        </mxCell>
        <mxCell id="BljzLWtQxP2AV-R5Jl4V-70" value="PK" style="shape=partialRectangle;connectable=0;fillColor=none;top=0;left=0;bottom=0;right=0;fontStyle=1;overflow=hidden;whiteSpace=wrap;html=1;" parent="BljzLWtQxP2AV-R5Jl4V-69" vertex="1">
          <mxGeometry width="30" height="30" as="geometry">
            <mxRectangle width="30" height="30" as="alternateBounds" />
          </mxGeometry>
        </mxCell>
        <mxCell id="BljzLWtQxP2AV-R5Jl4V-71" value="&lt;span style=&quot;font-size: 11pt; line-height: 15.6933px; font-family: Aptos, sans-serif;&quot; lang=&quot;EN-AU&quot;&gt;billNo&lt;/span&gt;&lt;span style=&quot;font-size: medium; font-weight: 400;&quot;&gt;&lt;/span&gt;" style="shape=partialRectangle;connectable=0;fillColor=none;top=0;left=0;bottom=0;right=0;align=left;spacingLeft=6;fontStyle=5;overflow=hidden;whiteSpace=wrap;html=1;" parent="BljzLWtQxP2AV-R5Jl4V-69" vertex="1">
          <mxGeometry x="30" width="135" height="30" as="geometry">
            <mxRectangle width="135" height="30" as="alternateBounds" />
          </mxGeometry>
        </mxCell>
        <mxCell id="BljzLWtQxP2AV-R5Jl4V-72" value="" style="shape=tableRow;horizontal=0;startSize=0;swimlaneHead=0;swimlaneBody=0;fillColor=none;collapsible=0;dropTarget=0;points=[[0,0.5],[1,0.5]];portConstraint=eastwest;top=0;left=0;right=0;bottom=0;" parent="BljzLWtQxP2AV-R5Jl4V-68" vertex="1">
          <mxGeometry y="60" width="165" height="30" as="geometry" />
        </mxCell>
        <mxCell id="BljzLWtQxP2AV-R5Jl4V-73" value="" style="shape=partialRectangle;connectable=0;fillColor=none;top=0;left=0;bottom=0;right=0;editable=1;overflow=hidden;whiteSpace=wrap;html=1;" parent="BljzLWtQxP2AV-R5Jl4V-72" vertex="1">
          <mxGeometry width="30" height="30" as="geometry">
            <mxRectangle width="30" height="30" as="alternateBounds" />
          </mxGeometry>
        </mxCell>
        <mxCell id="BljzLWtQxP2AV-R5Jl4V-74" value="&lt;span style=&quot;font-family: Aptos, sans-serif; font-size: 14.6667px;&quot;&gt;amount&lt;/span&gt;" style="shape=partialRectangle;connectable=0;fillColor=none;top=0;left=0;bottom=0;right=0;align=left;spacingLeft=6;overflow=hidden;whiteSpace=wrap;html=1;" parent="BljzLWtQxP2AV-R5Jl4V-72" vertex="1">
          <mxGeometry x="30" width="135" height="30" as="geometry">
            <mxRectangle width="135" height="30" as="alternateBounds" />
          </mxGeometry>
        </mxCell>
        <mxCell id="BljzLWtQxP2AV-R5Jl4V-78" value="" style="shape=tableRow;horizontal=0;startSize=0;swimlaneHead=0;swimlaneBody=0;fillColor=none;collapsible=0;dropTarget=0;points=[[0,0.5],[1,0.5]];portConstraint=eastwest;top=0;left=0;right=0;bottom=0;" parent="BljzLWtQxP2AV-R5Jl4V-68" vertex="1">
          <mxGeometry y="90" width="165" height="30" as="geometry" />
        </mxCell>
        <mxCell id="BljzLWtQxP2AV-R5Jl4V-79" value="" style="shape=partialRectangle;connectable=0;fillColor=none;top=0;left=0;bottom=0;right=0;editable=1;overflow=hidden;whiteSpace=wrap;html=1;" parent="BljzLWtQxP2AV-R5Jl4V-78" vertex="1">
          <mxGeometry width="30" height="30" as="geometry">
            <mxRectangle width="30" height="30" as="alternateBounds" />
          </mxGeometry>
        </mxCell>
        <mxCell id="BljzLWtQxP2AV-R5Jl4V-80" value="&lt;span style=&quot;font-family: Aptos, sans-serif; font-size: 14.6667px;&quot;&gt;payTime&lt;/span&gt;" style="shape=partialRectangle;connectable=0;fillColor=none;top=0;left=0;bottom=0;right=0;align=left;spacingLeft=6;overflow=hidden;whiteSpace=wrap;html=1;" parent="BljzLWtQxP2AV-R5Jl4V-78" vertex="1">
          <mxGeometry x="30" width="135" height="30" as="geometry">
            <mxRectangle width="135" height="30" as="alternateBounds" />
          </mxGeometry>
        </mxCell>
        <mxCell id="BljzLWtQxP2AV-R5Jl4V-100" value="Service" style="shape=table;startSize=30;container=1;collapsible=1;childLayout=tableLayout;fixedRows=1;rowLines=0;fontStyle=1;align=center;resizeLast=1;html=1;" parent="1" vertex="1">
          <mxGeometry x="872" y="39" width="165" height="120" as="geometry" />
        </mxCell>
        <mxCell id="BljzLWtQxP2AV-R5Jl4V-101" value="" style="shape=tableRow;horizontal=0;startSize=0;swimlaneHead=0;swimlaneBody=0;fillColor=none;collapsible=0;dropTarget=0;points=[[0,0.5],[1,0.5]];portConstraint=eastwest;top=0;left=0;right=0;bottom=1;" parent="BljzLWtQxP2AV-R5Jl4V-100" vertex="1">
          <mxGeometry y="30" width="165" height="30" as="geometry" />
        </mxCell>
        <mxCell id="BljzLWtQxP2AV-R5Jl4V-102" value="PK" style="shape=partialRectangle;connectable=0;fillColor=none;top=0;left=0;bottom=0;right=0;fontStyle=1;overflow=hidden;whiteSpace=wrap;html=1;" parent="BljzLWtQxP2AV-R5Jl4V-101" vertex="1">
          <mxGeometry width="30" height="30" as="geometry">
            <mxRectangle width="30" height="30" as="alternateBounds" />
          </mxGeometry>
        </mxCell>
        <mxCell id="BljzLWtQxP2AV-R5Jl4V-103" value="&lt;span style=&quot;font-size: 11pt; line-height: 15.6933px; font-family: Aptos, sans-serif;&quot; lang=&quot;EN-AU&quot;&gt;prescribedCode&lt;/span&gt;&lt;span style=&quot;font-size: medium; font-weight: 400;&quot;&gt;&lt;/span&gt;" style="shape=partialRectangle;connectable=0;fillColor=none;top=0;left=0;bottom=0;right=0;align=left;spacingLeft=6;fontStyle=5;overflow=hidden;whiteSpace=wrap;html=1;" parent="BljzLWtQxP2AV-R5Jl4V-101" vertex="1">
          <mxGeometry x="30" width="135" height="30" as="geometry">
            <mxRectangle width="135" height="30" as="alternateBounds" />
          </mxGeometry>
        </mxCell>
        <mxCell id="BljzLWtQxP2AV-R5Jl4V-104" value="" style="shape=tableRow;horizontal=0;startSize=0;swimlaneHead=0;swimlaneBody=0;fillColor=none;collapsible=0;dropTarget=0;points=[[0,0.5],[1,0.5]];portConstraint=eastwest;top=0;left=0;right=0;bottom=0;" parent="BljzLWtQxP2AV-R5Jl4V-100" vertex="1">
          <mxGeometry y="60" width="165" height="30" as="geometry" />
        </mxCell>
        <mxCell id="BljzLWtQxP2AV-R5Jl4V-105" value="" style="shape=partialRectangle;connectable=0;fillColor=none;top=0;left=0;bottom=0;right=0;editable=1;overflow=hidden;whiteSpace=wrap;html=1;" parent="BljzLWtQxP2AV-R5Jl4V-104" vertex="1">
          <mxGeometry width="30" height="30" as="geometry">
            <mxRectangle width="30" height="30" as="alternateBounds" />
          </mxGeometry>
        </mxCell>
        <mxCell id="BljzLWtQxP2AV-R5Jl4V-106" value="&lt;span style=&quot;font-family: Aptos, sans-serif; font-size: 14.6667px;&quot;&gt;description&lt;/span&gt;" style="shape=partialRectangle;connectable=0;fillColor=none;top=0;left=0;bottom=0;right=0;align=left;spacingLeft=6;overflow=hidden;whiteSpace=wrap;html=1;" parent="BljzLWtQxP2AV-R5Jl4V-104" vertex="1">
          <mxGeometry x="30" width="135" height="30" as="geometry">
            <mxRectangle width="135" height="30" as="alternateBounds" />
          </mxGeometry>
        </mxCell>
        <mxCell id="BljzLWtQxP2AV-R5Jl4V-107" value="" style="shape=tableRow;horizontal=0;startSize=0;swimlaneHead=0;swimlaneBody=0;fillColor=none;collapsible=0;dropTarget=0;points=[[0,0.5],[1,0.5]];portConstraint=eastwest;top=0;left=0;right=0;bottom=0;" parent="BljzLWtQxP2AV-R5Jl4V-100" vertex="1">
          <mxGeometry y="90" width="165" height="30" as="geometry" />
        </mxCell>
        <mxCell id="BljzLWtQxP2AV-R5Jl4V-108" value="" style="shape=partialRectangle;connectable=0;fillColor=none;top=0;left=0;bottom=0;right=0;editable=1;overflow=hidden;whiteSpace=wrap;html=1;" parent="BljzLWtQxP2AV-R5Jl4V-107" vertex="1">
          <mxGeometry width="30" height="30" as="geometry">
            <mxRectangle width="30" height="30" as="alternateBounds" />
          </mxGeometry>
        </mxCell>
        <mxCell id="BljzLWtQxP2AV-R5Jl4V-109" value="&lt;span style=&quot;font-family: Aptos, sans-serif; font-size: 14.6667px;&quot;&gt;serviceFee&lt;/span&gt;" style="shape=partialRectangle;connectable=0;fillColor=none;top=0;left=0;bottom=0;right=0;align=left;spacingLeft=6;overflow=hidden;whiteSpace=wrap;html=1;" parent="BljzLWtQxP2AV-R5Jl4V-107" vertex="1">
          <mxGeometry x="30" width="135" height="30" as="geometry">
            <mxRectangle width="135" height="30" as="alternateBounds" />
          </mxGeometry>
        </mxCell>
        <mxCell id="BljzLWtQxP2AV-R5Jl4V-113" style="edgeStyle=orthogonalEdgeStyle;rounded=0;orthogonalLoop=1;jettySize=auto;html=1;exitX=0.5;exitY=0;exitDx=0;exitDy=0;entryX=1;entryY=0.5;entryDx=0;entryDy=0;endArrow=none;endFill=0;" parent="1" source="BljzLWtQxP2AV-R5Jl4V-115" target="BljzLWtQxP2AV-R5Jl4V-101" edge="1">
          <mxGeometry relative="1" as="geometry" />
        </mxCell>
        <mxCell id="BljzLWtQxP2AV-R5Jl4V-114" style="edgeStyle=orthogonalEdgeStyle;rounded=0;orthogonalLoop=1;jettySize=auto;html=1;entryX=1;entryY=0.5;entryDx=0;entryDy=0;endArrow=none;endFill=0;exitX=0.522;exitY=1.029;exitDx=0;exitDy=0;exitPerimeter=0;" parent="1" source="BljzLWtQxP2AV-R5Jl4V-146" target="BljzLWtQxP2AV-R5Jl4V-72" edge="1">
          <mxGeometry relative="1" as="geometry" />
        </mxCell>
        <mxCell id="BljzLWtQxP2AV-R5Jl4V-115" value="Invoices" style="shape=table;startSize=30;container=1;collapsible=1;childLayout=tableLayout;fixedRows=1;rowLines=0;fontStyle=1;align=center;resizeLast=1;html=1;" parent="1" vertex="1">
          <mxGeometry x="983.25" y="478.99" width="165" height="210" as="geometry" />
        </mxCell>
        <mxCell id="BljzLWtQxP2AV-R5Jl4V-116" value="" style="shape=tableRow;horizontal=0;startSize=0;swimlaneHead=0;swimlaneBody=0;fillColor=none;collapsible=0;dropTarget=0;points=[[0,0.5],[1,0.5]];portConstraint=eastwest;top=0;left=0;right=0;bottom=1;" parent="BljzLWtQxP2AV-R5Jl4V-115" vertex="1">
          <mxGeometry y="30" width="165" height="30" as="geometry" />
        </mxCell>
        <mxCell id="BljzLWtQxP2AV-R5Jl4V-117" value="PK" style="shape=partialRectangle;connectable=0;fillColor=none;top=0;left=0;bottom=0;right=0;fontStyle=1;overflow=hidden;whiteSpace=wrap;html=1;" parent="BljzLWtQxP2AV-R5Jl4V-116" vertex="1">
          <mxGeometry width="30" height="30" as="geometry">
            <mxRectangle width="30" height="30" as="alternateBounds" />
          </mxGeometry>
        </mxCell>
        <mxCell id="BljzLWtQxP2AV-R5Jl4V-118" value="&lt;span style=&quot;font-size: 11pt; line-height: 15.6933px; font-family: Aptos, sans-serif;&quot; lang=&quot;EN-AU&quot;&gt;invoiceNo&lt;/span&gt;&lt;span style=&quot;font-size: medium; font-weight: 400;&quot;&gt;&lt;/span&gt;" style="shape=partialRectangle;connectable=0;fillColor=none;top=0;left=0;bottom=0;right=0;align=left;spacingLeft=6;fontStyle=5;overflow=hidden;whiteSpace=wrap;html=1;" parent="BljzLWtQxP2AV-R5Jl4V-116" vertex="1">
          <mxGeometry x="30" width="135" height="30" as="geometry">
            <mxRectangle width="135" height="30" as="alternateBounds" />
          </mxGeometry>
        </mxCell>
        <mxCell id="BljzLWtQxP2AV-R5Jl4V-134" value="" style="shape=tableRow;horizontal=0;startSize=0;swimlaneHead=0;swimlaneBody=0;fillColor=none;collapsible=0;dropTarget=0;points=[[0,0.5],[1,0.5]];portConstraint=eastwest;top=0;left=0;right=0;bottom=0;" parent="BljzLWtQxP2AV-R5Jl4V-115" vertex="1">
          <mxGeometry y="60" width="165" height="30" as="geometry" />
        </mxCell>
        <mxCell id="BljzLWtQxP2AV-R5Jl4V-135" value="" style="shape=partialRectangle;connectable=0;fillColor=none;top=0;left=0;bottom=0;right=0;editable=1;overflow=hidden;whiteSpace=wrap;html=1;" parent="BljzLWtQxP2AV-R5Jl4V-134" vertex="1">
          <mxGeometry width="30" height="30" as="geometry">
            <mxRectangle width="30" height="30" as="alternateBounds" />
          </mxGeometry>
        </mxCell>
        <mxCell id="BljzLWtQxP2AV-R5Jl4V-136" value="&lt;span style=&quot;font-size: 11pt; line-height: 15.6933px; font-family: Aptos, sans-serif;&quot; lang=&quot;EN-AU&quot;&gt;createDate&lt;/span&gt;&lt;span style=&quot;font-size: medium;&quot;&gt;&lt;/span&gt;&lt;br&gt;&lt;span style=&quot;font-size: medium;&quot;&gt;&lt;/span&gt;" style="shape=partialRectangle;connectable=0;fillColor=none;top=0;left=0;bottom=0;right=0;align=left;spacingLeft=6;overflow=hidden;whiteSpace=wrap;html=1;" parent="BljzLWtQxP2AV-R5Jl4V-134" vertex="1">
          <mxGeometry x="30" width="135" height="30" as="geometry">
            <mxRectangle width="135" height="30" as="alternateBounds" />
          </mxGeometry>
        </mxCell>
        <mxCell id="BljzLWtQxP2AV-R5Jl4V-137" value="" style="shape=tableRow;horizontal=0;startSize=0;swimlaneHead=0;swimlaneBody=0;fillColor=none;collapsible=0;dropTarget=0;points=[[0,0.5],[1,0.5]];portConstraint=eastwest;top=0;left=0;right=0;bottom=0;" parent="BljzLWtQxP2AV-R5Jl4V-115" vertex="1">
          <mxGeometry y="90" width="165" height="30" as="geometry" />
        </mxCell>
        <mxCell id="BljzLWtQxP2AV-R5Jl4V-138" value="" style="shape=partialRectangle;connectable=0;fillColor=none;top=0;left=0;bottom=0;right=0;editable=1;overflow=hidden;whiteSpace=wrap;html=1;" parent="BljzLWtQxP2AV-R5Jl4V-137" vertex="1">
          <mxGeometry width="30" height="30" as="geometry">
            <mxRectangle width="30" height="30" as="alternateBounds" />
          </mxGeometry>
        </mxCell>
        <mxCell id="BljzLWtQxP2AV-R5Jl4V-139" value="&lt;span style=&quot;font-size: 11pt; line-height: 15.6933px; font-family: Aptos, sans-serif;&quot; lang=&quot;EN-AU&quot;&gt;finalDate&lt;/span&gt;&lt;span style=&quot;font-size: medium;&quot;&gt;&lt;/span&gt;&lt;br&gt;&lt;span style=&quot;font-size: medium;&quot;&gt;&lt;/span&gt;" style="shape=partialRectangle;connectable=0;fillColor=none;top=0;left=0;bottom=0;right=0;align=left;spacingLeft=6;overflow=hidden;whiteSpace=wrap;html=1;" parent="BljzLWtQxP2AV-R5Jl4V-137" vertex="1">
          <mxGeometry x="30" width="135" height="30" as="geometry">
            <mxRectangle width="135" height="30" as="alternateBounds" />
          </mxGeometry>
        </mxCell>
        <mxCell id="BljzLWtQxP2AV-R5Jl4V-140" value="" style="shape=tableRow;horizontal=0;startSize=0;swimlaneHead=0;swimlaneBody=0;fillColor=none;collapsible=0;dropTarget=0;points=[[0,0.5],[1,0.5]];portConstraint=eastwest;top=0;left=0;right=0;bottom=0;" parent="BljzLWtQxP2AV-R5Jl4V-115" vertex="1">
          <mxGeometry y="120" width="165" height="30" as="geometry" />
        </mxCell>
        <mxCell id="BljzLWtQxP2AV-R5Jl4V-141" value="" style="shape=partialRectangle;connectable=0;fillColor=none;top=0;left=0;bottom=0;right=0;editable=1;overflow=hidden;whiteSpace=wrap;html=1;" parent="BljzLWtQxP2AV-R5Jl4V-140" vertex="1">
          <mxGeometry width="30" height="30" as="geometry">
            <mxRectangle width="30" height="30" as="alternateBounds" />
          </mxGeometry>
        </mxCell>
        <mxCell id="BljzLWtQxP2AV-R5Jl4V-142" value="&lt;span style=&quot;font-size: 11pt; line-height: 15.6933px; font-family: Aptos, sans-serif;&quot; lang=&quot;EN-AU&quot;&gt;clinicalComment&lt;/span&gt;&lt;span style=&quot;font-size: medium;&quot;&gt;&lt;/span&gt;&lt;br&gt;&lt;span style=&quot;font-size: medium;&quot;&gt;&lt;/span&gt;" style="shape=partialRectangle;connectable=0;fillColor=none;top=0;left=0;bottom=0;right=0;align=left;spacingLeft=6;overflow=hidden;whiteSpace=wrap;html=1;" parent="BljzLWtQxP2AV-R5Jl4V-140" vertex="1">
          <mxGeometry x="30" width="135" height="30" as="geometry">
            <mxRectangle width="135" height="30" as="alternateBounds" />
          </mxGeometry>
        </mxCell>
        <mxCell id="BljzLWtQxP2AV-R5Jl4V-143" value="" style="shape=tableRow;horizontal=0;startSize=0;swimlaneHead=0;swimlaneBody=0;fillColor=none;collapsible=0;dropTarget=0;points=[[0,0.5],[1,0.5]];portConstraint=eastwest;top=0;left=0;right=0;bottom=0;" parent="BljzLWtQxP2AV-R5Jl4V-115" vertex="1">
          <mxGeometry y="150" width="165" height="30" as="geometry" />
        </mxCell>
        <mxCell id="BljzLWtQxP2AV-R5Jl4V-144" value="" style="shape=partialRectangle;connectable=0;fillColor=none;top=0;left=0;bottom=0;right=0;editable=1;overflow=hidden;whiteSpace=wrap;html=1;" parent="BljzLWtQxP2AV-R5Jl4V-143" vertex="1">
          <mxGeometry width="30" height="30" as="geometry">
            <mxRectangle width="30" height="30" as="alternateBounds" />
          </mxGeometry>
        </mxCell>
        <mxCell id="BljzLWtQxP2AV-R5Jl4V-145" value="&lt;a style=&quot;font-size: medium;&quot; name=&quot;OLE_LINK62&quot;&gt;&lt;/a&gt;&lt;span style=&quot;font-size: 11pt; line-height: 15.6933px; font-family: Aptos, sans-serif;&quot; lang=&quot;EN-AU&quot;&gt;/totalFee&lt;/span&gt;&lt;span style=&quot;font-size: medium;&quot;&gt;&lt;/span&gt;&lt;br&gt;&lt;span style=&quot;font-size: medium;&quot;&gt;&lt;/span&gt;" style="shape=partialRectangle;connectable=0;fillColor=none;top=0;left=0;bottom=0;right=0;align=left;spacingLeft=6;overflow=hidden;whiteSpace=wrap;html=1;" parent="BljzLWtQxP2AV-R5Jl4V-143" vertex="1">
          <mxGeometry x="30" width="135" height="30" as="geometry">
            <mxRectangle width="135" height="30" as="alternateBounds" />
          </mxGeometry>
        </mxCell>
        <mxCell id="BljzLWtQxP2AV-R5Jl4V-146" value="" style="shape=tableRow;horizontal=0;startSize=0;swimlaneHead=0;swimlaneBody=0;fillColor=none;collapsible=0;dropTarget=0;points=[[0,0.5],[1,0.5]];portConstraint=eastwest;top=0;left=0;right=0;bottom=0;" parent="BljzLWtQxP2AV-R5Jl4V-115" vertex="1">
          <mxGeometry y="180" width="165" height="30" as="geometry" />
        </mxCell>
        <mxCell id="BljzLWtQxP2AV-R5Jl4V-147" value="" style="shape=partialRectangle;connectable=0;fillColor=none;top=0;left=0;bottom=0;right=0;editable=1;overflow=hidden;whiteSpace=wrap;html=1;" parent="BljzLWtQxP2AV-R5Jl4V-146" vertex="1">
          <mxGeometry width="30" height="30" as="geometry">
            <mxRectangle width="30" height="30" as="alternateBounds" />
          </mxGeometry>
        </mxCell>
        <mxCell id="BljzLWtQxP2AV-R5Jl4V-148" value="&lt;span style=&quot;font-size: 11pt; line-height: 15.6933px; font-family: Aptos, sans-serif;&quot; lang=&quot;EN-AU&quot;&gt;status&lt;/span&gt;&lt;span style=&quot;font-size: medium;&quot;&gt;&lt;/span&gt;&lt;br&gt;&lt;span style=&quot;font-size: medium;&quot;&gt;&lt;/span&gt;" style="shape=partialRectangle;connectable=0;fillColor=none;top=0;left=0;bottom=0;right=0;align=left;spacingLeft=6;overflow=hidden;whiteSpace=wrap;html=1;" parent="BljzLWtQxP2AV-R5Jl4V-146" vertex="1">
          <mxGeometry x="30" width="135" height="30" as="geometry">
            <mxRectangle width="135" height="30" as="alternateBounds" />
          </mxGeometry>
        </mxCell>
        <mxCell id="BljzLWtQxP2AV-R5Jl4V-149" style="edgeStyle=orthogonalEdgeStyle;rounded=0;orthogonalLoop=1;jettySize=auto;html=1;exitX=1;exitY=0.5;exitDx=0;exitDy=0;endArrow=none;endFill=0;entryX=0.5;entryY=0;entryDx=0;entryDy=0;" parent="1" source="BljzLWtQxP2AV-R5Jl4V-25" target="BljzLWtQxP2AV-R5Jl4V-1" edge="1">
          <mxGeometry relative="1" as="geometry">
            <mxPoint x="903" y="114" as="targetPoint" />
          </mxGeometry>
        </mxCell>
        <mxCell id="BljzLWtQxP2AV-R5Jl4V-151" value="1..1" style="text;html=1;align=center;verticalAlign=middle;resizable=0;points=[];autosize=1;strokeColor=none;fillColor=none;" parent="1" vertex="1">
          <mxGeometry x="1069.5" y="448.99" width="40" height="30" as="geometry" />
        </mxCell>
        <mxCell id="BljzLWtQxP2AV-R5Jl4V-152" style="edgeStyle=orthogonalEdgeStyle;rounded=0;orthogonalLoop=1;jettySize=auto;html=1;entryX=0;entryY=0.5;entryDx=0;entryDy=0;endArrow=none;endFill=0;exitX=0;exitY=0.5;exitDx=0;exitDy=0;" parent="1" source="BljzLWtQxP2AV-R5Jl4V-157" target="BljzLWtQxP2AV-R5Jl4V-50" edge="1">
          <mxGeometry relative="1" as="geometry">
            <mxPoint x="865.056" y="789.77" as="targetPoint" />
            <Array as="points">
              <mxPoint x="56" y="114" />
              <mxPoint x="56" y="264" />
              <mxPoint x="120" y="264" />
            </Array>
          </mxGeometry>
        </mxCell>
        <mxCell id="BljzLWtQxP2AV-R5Jl4V-153" value="Clinic" style="shape=table;startSize=30;container=1;collapsible=1;childLayout=tableLayout;fixedRows=1;rowLines=0;fontStyle=1;align=center;resizeLast=1;html=1;" parent="1" vertex="1">
          <mxGeometry x="120" y="39" width="165" height="90" as="geometry" />
        </mxCell>
        <mxCell id="BljzLWtQxP2AV-R5Jl4V-154" value="" style="shape=tableRow;horizontal=0;startSize=0;swimlaneHead=0;swimlaneBody=0;fillColor=none;collapsible=0;dropTarget=0;points=[[0,0.5],[1,0.5]];portConstraint=eastwest;top=0;left=0;right=0;bottom=1;" parent="BljzLWtQxP2AV-R5Jl4V-153" vertex="1">
          <mxGeometry y="30" width="165" height="30" as="geometry" />
        </mxCell>
        <mxCell id="BljzLWtQxP2AV-R5Jl4V-155" value="PK" style="shape=partialRectangle;connectable=0;fillColor=none;top=0;left=0;bottom=0;right=0;fontStyle=1;overflow=hidden;whiteSpace=wrap;html=1;" parent="BljzLWtQxP2AV-R5Jl4V-154" vertex="1">
          <mxGeometry width="30" height="30" as="geometry">
            <mxRectangle width="30" height="30" as="alternateBounds" />
          </mxGeometry>
        </mxCell>
        <mxCell id="BljzLWtQxP2AV-R5Jl4V-156" value="&lt;span style=&quot;font-size: 11pt; line-height: 15.6933px; font-family: Aptos, sans-serif;&quot; lang=&quot;EN-US&quot;&gt;clinicNo&lt;/span&gt;&lt;span style=&quot;font-size: medium; font-weight: 400;&quot;&gt;&lt;/span&gt;" style="shape=partialRectangle;connectable=0;fillColor=none;top=0;left=0;bottom=0;right=0;align=left;spacingLeft=6;fontStyle=5;overflow=hidden;whiteSpace=wrap;html=1;" parent="BljzLWtQxP2AV-R5Jl4V-154" vertex="1">
          <mxGeometry x="30" width="135" height="30" as="geometry">
            <mxRectangle width="135" height="30" as="alternateBounds" />
          </mxGeometry>
        </mxCell>
        <mxCell id="BljzLWtQxP2AV-R5Jl4V-157" value="" style="shape=tableRow;horizontal=0;startSize=0;swimlaneHead=0;swimlaneBody=0;fillColor=none;collapsible=0;dropTarget=0;points=[[0,0.5],[1,0.5]];portConstraint=eastwest;top=0;left=0;right=0;bottom=0;" parent="BljzLWtQxP2AV-R5Jl4V-153" vertex="1">
          <mxGeometry y="60" width="165" height="30" as="geometry" />
        </mxCell>
        <mxCell id="BljzLWtQxP2AV-R5Jl4V-158" value="" style="shape=partialRectangle;connectable=0;fillColor=none;top=0;left=0;bottom=0;right=0;editable=1;overflow=hidden;whiteSpace=wrap;html=1;" parent="BljzLWtQxP2AV-R5Jl4V-157" vertex="1">
          <mxGeometry width="30" height="30" as="geometry">
            <mxRectangle width="30" height="30" as="alternateBounds" />
          </mxGeometry>
        </mxCell>
        <mxCell id="BljzLWtQxP2AV-R5Jl4V-159" value="&lt;span style=&quot;font-size: 11pt; line-height: 15.6933px; font-family: Aptos, sans-serif;&quot; lang=&quot;EN-US&quot;&gt;clinicName&lt;/span&gt;&lt;span style=&quot;font-size: medium;&quot;&gt;&lt;/span&gt;" style="shape=partialRectangle;connectable=0;fillColor=none;top=0;left=0;bottom=0;right=0;align=left;spacingLeft=6;overflow=hidden;whiteSpace=wrap;html=1;" parent="BljzLWtQxP2AV-R5Jl4V-157" vertex="1">
          <mxGeometry x="30" width="135" height="30" as="geometry">
            <mxRectangle width="135" height="30" as="alternateBounds" />
          </mxGeometry>
        </mxCell>
        <mxCell id="BljzLWtQxP2AV-R5Jl4V-160" style="edgeStyle=orthogonalEdgeStyle;rounded=0;orthogonalLoop=1;jettySize=auto;html=1;entryX=0;entryY=0.5;entryDx=0;entryDy=0;exitX=1;exitY=0.5;exitDx=0;exitDy=0;endArrow=none;endFill=0;" parent="1" source="BljzLWtQxP2AV-R5Jl4V-154" target="BljzLWtQxP2AV-R5Jl4V-13" edge="1">
          <mxGeometry relative="1" as="geometry" />
        </mxCell>
        <mxCell id="BljzLWtQxP2AV-R5Jl4V-161" value="1..1" style="text;html=1;align=center;verticalAlign=middle;resizable=0;points=[];autosize=1;strokeColor=none;fillColor=none;" parent="1" vertex="1">
          <mxGeometry x="943.25" y="585" width="40" height="30" as="geometry" />
        </mxCell>
        <mxCell id="BljzLWtQxP2AV-R5Jl4V-162" value="1..*" style="text;html=1;align=center;verticalAlign=middle;resizable=0;points=[];autosize=1;strokeColor=none;fillColor=none;" parent="1" vertex="1">
          <mxGeometry x="712" y="84" width="40" height="30" as="geometry" />
        </mxCell>
        <mxCell id="BljzLWtQxP2AV-R5Jl4V-163" value="1..*" style="text;html=1;align=center;verticalAlign=middle;resizable=0;points=[];autosize=1;strokeColor=none;fillColor=none;" parent="1" vertex="1">
          <mxGeometry x="507" y="50" width="40" height="30" as="geometry" />
        </mxCell>
        <mxCell id="BljzLWtQxP2AV-R5Jl4V-164" value="1..1" style="text;html=1;align=center;verticalAlign=middle;resizable=0;points=[];autosize=1;strokeColor=none;fillColor=none;" parent="1" vertex="1">
          <mxGeometry x="285" y="50" width="40" height="30" as="geometry" />
        </mxCell>
        <mxCell id="BljzLWtQxP2AV-R5Jl4V-165" value="1..*" style="text;html=1;align=center;verticalAlign=middle;resizable=0;points=[];autosize=1;strokeColor=none;fillColor=none;" parent="1" vertex="1">
          <mxGeometry x="752" y="509" width="40" height="30" as="geometry" />
        </mxCell>
        <mxCell id="BljzLWtQxP2AV-R5Jl4V-166" value="0..*" style="text;html=1;align=center;verticalAlign=middle;resizable=0;points=[];autosize=1;strokeColor=none;fillColor=none;" parent="1" vertex="1">
          <mxGeometry x="340" y="714" width="40" height="30" as="geometry" />
        </mxCell>
        <mxCell id="BljzLWtQxP2AV-R5Jl4V-167" value="1..5" style="text;html=1;align=center;verticalAlign=middle;resizable=0;points=[];autosize=1;strokeColor=none;fillColor=none;" parent="1" vertex="1">
          <mxGeometry x="1037" y="50" width="40" height="30" as="geometry" />
        </mxCell>
        <mxCell id="BljzLWtQxP2AV-R5Jl4V-169" value="1..1" style="text;html=1;align=center;verticalAlign=middle;resizable=0;points=[];autosize=1;strokeColor=none;fillColor=none;" parent="1" vertex="1">
          <mxGeometry x="832" y="585" width="40" height="30" as="geometry" />
        </mxCell>
        <mxCell id="BljzLWtQxP2AV-R5Jl4V-170" value="1..1" style="text;html=1;align=center;verticalAlign=middle;resizable=0;points=[];autosize=1;strokeColor=none;fillColor=none;" parent="1" vertex="1">
          <mxGeometry x="390" y="566.5" width="40" height="30" as="geometry" />
        </mxCell>
        <mxCell id="BljzLWtQxP2AV-R5Jl4V-171" value="0..*" style="text;html=1;align=center;verticalAlign=middle;resizable=0;points=[];autosize=1;strokeColor=none;fillColor=none;" parent="1" vertex="1">
          <mxGeometry x="315" y="611" width="40" height="30" as="geometry" />
        </mxCell>
        <mxCell id="BljzLWtQxP2AV-R5Jl4V-172" value="1..1" style="text;html=1;align=center;verticalAlign=middle;resizable=0;points=[];autosize=1;strokeColor=none;fillColor=none;" parent="1" vertex="1">
          <mxGeometry x="80" y="80" width="40" height="30" as="geometry" />
        </mxCell>
        <mxCell id="BljzLWtQxP2AV-R5Jl4V-173" value="1..1" style="text;html=1;align=center;verticalAlign=middle;resizable=0;points=[];autosize=1;strokeColor=none;fillColor=none;" parent="1" vertex="1">
          <mxGeometry x="50" y="581" width="40" height="30" as="geometry" />
        </mxCell>
        <mxCell id="BljzLWtQxP2AV-R5Jl4V-174" value="" style="group" parent="1" vertex="1" connectable="0">
          <mxGeometry x="377" y="50" width="51" height="30" as="geometry" />
        </mxCell>
        <mxCell id="BljzLWtQxP2AV-R5Jl4V-175" value="" style="shape=image;html=1;verticalAlign=top;verticalLabelPosition=bottom;labelBackgroundColor=#ffffff;imageAspect=0;aspect=fixed;image=https://cdn4.iconfinder.com/data/icons/essential-app-2/16/play-music-triangle-media-128.png" parent="BljzLWtQxP2AV-R5Jl4V-174" vertex="1">
          <mxGeometry x="40" y="9.5" width="10.5" height="10.5" as="geometry" />
        </mxCell>
        <mxCell id="BljzLWtQxP2AV-R5Jl4V-176" value="hires" style="text;html=1;align=center;verticalAlign=middle;resizable=0;points=[];autosize=1;strokeColor=none;fillColor=none;" parent="BljzLWtQxP2AV-R5Jl4V-174" vertex="1">
          <mxGeometry x="-5" width="50" height="30" as="geometry" />
        </mxCell>
        <mxCell id="BljzLWtQxP2AV-R5Jl4V-180" value="" style="group;rotation=-180;" parent="1" vertex="1" connectable="0">
          <mxGeometry x="919" y="749" width="56" height="30" as="geometry" />
        </mxCell>
        <mxCell id="BljzLWtQxP2AV-R5Jl4V-181" value="" style="shape=image;html=1;verticalAlign=top;verticalLabelPosition=bottom;labelBackgroundColor=#ffffff;imageAspect=0;aspect=fixed;image=https://cdn4.iconfinder.com/data/icons/essential-app-2/16/play-music-triangle-media-128.png;rotation=-180;" parent="BljzLWtQxP2AV-R5Jl4V-180" vertex="1">
          <mxGeometry x="4" y="9" width="11" height="11" as="geometry" />
        </mxCell>
        <mxCell id="BljzLWtQxP2AV-R5Jl4V-182" value="&lt;span style=&quot;font-size: 11px; background-color: rgb(255, 255, 255);&quot;&gt;sends&lt;/span&gt;" style="text;html=1;align=center;verticalAlign=middle;resizable=0;points=[];autosize=1;strokeColor=none;fillColor=none;" parent="BljzLWtQxP2AV-R5Jl4V-180" vertex="1">
          <mxGeometry x="6" y="-1" width="50" height="30" as="geometry" />
        </mxCell>
        <mxCell id="BljzLWtQxP2AV-R5Jl4V-183" value="" style="group" parent="1" vertex="1" connectable="0">
          <mxGeometry x="56" y="149" width="60" height="45" as="geometry" />
        </mxCell>
        <mxCell id="BljzLWtQxP2AV-R5Jl4V-184" value="assigns" style="text;html=1;align=center;verticalAlign=middle;resizable=0;points=[];autosize=1;strokeColor=none;fillColor=none;" parent="BljzLWtQxP2AV-R5Jl4V-183" vertex="1">
          <mxGeometry y="6" width="60" height="30" as="geometry" />
        </mxCell>
        <mxCell id="BljzLWtQxP2AV-R5Jl4V-185" value="" style="shape=image;html=1;verticalAlign=top;verticalLabelPosition=bottom;labelBackgroundColor=#ffffff;imageAspect=0;aspect=fixed;image=https://cdn1.iconfinder.com/data/icons/ionicons-fill-vol-2/512/triangle-128.png;rotation=-180;" parent="BljzLWtQxP2AV-R5Jl4V-183" vertex="1">
          <mxGeometry x="25" y="30" width="10" height="10" as="geometry" />
        </mxCell>
        <mxCell id="BljzLWtQxP2AV-R5Jl4V-186" value="" style="group;rotation=-90;" parent="1" vertex="1" connectable="0">
          <mxGeometry x="1065" y="299" width="67.5" height="45" as="geometry" />
        </mxCell>
        <mxCell id="BljzLWtQxP2AV-R5Jl4V-187" value="" style="shape=image;html=1;verticalAlign=top;verticalLabelPosition=bottom;labelBackgroundColor=#ffffff;imageAspect=0;aspect=fixed;image=https://cdn1.iconfinder.com/data/icons/ionicons-fill-vol-2/512/triangle-128.png;rotation=0;" parent="BljzLWtQxP2AV-R5Jl4V-186" vertex="1">
          <mxGeometry x="22" y="-11" width="11" height="11" as="geometry" />
        </mxCell>
        <mxCell id="BljzLWtQxP2AV-R5Jl4V-188" value="&lt;span style=&quot;font-size: 11px; background-color: rgb(255, 255, 255);&quot;&gt;identifies&lt;/span&gt;" style="text;html=1;align=center;verticalAlign=middle;resizable=0;points=[];autosize=1;strokeColor=none;fillColor=none;rotation=0;" parent="BljzLWtQxP2AV-R5Jl4V-186" vertex="1">
          <mxGeometry x="-7.5" y="-11" width="70" height="30" as="geometry" />
        </mxCell>
        <mxCell id="BljzLWtQxP2AV-R5Jl4V-189" value="" style="group;rotation=-180;" parent="1" vertex="1" connectable="0">
          <mxGeometry x="770" y="84" width="51" height="30" as="geometry" />
        </mxCell>
        <mxCell id="BljzLWtQxP2AV-R5Jl4V-190" value="" style="shape=image;html=1;verticalAlign=top;verticalLabelPosition=bottom;labelBackgroundColor=#ffffff;imageAspect=0;aspect=fixed;image=https://cdn4.iconfinder.com/data/icons/essential-app-2/16/play-music-triangle-media-128.png;rotation=-360;" parent="BljzLWtQxP2AV-R5Jl4V-189" vertex="1">
          <mxGeometry x="46" y="10" width="10.5" height="10.5" as="geometry" />
        </mxCell>
        <mxCell id="BljzLWtQxP2AV-R5Jl4V-191" value="gives" style="text;html=1;align=center;verticalAlign=middle;resizable=0;points=[];autosize=1;strokeColor=none;fillColor=none;" parent="BljzLWtQxP2AV-R5Jl4V-189" vertex="1">
          <mxGeometry y="-1" width="50" height="30" as="geometry" />
        </mxCell>
        <mxCell id="BljzLWtQxP2AV-R5Jl4V-192" value="x" style="group" parent="1" vertex="1" connectable="0">
          <mxGeometry x="865.25" y="585" width="78" height="30" as="geometry" />
        </mxCell>
        <mxCell id="BljzLWtQxP2AV-R5Jl4V-193" value="" style="shape=image;html=1;verticalAlign=top;verticalLabelPosition=bottom;labelBackgroundColor=#ffffff;imageAspect=0;aspect=fixed;image=https://cdn4.iconfinder.com/data/icons/essential-app-2/16/play-music-triangle-media-128.png;rotation=0;" parent="BljzLWtQxP2AV-R5Jl4V-192" vertex="1">
          <mxGeometry x="67.5" y="9.75" width="10.5" height="10.5" as="geometry" />
        </mxCell>
        <mxCell id="BljzLWtQxP2AV-R5Jl4V-194" value="&lt;span style=&quot;font-size: 11px; background-color: rgb(255, 255, 255);&quot;&gt;generates&lt;/span&gt;" style="text;html=1;align=center;verticalAlign=middle;resizable=0;points=[];autosize=1;strokeColor=none;fillColor=none;" parent="BljzLWtQxP2AV-R5Jl4V-192" vertex="1">
          <mxGeometry x="3" width="70" height="30" as="geometry" />
        </mxCell>
        <mxCell id="BljzLWtQxP2AV-R5Jl4V-195" style="edgeStyle=orthogonalEdgeStyle;rounded=0;orthogonalLoop=1;jettySize=auto;html=1;endArrow=block;endFill=0;exitX=0.5;exitY=0;exitDx=0;exitDy=0;entryX=0.5;entryY=1.001;entryDx=0;entryDy=0;entryPerimeter=0;" parent="1" target="BljzLWtQxP2AV-R5Jl4V-65" edge="1">
          <mxGeometry relative="1" as="geometry">
            <mxPoint x="108.5" y="525" as="sourcePoint" />
            <mxPoint x="210" y="469" as="targetPoint" />
            <Array as="points">
              <mxPoint x="109" y="479" />
              <mxPoint x="202" y="479" />
              <mxPoint x="202" y="469" />
              <mxPoint x="203" y="469" />
            </Array>
          </mxGeometry>
        </mxCell>
        <mxCell id="BljzLWtQxP2AV-R5Jl4V-196" value="{mandatory, and}" style="text;html=1;align=center;verticalAlign=middle;resizable=0;points=[];autosize=1;strokeColor=none;fillColor=none;" parent="1" vertex="1">
          <mxGeometry x="147.5" y="479" width="110" height="30" as="geometry" />
        </mxCell>
        <mxCell id="BljzLWtQxP2AV-R5Jl4V-197" style="edgeStyle=orthogonalEdgeStyle;rounded=0;orthogonalLoop=1;jettySize=auto;html=1;endArrow=block;endFill=0;exitX=0.5;exitY=0;exitDx=0;exitDy=0;entryX=0.499;entryY=0.995;entryDx=0;entryDy=0;entryPerimeter=0;" parent="1" source="BljzLWtQxP2AV-R5Jl4V-277" target="BljzLWtQxP2AV-R5Jl4V-65" edge="1">
          <mxGeometry relative="1" as="geometry">
            <mxPoint x="309.5" y="525" as="sourcePoint" />
            <mxPoint x="196" y="389" as="targetPoint" />
            <Array as="points">
              <mxPoint x="310" y="479" />
              <mxPoint x="202" y="479" />
            </Array>
          </mxGeometry>
        </mxCell>
        <mxCell id="BljzLWtQxP2AV-R5Jl4V-198" style="edgeStyle=orthogonalEdgeStyle;rounded=0;orthogonalLoop=1;jettySize=auto;html=1;entryX=0;entryY=0.5;entryDx=0;entryDy=0;endArrow=none;endFill=0;" parent="1" target="BljzLWtQxP2AV-R5Jl4V-72" edge="1">
          <mxGeometry relative="1" as="geometry">
            <mxPoint x="50" y="580" as="sourcePoint" />
            <mxPoint x="378.34000000000015" y="774.1300000000001" as="targetPoint" />
          </mxGeometry>
        </mxCell>
        <mxCell id="BljzLWtQxP2AV-R5Jl4V-207" style="edgeStyle=orthogonalEdgeStyle;rounded=0;orthogonalLoop=1;jettySize=auto;html=1;exitX=1;exitY=0.5;exitDx=0;exitDy=0;entryX=0;entryY=0.5;entryDx=0;entryDy=0;endArrow=none;endFill=0;" parent="1" source="BljzLWtQxP2AV-R5Jl4V-278" target="BljzLWtQxP2AV-R5Jl4V-245" edge="1">
          <mxGeometry relative="1" as="geometry">
            <mxPoint x="379" y="595" as="sourcePoint" />
            <Array as="points">
              <mxPoint x="430" y="566" />
              <mxPoint x="430" y="398" />
            </Array>
          </mxGeometry>
        </mxCell>
        <mxCell id="BljzLWtQxP2AV-R5Jl4V-247" style="edgeStyle=orthogonalEdgeStyle;rounded=0;orthogonalLoop=1;jettySize=auto;html=1;exitX=0;exitY=0.5;exitDx=0;exitDy=0;endArrow=none;endFill=0;entryX=0.5;entryY=0;entryDx=0;entryDy=0;" parent="1" source="BljzLWtQxP2AV-R5Jl4V-22" target="BljzLWtQxP2AV-R5Jl4V-225" edge="1">
          <mxGeometry relative="1" as="geometry" />
        </mxCell>
        <mxCell id="BljzLWtQxP2AV-R5Jl4V-218" style="edgeStyle=orthogonalEdgeStyle;rounded=0;orthogonalLoop=1;jettySize=auto;html=1;entryX=0;entryY=0.5;entryDx=0;entryDy=0;endArrow=none;endFill=0;exitX=1;exitY=0.5;exitDx=0;exitDy=0;" parent="1" source="BljzLWtQxP2AV-R5Jl4V-329" target="BljzLWtQxP2AV-R5Jl4V-137" edge="1">
          <mxGeometry relative="1" as="geometry">
            <mxPoint x="832" y="584" as="sourcePoint" />
            <mxPoint x="958.4450000000002" y="569.5799999999999" as="targetPoint" />
          </mxGeometry>
        </mxCell>
        <mxCell id="BljzLWtQxP2AV-R5Jl4V-219" value="" style="edgeStyle=orthogonalEdgeStyle;rounded=0;orthogonalLoop=1;jettySize=auto;html=1;entryX=0.525;entryY=0.987;entryDx=0;entryDy=0;endArrow=none;endFill=0;entryPerimeter=0;exitX=0.756;exitY=0.996;exitDx=0;exitDy=0;exitPerimeter=0;" parent="1" source="BljzLWtQxP2AV-R5Jl4V-284" target="BljzLWtQxP2AV-R5Jl4V-279" edge="1">
          <mxGeometry relative="1" as="geometry">
            <mxPoint x="108.5" y="605" as="sourcePoint" />
            <mxPoint x="162.49999999999977" y="681.5" as="targetPoint" />
          </mxGeometry>
        </mxCell>
        <mxCell id="BljzLWtQxP2AV-R5Jl4V-221" value="1..*" style="text;html=1;align=center;verticalAlign=middle;resizable=0;points=[];autosize=1;strokeColor=none;fillColor=none;" parent="1" vertex="1">
          <mxGeometry x="832" y="84" width="40" height="30" as="geometry" />
        </mxCell>
        <mxCell id="BljzLWtQxP2AV-R5Jl4V-222" value="0..*" style="text;html=1;align=center;verticalAlign=middle;resizable=0;points=[];autosize=1;strokeColor=none;fillColor=none;" parent="1" vertex="1">
          <mxGeometry x="80" y="269" width="40" height="30" as="geometry" />
        </mxCell>
        <mxCell id="BljzLWtQxP2AV-R5Jl4V-223" value="1..1" style="text;html=1;align=center;verticalAlign=middle;resizable=0;points=[];autosize=1;strokeColor=none;fillColor=none;" parent="1" vertex="1">
          <mxGeometry x="545" y="749" width="40" height="30" as="geometry" />
        </mxCell>
        <mxCell id="BljzLWtQxP2AV-R5Jl4V-224" value="1..1" style="text;html=1;align=center;verticalAlign=middle;resizable=0;points=[];autosize=1;strokeColor=none;fillColor=none;" parent="1" vertex="1">
          <mxGeometry x="1069.5" y="688.99" width="40" height="30" as="geometry" />
        </mxCell>
        <mxCell id="BljzLWtQxP2AV-R5Jl4V-225" value="Treatment" style="shape=table;startSize=30;container=1;collapsible=1;childLayout=tableLayout;fixedRows=1;rowLines=0;fontStyle=1;align=center;resizeLast=1;html=1;" parent="1" vertex="1">
          <mxGeometry x="320" y="259" width="165" height="90" as="geometry" />
        </mxCell>
        <mxCell id="BljzLWtQxP2AV-R5Jl4V-226" value="" style="shape=tableRow;horizontal=0;startSize=0;swimlaneHead=0;swimlaneBody=0;fillColor=none;collapsible=0;dropTarget=0;points=[[0,0.5],[1,0.5]];portConstraint=eastwest;top=0;left=0;right=0;bottom=1;" parent="BljzLWtQxP2AV-R5Jl4V-225" vertex="1">
          <mxGeometry y="30" width="165" height="30" as="geometry" />
        </mxCell>
        <mxCell id="BljzLWtQxP2AV-R5Jl4V-227" value="PK" style="shape=partialRectangle;connectable=0;fillColor=none;top=0;left=0;bottom=0;right=0;fontStyle=1;overflow=hidden;whiteSpace=wrap;html=1;" parent="BljzLWtQxP2AV-R5Jl4V-226" vertex="1">
          <mxGeometry width="30" height="30" as="geometry">
            <mxRectangle width="30" height="30" as="alternateBounds" />
          </mxGeometry>
        </mxCell>
        <mxCell id="BljzLWtQxP2AV-R5Jl4V-228" value="&lt;span style=&quot;font-size: 11pt; line-height: 15.6933px; font-family: Aptos, sans-serif;&quot; lang=&quot;EN-AU&quot;&gt;treatmentID&lt;/span&gt;&lt;span style=&quot;font-size: medium; font-weight: 400;&quot;&gt;&lt;/span&gt;" style="shape=partialRectangle;connectable=0;fillColor=none;top=0;left=0;bottom=0;right=0;align=left;spacingLeft=6;fontStyle=5;overflow=hidden;whiteSpace=wrap;html=1;" parent="BljzLWtQxP2AV-R5Jl4V-226" vertex="1">
          <mxGeometry x="30" width="135" height="30" as="geometry">
            <mxRectangle width="135" height="30" as="alternateBounds" />
          </mxGeometry>
        </mxCell>
        <mxCell id="BljzLWtQxP2AV-R5Jl4V-229" value="" style="shape=tableRow;horizontal=0;startSize=0;swimlaneHead=0;swimlaneBody=0;fillColor=none;collapsible=0;dropTarget=0;points=[[0,0.5],[1,0.5]];portConstraint=eastwest;top=0;left=0;right=0;bottom=0;" parent="BljzLWtQxP2AV-R5Jl4V-225" vertex="1">
          <mxGeometry y="60" width="165" height="30" as="geometry" />
        </mxCell>
        <mxCell id="BljzLWtQxP2AV-R5Jl4V-230" value="" style="shape=partialRectangle;connectable=0;fillColor=none;top=0;left=0;bottom=0;right=0;editable=1;overflow=hidden;whiteSpace=wrap;html=1;" parent="BljzLWtQxP2AV-R5Jl4V-229" vertex="1">
          <mxGeometry width="30" height="30" as="geometry">
            <mxRectangle width="30" height="30" as="alternateBounds" />
          </mxGeometry>
        </mxCell>
        <mxCell id="BljzLWtQxP2AV-R5Jl4V-231" value="&lt;span style=&quot;font-family: Aptos, sans-serif; font-size: 14.6667px;&quot;&gt;description&lt;/span&gt;" style="shape=partialRectangle;connectable=0;fillColor=none;top=0;left=0;bottom=0;right=0;align=left;spacingLeft=6;overflow=hidden;whiteSpace=wrap;html=1;" parent="BljzLWtQxP2AV-R5Jl4V-229" vertex="1">
          <mxGeometry x="30" width="135" height="30" as="geometry">
            <mxRectangle width="135" height="30" as="alternateBounds" />
          </mxGeometry>
        </mxCell>
        <mxCell id="BljzLWtQxP2AV-R5Jl4V-243" style="edgeStyle=orthogonalEdgeStyle;rounded=0;orthogonalLoop=1;jettySize=auto;html=1;exitX=0.5;exitY=0;exitDx=0;exitDy=0;endArrow=none;endFill=0;entryX=0.5;entryY=1;entryDx=0;entryDy=0;" parent="1" source="BljzLWtQxP2AV-R5Jl4V-245" target="BljzLWtQxP2AV-R5Jl4V-12" edge="1">
          <mxGeometry relative="1" as="geometry">
            <mxPoint x="537" y="289" as="targetPoint" />
            <Array as="points">
              <mxPoint x="629" y="340" />
              <mxPoint x="630" y="289" />
            </Array>
          </mxGeometry>
        </mxCell>
        <mxCell id="BljzLWtQxP2AV-R5Jl4V-244" style="edgeStyle=orthogonalEdgeStyle;rounded=0;orthogonalLoop=1;jettySize=auto;html=1;exitX=0.5;exitY=1;exitDx=0;exitDy=0;entryX=0.5;entryY=0;entryDx=0;entryDy=0;endArrow=none;endFill=0;" parent="1" source="BljzLWtQxP2AV-R5Jl4V-245" target="BljzLWtQxP2AV-R5Jl4V-328" edge="1">
          <mxGeometry relative="1" as="geometry">
            <mxPoint x="661.5" y="535.75" as="targetPoint" />
          </mxGeometry>
        </mxCell>
        <mxCell id="BljzLWtQxP2AV-R5Jl4V-347" style="edgeStyle=orthogonalEdgeStyle;rounded=0;orthogonalLoop=1;jettySize=auto;html=1;entryX=0.5;entryY=0;entryDx=0;entryDy=0;endArrow=none;endFill=0;dashed=1;exitX=0;exitY=1;exitDx=0;exitDy=0;" parent="1" source="BljzLWtQxP2AV-R5Jl4V-245" target="BljzLWtQxP2AV-R5Jl4V-351" edge="1">
          <mxGeometry relative="1" as="geometry">
            <mxPoint x="548.5" y="491.6300000000001" as="targetPoint" />
          </mxGeometry>
        </mxCell>
        <mxCell id="BljzLWtQxP2AV-R5Jl4V-348" style="edgeStyle=orthogonalEdgeStyle;rounded=0;orthogonalLoop=1;jettySize=auto;html=1;exitX=1;exitY=0.5;exitDx=0;exitDy=0;entryX=0;entryY=0.5;entryDx=0;entryDy=0;endArrow=none;endFill=0;" parent="1" source="BljzLWtQxP2AV-R5Jl4V-245" target="BljzLWtQxP2AV-R5Jl4V-5" edge="1">
          <mxGeometry relative="1" as="geometry" />
        </mxCell>
        <mxCell id="BljzLWtQxP2AV-R5Jl4V-245" value="&lt;span style=&quot;text-wrap: nowrap;&quot;&gt;schedule&lt;/span&gt;" style="shape=rhombus;perimeter=rhombusPerimeter;whiteSpace=wrap;html=1;align=center;" parent="1" vertex="1">
          <mxGeometry x="569" y="366" width="120" height="64" as="geometry" />
        </mxCell>
        <mxCell id="BljzLWtQxP2AV-R5Jl4V-246" value="1..1" style="text;html=1;align=center;verticalAlign=middle;resizable=0;points=[];autosize=1;strokeColor=none;fillColor=none;" parent="1" vertex="1">
          <mxGeometry x="587" y="289" width="40" height="30" as="geometry" />
        </mxCell>
        <mxCell id="BljzLWtQxP2AV-R5Jl4V-248" value="1..*" style="text;html=1;align=center;verticalAlign=middle;resizable=0;points=[];autosize=1;strokeColor=none;fillColor=none;" parent="1" vertex="1">
          <mxGeometry x="360" y="229" width="40" height="30" as="geometry" />
        </mxCell>
        <mxCell id="BljzLWtQxP2AV-R5Jl4V-250" value="0..*" style="text;html=1;align=center;verticalAlign=middle;resizable=0;points=[];autosize=1;strokeColor=none;fillColor=none;" parent="1" vertex="1">
          <mxGeometry x="712" y="207" width="40" height="30" as="geometry" />
        </mxCell>
        <mxCell id="BljzLWtQxP2AV-R5Jl4V-251" value="" style="group" parent="1" vertex="1" connectable="0">
          <mxGeometry x="810" y="207" width="51" height="30" as="geometry" />
        </mxCell>
        <mxCell id="BljzLWtQxP2AV-R5Jl4V-252" value="" style="shape=image;html=1;verticalAlign=top;verticalLabelPosition=bottom;labelBackgroundColor=#ffffff;imageAspect=0;aspect=fixed;image=https://cdn4.iconfinder.com/data/icons/essential-app-2/16/play-music-triangle-media-128.png" parent="BljzLWtQxP2AV-R5Jl4V-251" vertex="1">
          <mxGeometry x="40" y="9.5" width="11" height="11" as="geometry" />
        </mxCell>
        <mxCell id="BljzLWtQxP2AV-R5Jl4V-253" value="has" style="text;html=1;align=center;verticalAlign=middle;resizable=0;points=[];autosize=1;strokeColor=none;fillColor=none;" parent="BljzLWtQxP2AV-R5Jl4V-251" vertex="1">
          <mxGeometry width="40" height="30" as="geometry" />
        </mxCell>
        <mxCell id="BljzLWtQxP2AV-R5Jl4V-254" value="1..2" style="text;html=1;align=center;verticalAlign=middle;resizable=0;points=[];autosize=1;strokeColor=none;fillColor=none;" parent="1" vertex="1">
          <mxGeometry x="850" y="282" width="40" height="30" as="geometry" />
        </mxCell>
        <mxCell id="BljzLWtQxP2AV-R5Jl4V-261" value="" style="group;rotation=-180;" parent="1" vertex="1" connectable="0">
          <mxGeometry x="419" y="141" width="72" height="30" as="geometry" />
        </mxCell>
        <mxCell id="BljzLWtQxP2AV-R5Jl4V-262" value="" style="shape=image;html=1;verticalAlign=top;verticalLabelPosition=bottom;labelBackgroundColor=#ffffff;imageAspect=0;aspect=fixed;image=https://cdn4.iconfinder.com/data/icons/essential-app-2/16/play-music-triangle-media-128.png;rotation=-180;" parent="BljzLWtQxP2AV-R5Jl4V-261" vertex="1">
          <mxGeometry x="4" y="9" width="11" height="11" as="geometry" />
        </mxCell>
        <mxCell id="BljzLWtQxP2AV-R5Jl4V-263" value="&lt;span style=&quot;font-size: 12px;&quot;&gt;specializes&lt;/span&gt;" style="text;html=1;align=center;verticalAlign=middle;resizable=0;points=[];autosize=1;strokeColor=none;fillColor=none;" parent="BljzLWtQxP2AV-R5Jl4V-261" vertex="1">
          <mxGeometry x="8" y="-2" width="80" height="30" as="geometry" />
        </mxCell>
        <mxCell id="BljzLWtQxP2AV-R5Jl4V-264" value="1..*" style="text;html=1;align=center;verticalAlign=middle;resizable=0;points=[];autosize=1;strokeColor=none;fillColor=none;" parent="1" vertex="1">
          <mxGeometry x="507" y="141" width="40" height="30" as="geometry" />
        </mxCell>
        <mxCell id="BljzLWtQxP2AV-R5Jl4V-266" style="edgeStyle=orthogonalEdgeStyle;rounded=0;orthogonalLoop=1;jettySize=auto;html=1;exitX=0.75;exitY=0;exitDx=0;exitDy=0;entryX=0.185;entryY=1.008;entryDx=0;entryDy=0;entryPerimeter=0;endArrow=none;endFill=0;" parent="1" source="BljzLWtQxP2AV-R5Jl4V-277" target="BljzLWtQxP2AV-R5Jl4V-229" edge="1">
          <mxGeometry relative="1" as="geometry">
            <mxPoint x="337.75" y="525" as="sourcePoint" />
          </mxGeometry>
        </mxCell>
        <mxCell id="BljzLWtQxP2AV-R5Jl4V-267" value="" style="group;rotation=-180;" parent="1" vertex="1" connectable="0">
          <mxGeometry x="350" y="391" width="65" height="45" as="geometry" />
        </mxCell>
        <mxCell id="BljzLWtQxP2AV-R5Jl4V-268" value="requires" style="text;html=1;align=center;verticalAlign=middle;resizable=0;points=[];autosize=1;strokeColor=none;fillColor=none;rotation=0;" parent="BljzLWtQxP2AV-R5Jl4V-267" vertex="1">
          <mxGeometry x="-5" y="7" width="70" height="30" as="geometry" />
        </mxCell>
        <mxCell id="BljzLWtQxP2AV-R5Jl4V-269" value="" style="shape=image;html=1;verticalAlign=top;verticalLabelPosition=bottom;labelBackgroundColor=#ffffff;imageAspect=0;aspect=fixed;image=https://cdn1.iconfinder.com/data/icons/ionicons-fill-vol-2/512/triangle-128.png;rotation=-360;" parent="BljzLWtQxP2AV-R5Jl4V-267" vertex="1">
          <mxGeometry x="25" y="5" width="10" height="10" as="geometry" />
        </mxCell>
        <mxCell id="BljzLWtQxP2AV-R5Jl4V-277" value="Patient" style="swimlane;fontStyle=1;childLayout=stackLayout;horizontal=1;startSize=26;horizontalStack=0;resizeParent=1;resizeParentMax=0;resizeLast=0;collapsible=1;marginBottom=0;align=center;fontSize=14;" parent="1" vertex="1">
          <mxGeometry x="230" y="525" width="160" height="86" as="geometry" />
        </mxCell>
        <mxCell id="BljzLWtQxP2AV-R5Jl4V-278" value="medicareNo" style="text;strokeColor=none;fillColor=none;spacingLeft=4;spacingRight=4;overflow=hidden;rotatable=0;points=[[0,0.5],[1,0.5]];portConstraint=eastwest;fontSize=12;whiteSpace=wrap;html=1;" parent="BljzLWtQxP2AV-R5Jl4V-277" vertex="1">
          <mxGeometry y="26" width="160" height="30" as="geometry" />
        </mxCell>
        <mxCell id="BljzLWtQxP2AV-R5Jl4V-279" value="DOB" style="text;strokeColor=none;fillColor=none;spacingLeft=4;spacingRight=4;overflow=hidden;rotatable=0;points=[[0,0.5],[1,0.5]];portConstraint=eastwest;fontSize=12;whiteSpace=wrap;html=1;" parent="BljzLWtQxP2AV-R5Jl4V-277" vertex="1">
          <mxGeometry y="56" width="160" height="30" as="geometry" />
        </mxCell>
        <mxCell id="BljzLWtQxP2AV-R5Jl4V-283" value="Custome" style="swimlane;fontStyle=1;childLayout=stackLayout;horizontal=1;startSize=26;horizontalStack=0;resizeParent=1;resizeParentMax=0;resizeLast=0;collapsible=1;marginBottom=0;align=center;fontSize=14;" parent="1" vertex="1">
          <mxGeometry x="20" y="525" width="160" height="56" as="geometry" />
        </mxCell>
        <mxCell id="BljzLWtQxP2AV-R5Jl4V-284" value="payment" style="text;strokeColor=none;fillColor=none;spacingLeft=4;spacingRight=4;overflow=hidden;rotatable=0;points=[[0,0.5],[1,0.5]];portConstraint=eastwest;fontSize=12;whiteSpace=wrap;html=1;" parent="BljzLWtQxP2AV-R5Jl4V-283" vertex="1">
          <mxGeometry y="26" width="160" height="30" as="geometry" />
        </mxCell>
        <mxCell id="BljzLWtQxP2AV-R5Jl4V-285" value="1..*" style="text;html=1;align=center;verticalAlign=middle;resizable=0;points=[];autosize=1;strokeColor=none;fillColor=none;" parent="1" vertex="1">
          <mxGeometry x="350" y="349" width="40" height="30" as="geometry" />
        </mxCell>
        <mxCell id="BljzLWtQxP2AV-R5Jl4V-286" value="0..*" style="text;html=1;align=center;verticalAlign=middle;resizable=0;points=[];autosize=1;strokeColor=none;fillColor=none;" parent="1" vertex="1">
          <mxGeometry x="350" y="491.63" width="40" height="30" as="geometry" />
        </mxCell>
        <mxCell id="BljzLWtQxP2AV-R5Jl4V-328" value="Appointment" style="shape=table;startSize=30;container=1;collapsible=1;childLayout=tableLayout;fixedRows=1;rowLines=0;fontStyle=1;align=center;resizeLast=1;html=1;" parent="1" vertex="1">
          <mxGeometry x="667" y="538.5" width="165" height="90" as="geometry" />
        </mxCell>
        <mxCell id="BljzLWtQxP2AV-R5Jl4V-329" value="" style="shape=tableRow;horizontal=0;startSize=0;swimlaneHead=0;swimlaneBody=0;fillColor=none;collapsible=0;dropTarget=0;points=[[0,0.5],[1,0.5]];portConstraint=eastwest;top=0;left=0;right=0;bottom=1;" parent="BljzLWtQxP2AV-R5Jl4V-328" vertex="1">
          <mxGeometry y="30" width="165" height="30" as="geometry" />
        </mxCell>
        <mxCell id="BljzLWtQxP2AV-R5Jl4V-330" value="PK" style="shape=partialRectangle;connectable=0;fillColor=none;top=0;left=0;bottom=0;right=0;fontStyle=1;overflow=hidden;whiteSpace=wrap;html=1;" parent="BljzLWtQxP2AV-R5Jl4V-329" vertex="1">
          <mxGeometry width="30" height="30" as="geometry">
            <mxRectangle width="30" height="30" as="alternateBounds" />
          </mxGeometry>
        </mxCell>
        <mxCell id="BljzLWtQxP2AV-R5Jl4V-331" value="&lt;span style=&quot;font-family: Aptos, sans-serif; font-size: 14.6667px;&quot;&gt;appointmentNo&lt;/span&gt;&lt;br&gt;&lt;span style=&quot;font-size: medium; font-weight: 400;&quot;&gt;&lt;/span&gt;" style="shape=partialRectangle;connectable=0;fillColor=none;top=0;left=0;bottom=0;right=0;align=left;spacingLeft=6;fontStyle=5;overflow=hidden;whiteSpace=wrap;html=1;" parent="BljzLWtQxP2AV-R5Jl4V-329" vertex="1">
          <mxGeometry x="30" width="135" height="30" as="geometry">
            <mxRectangle width="135" height="30" as="alternateBounds" />
          </mxGeometry>
        </mxCell>
        <mxCell id="BljzLWtQxP2AV-R5Jl4V-335" value="" style="shape=tableRow;horizontal=0;startSize=0;swimlaneHead=0;swimlaneBody=0;fillColor=none;collapsible=0;dropTarget=0;points=[[0,0.5],[1,0.5]];portConstraint=eastwest;top=0;left=0;right=0;bottom=0;" parent="BljzLWtQxP2AV-R5Jl4V-328" vertex="1">
          <mxGeometry y="60" width="165" height="30" as="geometry" />
        </mxCell>
        <mxCell id="BljzLWtQxP2AV-R5Jl4V-336" value="" style="shape=partialRectangle;connectable=0;fillColor=none;top=0;left=0;bottom=0;right=0;editable=1;overflow=hidden;whiteSpace=wrap;html=1;" parent="BljzLWtQxP2AV-R5Jl4V-335" vertex="1">
          <mxGeometry width="30" height="30" as="geometry">
            <mxRectangle width="30" height="30" as="alternateBounds" />
          </mxGeometry>
        </mxCell>
        <mxCell id="BljzLWtQxP2AV-R5Jl4V-337" value="&lt;br&gt;&lt;span style=&quot;font-size: medium;&quot;&gt;&lt;/span&gt;" style="shape=partialRectangle;connectable=0;fillColor=none;top=0;left=0;bottom=0;right=0;align=left;spacingLeft=6;overflow=hidden;whiteSpace=wrap;html=1;" parent="BljzLWtQxP2AV-R5Jl4V-335" vertex="1">
          <mxGeometry x="30" width="135" height="30" as="geometry">
            <mxRectangle width="135" height="30" as="alternateBounds" />
          </mxGeometry>
        </mxCell>
        <mxCell id="BljzLWtQxP2AV-R5Jl4V-350" value="1..1" style="text;html=1;align=center;verticalAlign=middle;resizable=0;points=[];autosize=1;strokeColor=none;fillColor=none;" parent="1" vertex="1">
          <mxGeometry x="766" y="366" width="40" height="30" as="geometry" />
        </mxCell>
        <mxCell id="BljzLWtQxP2AV-R5Jl4V-351" value="" style="swimlane;fontStyle=1;childLayout=stackLayout;horizontal=1;startSize=26;horizontalStack=0;resizeParent=1;resizeParentMax=0;resizeLast=0;collapsible=1;marginBottom=0;align=center;fontSize=14;" parent="1" vertex="1">
          <mxGeometry x="460" y="498" width="160" height="86" as="geometry" />
        </mxCell>
        <mxCell id="BljzLWtQxP2AV-R5Jl4V-352" value="&lt;span style=&quot;font-family: Aptos, sans-serif; font-size: 14.6667px;&quot;&gt;startDate (unique)&lt;/span&gt;" style="text;strokeColor=none;fillColor=none;spacingLeft=4;spacingRight=4;overflow=hidden;rotatable=0;points=[[0,0.5],[1,0.5]];portConstraint=eastwest;fontSize=12;whiteSpace=wrap;html=1;" parent="BljzLWtQxP2AV-R5Jl4V-351" vertex="1">
          <mxGeometry y="26" width="160" height="30" as="geometry" />
        </mxCell>
        <mxCell id="BljzLWtQxP2AV-R5Jl4V-353" value="&lt;a style=&quot;font-size: medium;&quot; name=&quot;OLE_LINK65&quot;&gt;&lt;span style=&quot;font-size: 11pt; line-height: 15.6933px; font-family: Aptos, sans-serif;&quot; lang=&quot;EN-AU&quot;&gt;startTime&amp;nbsp;&lt;/span&gt;&lt;/a&gt;&lt;span style=&quot;font-family: Aptos, sans-serif; font-size: 14.6667px;&quot;&gt;(unique)&lt;/span&gt;" style="text;strokeColor=none;fillColor=none;spacingLeft=4;spacingRight=4;overflow=hidden;rotatable=0;points=[[0,0.5],[1,0.5]];portConstraint=eastwest;fontSize=12;whiteSpace=wrap;html=1;" parent="BljzLWtQxP2AV-R5Jl4V-351" vertex="1">
          <mxGeometry y="56" width="160" height="30" as="geometry" />
        </mxCell>
        <mxCell id="BljzLWtQxP2AV-R5Jl4V-354" value="" style="group" parent="1" vertex="1" connectable="0">
          <mxGeometry x="180" y="714" width="51" height="30" as="geometry" />
        </mxCell>
        <mxCell id="BljzLWtQxP2AV-R5Jl4V-355" value="" style="shape=image;html=1;verticalAlign=top;verticalLabelPosition=bottom;labelBackgroundColor=#ffffff;imageAspect=0;aspect=fixed;image=https://cdn4.iconfinder.com/data/icons/essential-app-2/16/play-music-triangle-media-128.png" parent="BljzLWtQxP2AV-R5Jl4V-354" vertex="1">
          <mxGeometry x="40" y="9.5" width="11" height="11" as="geometry" />
        </mxCell>
        <mxCell id="BljzLWtQxP2AV-R5Jl4V-356" value="pays" style="text;html=1;align=center;verticalAlign=middle;resizable=0;points=[];autosize=1;strokeColor=none;fillColor=none;" parent="BljzLWtQxP2AV-R5Jl4V-354" vertex="1">
          <mxGeometry x="-5" width="50" height="30" as="geometry" />
        </mxCell>
        <mxCell id="BljzLWtQxP2AV-R5Jl4V-357" value="" style="group" parent="1" vertex="1" connectable="0">
          <mxGeometry x="192" y="630" width="55" height="30" as="geometry" />
        </mxCell>
        <mxCell id="BljzLWtQxP2AV-R5Jl4V-358" value="" style="shape=image;html=1;verticalAlign=top;verticalLabelPosition=bottom;labelBackgroundColor=#ffffff;imageAspect=0;aspect=fixed;image=https://cdn4.iconfinder.com/data/icons/essential-app-2/16/play-music-triangle-media-128.png" parent="BljzLWtQxP2AV-R5Jl4V-357" vertex="1">
          <mxGeometry x="40" y="9.5" width="11" height="11" as="geometry" />
        </mxCell>
        <mxCell id="BljzLWtQxP2AV-R5Jl4V-359" value="responds" style="text;html=1;align=center;verticalAlign=middle;resizable=0;points=[];autosize=1;strokeColor=none;fillColor=none;" parent="BljzLWtQxP2AV-R5Jl4V-357" vertex="1">
          <mxGeometry x="-23" width="70" height="30" as="geometry" />
        </mxCell>
        <mxCell id="BljzLWtQxP2AV-R5Jl4V-361" value="1..1" style="text;html=1;align=center;verticalAlign=middle;resizable=0;points=[];autosize=1;strokeColor=none;fillColor=none;" parent="1" vertex="1">
          <mxGeometry x="140" y="581" width="40" height="30" as="geometry" />
        </mxCell>
      </root>
    </mxGraphModel>
  </diagram>
  <diagram id="ZcVcGZZCBWMJy3uy6maR" name="Page-2">
    <mxGraphModel dx="1693" dy="866" grid="1" gridSize="10" guides="1" tooltips="1" connect="1" arrows="1" fold="1" page="1" pageScale="1" pageWidth="1169" pageHeight="827" math="0" shadow="0">
      <root>
        <mxCell id="0" />
        <mxCell id="1" parent="0" />
        <mxCell id="xc0DDMZrGfuiTKICy6-l-1" value="Room" style="shape=table;startSize=35;container=1;collapsible=1;childLayout=tableLayout;fixedRows=1;rowLines=0;fontStyle=1;align=center;resizeLast=1;" parent="1" vertex="1">
          <mxGeometry x="811" y="274.5" width="165" height="130" as="geometry" />
        </mxCell>
        <mxCell id="xc0DDMZrGfuiTKICy6-l-2" value="" style="shape=partialRectangle;collapsible=0;dropTarget=0;pointerEvents=0;fillColor=none;points=[[0,0.5],[1,0.5]];portConstraint=eastwest;top=0;left=0;right=0;bottom=1;" parent="xc0DDMZrGfuiTKICy6-l-1" vertex="1">
          <mxGeometry y="35" width="165" height="30" as="geometry" />
        </mxCell>
        <mxCell id="xc0DDMZrGfuiTKICy6-l-3" value="PK" style="shape=partialRectangle;overflow=hidden;connectable=0;fillColor=none;top=0;left=0;bottom=0;right=0;fontStyle=1;" parent="xc0DDMZrGfuiTKICy6-l-2" vertex="1">
          <mxGeometry width="30" height="30" as="geometry">
            <mxRectangle width="30" height="30" as="alternateBounds" />
          </mxGeometry>
        </mxCell>
        <mxCell id="xc0DDMZrGfuiTKICy6-l-4" value="roomNo" style="shape=partialRectangle;overflow=hidden;connectable=0;fillColor=none;top=0;left=0;bottom=0;right=0;align=left;spacingLeft=6;fontStyle=5;" parent="xc0DDMZrGfuiTKICy6-l-2" vertex="1">
          <mxGeometry x="30" width="135" height="30" as="geometry">
            <mxRectangle width="135" height="30" as="alternateBounds" />
          </mxGeometry>
        </mxCell>
        <mxCell id="xc0DDMZrGfuiTKICy6-l-5" value="" style="shape=partialRectangle;collapsible=0;dropTarget=0;pointerEvents=0;fillColor=none;points=[[0,0.5],[1,0.5]];portConstraint=eastwest;top=0;left=0;right=0;bottom=0;" parent="xc0DDMZrGfuiTKICy6-l-1" vertex="1">
          <mxGeometry y="65" width="165" height="30" as="geometry" />
        </mxCell>
        <mxCell id="xc0DDMZrGfuiTKICy6-l-6" value="" style="shape=partialRectangle;overflow=hidden;connectable=0;fillColor=none;top=0;left=0;bottom=0;right=0;" parent="xc0DDMZrGfuiTKICy6-l-5" vertex="1">
          <mxGeometry width="30" height="30" as="geometry">
            <mxRectangle width="30" height="30" as="alternateBounds" />
          </mxGeometry>
        </mxCell>
        <mxCell id="xc0DDMZrGfuiTKICy6-l-7" value="roomName" style="shape=partialRectangle;overflow=hidden;connectable=0;fillColor=none;top=0;left=0;bottom=0;right=0;align=left;spacingLeft=6;" parent="xc0DDMZrGfuiTKICy6-l-5" vertex="1">
          <mxGeometry x="30" width="135" height="30" as="geometry">
            <mxRectangle width="135" height="30" as="alternateBounds" />
          </mxGeometry>
        </mxCell>
        <mxCell id="xc0DDMZrGfuiTKICy6-l-8" value="" style="shape=partialRectangle;collapsible=0;dropTarget=0;pointerEvents=0;fillColor=none;points=[[0,0.5],[1,0.5]];portConstraint=eastwest;top=0;left=0;right=0;bottom=0;" parent="xc0DDMZrGfuiTKICy6-l-1" vertex="1">
          <mxGeometry y="95" width="165" height="30" as="geometry" />
        </mxCell>
        <mxCell id="xc0DDMZrGfuiTKICy6-l-9" value="" style="shape=partialRectangle;overflow=hidden;connectable=0;fillColor=none;top=0;left=0;bottom=0;right=0;" parent="xc0DDMZrGfuiTKICy6-l-8" vertex="1">
          <mxGeometry width="30" height="30" as="geometry">
            <mxRectangle width="30" height="30" as="alternateBounds" />
          </mxGeometry>
        </mxCell>
        <mxCell id="xc0DDMZrGfuiTKICy6-l-10" value="facility" style="shape=partialRectangle;overflow=hidden;connectable=0;fillColor=none;top=0;left=0;bottom=0;right=0;align=left;spacingLeft=6;" parent="xc0DDMZrGfuiTKICy6-l-8" vertex="1">
          <mxGeometry x="30" width="135" height="30" as="geometry">
            <mxRectangle width="135" height="30" as="alternateBounds" />
          </mxGeometry>
        </mxCell>
        <mxCell id="xc0DDMZrGfuiTKICy6-l-11" style="edgeStyle=orthogonalEdgeStyle;rounded=0;orthogonalLoop=1;jettySize=auto;html=1;exitX=1;exitY=0.5;exitDx=0;exitDy=0;entryX=0;entryY=0.5;entryDx=0;entryDy=0;endArrow=none;endFill=0;" parent="1" source="xc0DDMZrGfuiTKICy6-l-13" target="xc0DDMZrGfuiTKICy6-l-70" edge="1">
          <mxGeometry relative="1" as="geometry" />
        </mxCell>
        <mxCell id="xc0DDMZrGfuiTKICy6-l-12" value="Surgeon" style="shape=table;startSize=30;container=1;collapsible=1;childLayout=tableLayout;fixedRows=1;rowLines=0;fontStyle=1;align=center;resizeLast=1;" parent="1" vertex="1">
          <mxGeometry x="547" y="39" width="165" height="250" as="geometry" />
        </mxCell>
        <mxCell id="xc0DDMZrGfuiTKICy6-l-13" value="" style="shape=partialRectangle;collapsible=0;dropTarget=0;pointerEvents=0;fillColor=none;points=[[0,0.5],[1,0.5]];portConstraint=eastwest;top=0;left=0;right=0;bottom=1;" parent="xc0DDMZrGfuiTKICy6-l-12" vertex="1">
          <mxGeometry y="30" width="165" height="30" as="geometry" />
        </mxCell>
        <mxCell id="xc0DDMZrGfuiTKICy6-l-14" value="PK" style="shape=partialRectangle;overflow=hidden;connectable=0;fillColor=none;top=0;left=0;bottom=0;right=0;fontStyle=1;" parent="xc0DDMZrGfuiTKICy6-l-13" vertex="1">
          <mxGeometry width="30" height="30" as="geometry">
            <mxRectangle width="30" height="30" as="alternateBounds" />
          </mxGeometry>
        </mxCell>
        <mxCell id="xc0DDMZrGfuiTKICy6-l-15" value="surgeonID" style="shape=partialRectangle;overflow=hidden;connectable=0;fillColor=none;top=0;left=0;bottom=0;right=0;align=left;spacingLeft=6;fontStyle=5;" parent="xc0DDMZrGfuiTKICy6-l-13" vertex="1">
          <mxGeometry x="30" width="135" height="30" as="geometry">
            <mxRectangle width="135" height="30" as="alternateBounds" />
          </mxGeometry>
        </mxCell>
        <mxCell id="xc0DDMZrGfuiTKICy6-l-16" value="" style="shape=partialRectangle;collapsible=0;dropTarget=0;pointerEvents=0;fillColor=none;points=[[0,0.5],[1,0.5]];portConstraint=eastwest;top=0;left=0;right=0;bottom=0;" parent="xc0DDMZrGfuiTKICy6-l-12" vertex="1">
          <mxGeometry y="60" width="165" height="30" as="geometry" />
        </mxCell>
        <mxCell id="xc0DDMZrGfuiTKICy6-l-17" value="" style="shape=partialRectangle;overflow=hidden;connectable=0;fillColor=none;top=0;left=0;bottom=0;right=0;" parent="xc0DDMZrGfuiTKICy6-l-16" vertex="1">
          <mxGeometry width="30" height="30" as="geometry">
            <mxRectangle width="30" height="30" as="alternateBounds" />
          </mxGeometry>
        </mxCell>
        <mxCell id="xc0DDMZrGfuiTKICy6-l-18" value="name" style="shape=partialRectangle;overflow=hidden;connectable=0;fillColor=none;top=0;left=0;bottom=0;right=0;align=left;spacingLeft=6;" parent="xc0DDMZrGfuiTKICy6-l-16" vertex="1">
          <mxGeometry x="30" width="135" height="30" as="geometry">
            <mxRectangle width="135" height="30" as="alternateBounds" />
          </mxGeometry>
        </mxCell>
        <mxCell id="xc0DDMZrGfuiTKICy6-l-19" value="" style="shape=partialRectangle;collapsible=0;dropTarget=0;pointerEvents=0;fillColor=none;points=[[0,0.5],[1,0.5]];portConstraint=eastwest;top=0;left=0;right=0;bottom=0;" parent="xc0DDMZrGfuiTKICy6-l-12" vertex="1">
          <mxGeometry y="90" width="165" height="30" as="geometry" />
        </mxCell>
        <mxCell id="xc0DDMZrGfuiTKICy6-l-20" value="" style="shape=partialRectangle;overflow=hidden;connectable=0;fillColor=none;top=0;left=0;bottom=0;right=0;" parent="xc0DDMZrGfuiTKICy6-l-19" vertex="1">
          <mxGeometry width="30" height="30" as="geometry">
            <mxRectangle width="30" height="30" as="alternateBounds" />
          </mxGeometry>
        </mxCell>
        <mxCell id="xc0DDMZrGfuiTKICy6-l-21" value="    fName" style="shape=partialRectangle;overflow=hidden;connectable=0;fillColor=none;top=0;left=0;bottom=0;right=0;align=left;spacingLeft=6;" parent="xc0DDMZrGfuiTKICy6-l-19" vertex="1">
          <mxGeometry x="30" width="135" height="30" as="geometry">
            <mxRectangle width="135" height="30" as="alternateBounds" />
          </mxGeometry>
        </mxCell>
        <mxCell id="xc0DDMZrGfuiTKICy6-l-22" value="" style="shape=partialRectangle;collapsible=0;dropTarget=0;pointerEvents=0;fillColor=none;points=[[0,0.5],[1,0.5]];portConstraint=eastwest;top=0;left=0;right=0;bottom=0;" parent="xc0DDMZrGfuiTKICy6-l-12" vertex="1">
          <mxGeometry y="120" width="165" height="30" as="geometry" />
        </mxCell>
        <mxCell id="xc0DDMZrGfuiTKICy6-l-23" value="" style="shape=partialRectangle;overflow=hidden;connectable=0;fillColor=none;top=0;left=0;bottom=0;right=0;" parent="xc0DDMZrGfuiTKICy6-l-22" vertex="1">
          <mxGeometry width="30" height="30" as="geometry">
            <mxRectangle width="30" height="30" as="alternateBounds" />
          </mxGeometry>
        </mxCell>
        <mxCell id="xc0DDMZrGfuiTKICy6-l-24" value="    lName" style="shape=partialRectangle;overflow=hidden;connectable=0;fillColor=none;top=0;left=0;bottom=0;right=0;align=left;spacingLeft=6;" parent="xc0DDMZrGfuiTKICy6-l-22" vertex="1">
          <mxGeometry x="30" width="135" height="30" as="geometry">
            <mxRectangle width="135" height="30" as="alternateBounds" />
          </mxGeometry>
        </mxCell>
        <mxCell id="xc0DDMZrGfuiTKICy6-l-25" value="" style="shape=partialRectangle;collapsible=0;dropTarget=0;pointerEvents=0;fillColor=none;points=[[0,0.5],[1,0.5]];portConstraint=eastwest;top=0;left=0;right=0;bottom=0;" parent="xc0DDMZrGfuiTKICy6-l-12" vertex="1">
          <mxGeometry y="150" width="165" height="30" as="geometry" />
        </mxCell>
        <mxCell id="xc0DDMZrGfuiTKICy6-l-26" value="" style="shape=partialRectangle;overflow=hidden;connectable=0;fillColor=none;top=0;left=0;bottom=0;right=0;" parent="xc0DDMZrGfuiTKICy6-l-25" vertex="1">
          <mxGeometry width="30" height="30" as="geometry">
            <mxRectangle width="30" height="30" as="alternateBounds" />
          </mxGeometry>
        </mxCell>
        <mxCell id="xc0DDMZrGfuiTKICy6-l-27" value="    title" style="shape=partialRectangle;overflow=hidden;connectable=0;fillColor=none;top=0;left=0;bottom=0;right=0;align=left;spacingLeft=6;" parent="xc0DDMZrGfuiTKICy6-l-25" vertex="1">
          <mxGeometry x="30" width="135" height="30" as="geometry">
            <mxRectangle width="135" height="30" as="alternateBounds" />
          </mxGeometry>
        </mxCell>
        <mxCell id="xc0DDMZrGfuiTKICy6-l-28" value="" style="shape=partialRectangle;collapsible=0;dropTarget=0;pointerEvents=0;fillColor=none;points=[[0,0.5],[1,0.5]];portConstraint=eastwest;top=0;left=0;right=0;bottom=0;" parent="xc0DDMZrGfuiTKICy6-l-12" vertex="1">
          <mxGeometry y="180" width="165" height="30" as="geometry" />
        </mxCell>
        <mxCell id="xc0DDMZrGfuiTKICy6-l-29" value="" style="shape=partialRectangle;overflow=hidden;connectable=0;fillColor=none;top=0;left=0;bottom=0;right=0;" parent="xc0DDMZrGfuiTKICy6-l-28" vertex="1">
          <mxGeometry width="30" height="30" as="geometry">
            <mxRectangle width="30" height="30" as="alternateBounds" />
          </mxGeometry>
        </mxCell>
        <mxCell id="xc0DDMZrGfuiTKICy6-l-30" value="phoneNum" style="shape=partialRectangle;overflow=hidden;connectable=0;fillColor=none;top=0;left=0;bottom=0;right=0;align=left;spacingLeft=6;" parent="xc0DDMZrGfuiTKICy6-l-28" vertex="1">
          <mxGeometry x="30" width="135" height="30" as="geometry">
            <mxRectangle width="135" height="30" as="alternateBounds" />
          </mxGeometry>
        </mxCell>
        <mxCell id="xc0DDMZrGfuiTKICy6-l-31" value="" style="shape=partialRectangle;collapsible=0;dropTarget=0;pointerEvents=0;fillColor=none;points=[[0,0.5],[1,0.5]];portConstraint=eastwest;top=0;left=0;right=0;bottom=0;" parent="xc0DDMZrGfuiTKICy6-l-12" vertex="1">
          <mxGeometry y="210" width="165" height="30" as="geometry" />
        </mxCell>
        <mxCell id="xc0DDMZrGfuiTKICy6-l-32" value="" style="shape=partialRectangle;overflow=hidden;connectable=0;fillColor=none;top=0;left=0;bottom=0;right=0;" parent="xc0DDMZrGfuiTKICy6-l-31" vertex="1">
          <mxGeometry width="30" height="30" as="geometry">
            <mxRectangle width="30" height="30" as="alternateBounds" />
          </mxGeometry>
        </mxCell>
        <mxCell id="xc0DDMZrGfuiTKICy6-l-33" value="qualification (1..3)" style="shape=partialRectangle;overflow=hidden;connectable=0;fillColor=none;top=0;left=0;bottom=0;right=0;align=left;spacingLeft=6;" parent="xc0DDMZrGfuiTKICy6-l-31" vertex="1">
          <mxGeometry x="30" width="135" height="30" as="geometry">
            <mxRectangle width="135" height="30" as="alternateBounds" />
          </mxGeometry>
        </mxCell>
        <mxCell id="xc0DDMZrGfuiTKICy6-l-34" value="Client" style="shape=table;startSize=30;container=1;collapsible=1;childLayout=tableLayout;fixedRows=1;rowLines=0;fontStyle=1;align=center;resizeLast=1;html=1;" parent="1" vertex="1">
          <mxGeometry x="120" y="162" width="165" height="270" as="geometry" />
        </mxCell>
        <mxCell id="xc0DDMZrGfuiTKICy6-l-35" value="" style="shape=tableRow;horizontal=0;startSize=0;swimlaneHead=0;swimlaneBody=0;fillColor=none;collapsible=0;dropTarget=0;points=[[0,0.5],[1,0.5]];portConstraint=eastwest;top=0;left=0;right=0;bottom=1;" parent="xc0DDMZrGfuiTKICy6-l-34" vertex="1">
          <mxGeometry y="30" width="165" height="30" as="geometry" />
        </mxCell>
        <mxCell id="xc0DDMZrGfuiTKICy6-l-36" value="PK" style="shape=partialRectangle;connectable=0;fillColor=none;top=0;left=0;bottom=0;right=0;fontStyle=1;overflow=hidden;whiteSpace=wrap;html=1;" parent="xc0DDMZrGfuiTKICy6-l-35" vertex="1">
          <mxGeometry width="30" height="30" as="geometry">
            <mxRectangle width="30" height="30" as="alternateBounds" />
          </mxGeometry>
        </mxCell>
        <mxCell id="xc0DDMZrGfuiTKICy6-l-37" value="&lt;span style=&quot;font-size: 11pt; line-height: 15.6933px; font-family: Aptos, sans-serif;&quot; lang=&quot;EN-AU&quot;&gt;clientNo&lt;/span&gt;&lt;span style=&quot;font-size: medium; font-weight: 400;&quot;&gt;&lt;/span&gt;" style="shape=partialRectangle;connectable=0;fillColor=none;top=0;left=0;bottom=0;right=0;align=left;spacingLeft=6;fontStyle=5;overflow=hidden;whiteSpace=wrap;html=1;" parent="xc0DDMZrGfuiTKICy6-l-35" vertex="1">
          <mxGeometry x="30" width="135" height="30" as="geometry">
            <mxRectangle width="135" height="30" as="alternateBounds" />
          </mxGeometry>
        </mxCell>
        <mxCell id="xc0DDMZrGfuiTKICy6-l-38" value="" style="shape=tableRow;horizontal=0;startSize=0;swimlaneHead=0;swimlaneBody=0;fillColor=none;collapsible=0;dropTarget=0;points=[[0,0.5],[1,0.5]];portConstraint=eastwest;top=0;left=0;right=0;bottom=0;" parent="xc0DDMZrGfuiTKICy6-l-34" vertex="1">
          <mxGeometry y="60" width="165" height="30" as="geometry" />
        </mxCell>
        <mxCell id="xc0DDMZrGfuiTKICy6-l-39" value="" style="shape=partialRectangle;connectable=0;fillColor=none;top=0;left=0;bottom=0;right=0;editable=1;overflow=hidden;whiteSpace=wrap;html=1;" parent="xc0DDMZrGfuiTKICy6-l-38" vertex="1">
          <mxGeometry width="30" height="30" as="geometry">
            <mxRectangle width="30" height="30" as="alternateBounds" />
          </mxGeometry>
        </mxCell>
        <mxCell id="xc0DDMZrGfuiTKICy6-l-40" value="name" style="shape=partialRectangle;connectable=0;fillColor=none;top=0;left=0;bottom=0;right=0;align=left;spacingLeft=6;overflow=hidden;whiteSpace=wrap;html=1;" parent="xc0DDMZrGfuiTKICy6-l-38" vertex="1">
          <mxGeometry x="30" width="135" height="30" as="geometry">
            <mxRectangle width="135" height="30" as="alternateBounds" />
          </mxGeometry>
        </mxCell>
        <mxCell id="xc0DDMZrGfuiTKICy6-l-41" value="" style="shape=tableRow;horizontal=0;startSize=0;swimlaneHead=0;swimlaneBody=0;fillColor=none;collapsible=0;dropTarget=0;points=[[0,0.5],[1,0.5]];portConstraint=eastwest;top=0;left=0;right=0;bottom=0;" parent="xc0DDMZrGfuiTKICy6-l-34" vertex="1">
          <mxGeometry y="90" width="165" height="30" as="geometry" />
        </mxCell>
        <mxCell id="xc0DDMZrGfuiTKICy6-l-42" value="" style="shape=partialRectangle;connectable=0;fillColor=none;top=0;left=0;bottom=0;right=0;editable=1;overflow=hidden;whiteSpace=wrap;html=1;" parent="xc0DDMZrGfuiTKICy6-l-41" vertex="1">
          <mxGeometry width="30" height="30" as="geometry">
            <mxRectangle width="30" height="30" as="alternateBounds" />
          </mxGeometry>
        </mxCell>
        <mxCell id="xc0DDMZrGfuiTKICy6-l-43" value="&lt;span style=&quot;white-space: pre;&quot;&gt;&#x9;&lt;/span&gt;fname" style="shape=partialRectangle;connectable=0;fillColor=none;top=0;left=0;bottom=0;right=0;align=left;spacingLeft=6;overflow=hidden;whiteSpace=wrap;html=1;" parent="xc0DDMZrGfuiTKICy6-l-41" vertex="1">
          <mxGeometry x="30" width="135" height="30" as="geometry">
            <mxRectangle width="135" height="30" as="alternateBounds" />
          </mxGeometry>
        </mxCell>
        <mxCell id="xc0DDMZrGfuiTKICy6-l-44" value="" style="shape=tableRow;horizontal=0;startSize=0;swimlaneHead=0;swimlaneBody=0;fillColor=none;collapsible=0;dropTarget=0;points=[[0,0.5],[1,0.5]];portConstraint=eastwest;top=0;left=0;right=0;bottom=0;" parent="xc0DDMZrGfuiTKICy6-l-34" vertex="1">
          <mxGeometry y="120" width="165" height="30" as="geometry" />
        </mxCell>
        <mxCell id="xc0DDMZrGfuiTKICy6-l-45" value="" style="shape=partialRectangle;connectable=0;fillColor=none;top=0;left=0;bottom=0;right=0;editable=1;overflow=hidden;whiteSpace=wrap;html=1;" parent="xc0DDMZrGfuiTKICy6-l-44" vertex="1">
          <mxGeometry width="30" height="30" as="geometry">
            <mxRectangle width="30" height="30" as="alternateBounds" />
          </mxGeometry>
        </mxCell>
        <mxCell id="xc0DDMZrGfuiTKICy6-l-46" value="&lt;span style=&quot;white-space: pre;&quot;&gt;&#x9;&lt;/span&gt;lName" style="shape=partialRectangle;connectable=0;fillColor=none;top=0;left=0;bottom=0;right=0;align=left;spacingLeft=6;overflow=hidden;whiteSpace=wrap;html=1;" parent="xc0DDMZrGfuiTKICy6-l-44" vertex="1">
          <mxGeometry x="30" width="135" height="30" as="geometry">
            <mxRectangle width="135" height="30" as="alternateBounds" />
          </mxGeometry>
        </mxCell>
        <mxCell id="xc0DDMZrGfuiTKICy6-l-47" value="" style="shape=tableRow;horizontal=0;startSize=0;swimlaneHead=0;swimlaneBody=0;fillColor=none;collapsible=0;dropTarget=0;points=[[0,0.5],[1,0.5]];portConstraint=eastwest;top=0;left=0;right=0;bottom=0;" parent="xc0DDMZrGfuiTKICy6-l-34" vertex="1">
          <mxGeometry y="150" width="165" height="30" as="geometry" />
        </mxCell>
        <mxCell id="xc0DDMZrGfuiTKICy6-l-48" value="" style="shape=partialRectangle;connectable=0;fillColor=none;top=0;left=0;bottom=0;right=0;editable=1;overflow=hidden;whiteSpace=wrap;html=1;" parent="xc0DDMZrGfuiTKICy6-l-47" vertex="1">
          <mxGeometry width="30" height="30" as="geometry">
            <mxRectangle width="30" height="30" as="alternateBounds" />
          </mxGeometry>
        </mxCell>
        <mxCell id="xc0DDMZrGfuiTKICy6-l-49" value="adress" style="shape=partialRectangle;connectable=0;fillColor=none;top=0;left=0;bottom=0;right=0;align=left;spacingLeft=6;overflow=hidden;whiteSpace=wrap;html=1;" parent="xc0DDMZrGfuiTKICy6-l-47" vertex="1">
          <mxGeometry x="30" width="135" height="30" as="geometry">
            <mxRectangle width="135" height="30" as="alternateBounds" />
          </mxGeometry>
        </mxCell>
        <mxCell id="xc0DDMZrGfuiTKICy6-l-50" value="" style="shape=tableRow;horizontal=0;startSize=0;swimlaneHead=0;swimlaneBody=0;fillColor=none;collapsible=0;dropTarget=0;points=[[0,0.5],[1,0.5]];portConstraint=eastwest;top=0;left=0;right=0;bottom=0;" parent="xc0DDMZrGfuiTKICy6-l-34" vertex="1">
          <mxGeometry y="180" width="165" height="30" as="geometry" />
        </mxCell>
        <mxCell id="xc0DDMZrGfuiTKICy6-l-51" value="" style="shape=partialRectangle;connectable=0;fillColor=none;top=0;left=0;bottom=0;right=0;editable=1;overflow=hidden;whiteSpace=wrap;html=1;" parent="xc0DDMZrGfuiTKICy6-l-50" vertex="1">
          <mxGeometry width="30" height="30" as="geometry">
            <mxRectangle width="30" height="30" as="alternateBounds" />
          </mxGeometry>
        </mxCell>
        <mxCell id="xc0DDMZrGfuiTKICy6-l-52" value="&lt;blockquote style=&quot;margin: 0 0 0 40px; border: none; padding: 0px;&quot;&gt;street&lt;/blockquote&gt;" style="shape=partialRectangle;connectable=0;fillColor=none;top=0;left=0;bottom=0;right=0;align=left;spacingLeft=6;overflow=hidden;whiteSpace=wrap;html=1;" parent="xc0DDMZrGfuiTKICy6-l-50" vertex="1">
          <mxGeometry x="30" width="135" height="30" as="geometry">
            <mxRectangle width="135" height="30" as="alternateBounds" />
          </mxGeometry>
        </mxCell>
        <mxCell id="xc0DDMZrGfuiTKICy6-l-53" value="" style="shape=tableRow;horizontal=0;startSize=0;swimlaneHead=0;swimlaneBody=0;fillColor=none;collapsible=0;dropTarget=0;points=[[0,0.5],[1,0.5]];portConstraint=eastwest;top=0;left=0;right=0;bottom=0;" parent="xc0DDMZrGfuiTKICy6-l-34" vertex="1">
          <mxGeometry y="210" width="165" height="30" as="geometry" />
        </mxCell>
        <mxCell id="xc0DDMZrGfuiTKICy6-l-54" value="" style="shape=partialRectangle;connectable=0;fillColor=none;top=0;left=0;bottom=0;right=0;editable=1;overflow=hidden;whiteSpace=wrap;html=1;" parent="xc0DDMZrGfuiTKICy6-l-53" vertex="1">
          <mxGeometry width="30" height="30" as="geometry">
            <mxRectangle width="30" height="30" as="alternateBounds" />
          </mxGeometry>
        </mxCell>
        <mxCell id="xc0DDMZrGfuiTKICy6-l-55" value="&lt;blockquote style=&quot;margin: 0 0 0 40px; border: none; padding: 0px;&quot;&gt;postCode&lt;/blockquote&gt;" style="shape=partialRectangle;connectable=0;fillColor=none;top=0;left=0;bottom=0;right=0;align=left;spacingLeft=6;overflow=hidden;whiteSpace=wrap;html=1;" parent="xc0DDMZrGfuiTKICy6-l-53" vertex="1">
          <mxGeometry x="30" width="135" height="30" as="geometry">
            <mxRectangle width="135" height="30" as="alternateBounds" />
          </mxGeometry>
        </mxCell>
        <mxCell id="xc0DDMZrGfuiTKICy6-l-56" value="" style="shape=tableRow;horizontal=0;startSize=0;swimlaneHead=0;swimlaneBody=0;fillColor=none;collapsible=0;dropTarget=0;points=[[0,0.5],[1,0.5]];portConstraint=eastwest;top=0;left=0;right=0;bottom=0;" parent="xc0DDMZrGfuiTKICy6-l-34" vertex="1">
          <mxGeometry y="240" width="165" height="30" as="geometry" />
        </mxCell>
        <mxCell id="xc0DDMZrGfuiTKICy6-l-57" value="" style="shape=partialRectangle;connectable=0;fillColor=none;top=0;left=0;bottom=0;right=0;editable=1;overflow=hidden;whiteSpace=wrap;html=1;" parent="xc0DDMZrGfuiTKICy6-l-56" vertex="1">
          <mxGeometry width="30" height="30" as="geometry">
            <mxRectangle width="30" height="30" as="alternateBounds" />
          </mxGeometry>
        </mxCell>
        <mxCell id="xc0DDMZrGfuiTKICy6-l-58" value="phoneNum (1..3 )" style="shape=partialRectangle;connectable=0;fillColor=none;top=0;left=0;bottom=0;right=0;align=left;spacingLeft=6;overflow=hidden;whiteSpace=wrap;html=1;" parent="xc0DDMZrGfuiTKICy6-l-56" vertex="1">
          <mxGeometry x="30" width="135" height="30" as="geometry">
            <mxRectangle width="135" height="30" as="alternateBounds" />
          </mxGeometry>
        </mxCell>
        <mxCell id="xc0DDMZrGfuiTKICy6-l-59" value="Bill" style="shape=table;startSize=30;container=1;collapsible=1;childLayout=tableLayout;fixedRows=1;rowLines=0;fontStyle=1;align=center;resizeLast=1;html=1;" parent="1" vertex="1">
          <mxGeometry x="417" y="669" width="165" height="120" as="geometry" />
        </mxCell>
        <mxCell id="xc0DDMZrGfuiTKICy6-l-60" value="" style="shape=tableRow;horizontal=0;startSize=0;swimlaneHead=0;swimlaneBody=0;fillColor=none;collapsible=0;dropTarget=0;points=[[0,0.5],[1,0.5]];portConstraint=eastwest;top=0;left=0;right=0;bottom=1;" parent="xc0DDMZrGfuiTKICy6-l-59" vertex="1">
          <mxGeometry y="30" width="165" height="30" as="geometry" />
        </mxCell>
        <mxCell id="xc0DDMZrGfuiTKICy6-l-61" value="PK" style="shape=partialRectangle;connectable=0;fillColor=none;top=0;left=0;bottom=0;right=0;fontStyle=1;overflow=hidden;whiteSpace=wrap;html=1;" parent="xc0DDMZrGfuiTKICy6-l-60" vertex="1">
          <mxGeometry width="30" height="30" as="geometry">
            <mxRectangle width="30" height="30" as="alternateBounds" />
          </mxGeometry>
        </mxCell>
        <mxCell id="xc0DDMZrGfuiTKICy6-l-62" value="&lt;span style=&quot;font-size: 11pt; line-height: 15.6933px; font-family: Aptos, sans-serif;&quot; lang=&quot;EN-AU&quot;&gt;billNo&lt;/span&gt;&lt;span style=&quot;font-size: medium; font-weight: 400;&quot;&gt;&lt;/span&gt;" style="shape=partialRectangle;connectable=0;fillColor=none;top=0;left=0;bottom=0;right=0;align=left;spacingLeft=6;fontStyle=5;overflow=hidden;whiteSpace=wrap;html=1;" parent="xc0DDMZrGfuiTKICy6-l-60" vertex="1">
          <mxGeometry x="30" width="135" height="30" as="geometry">
            <mxRectangle width="135" height="30" as="alternateBounds" />
          </mxGeometry>
        </mxCell>
        <mxCell id="xc0DDMZrGfuiTKICy6-l-63" value="" style="shape=tableRow;horizontal=0;startSize=0;swimlaneHead=0;swimlaneBody=0;fillColor=none;collapsible=0;dropTarget=0;points=[[0,0.5],[1,0.5]];portConstraint=eastwest;top=0;left=0;right=0;bottom=0;" parent="xc0DDMZrGfuiTKICy6-l-59" vertex="1">
          <mxGeometry y="60" width="165" height="30" as="geometry" />
        </mxCell>
        <mxCell id="xc0DDMZrGfuiTKICy6-l-64" value="" style="shape=partialRectangle;connectable=0;fillColor=none;top=0;left=0;bottom=0;right=0;editable=1;overflow=hidden;whiteSpace=wrap;html=1;" parent="xc0DDMZrGfuiTKICy6-l-63" vertex="1">
          <mxGeometry width="30" height="30" as="geometry">
            <mxRectangle width="30" height="30" as="alternateBounds" />
          </mxGeometry>
        </mxCell>
        <mxCell id="xc0DDMZrGfuiTKICy6-l-65" value="&lt;span style=&quot;font-family: Aptos, sans-serif; font-size: 14.6667px;&quot;&gt;amount&lt;/span&gt;" style="shape=partialRectangle;connectable=0;fillColor=none;top=0;left=0;bottom=0;right=0;align=left;spacingLeft=6;overflow=hidden;whiteSpace=wrap;html=1;" parent="xc0DDMZrGfuiTKICy6-l-63" vertex="1">
          <mxGeometry x="30" width="135" height="30" as="geometry">
            <mxRectangle width="135" height="30" as="alternateBounds" />
          </mxGeometry>
        </mxCell>
        <mxCell id="xc0DDMZrGfuiTKICy6-l-66" value="" style="shape=tableRow;horizontal=0;startSize=0;swimlaneHead=0;swimlaneBody=0;fillColor=none;collapsible=0;dropTarget=0;points=[[0,0.5],[1,0.5]];portConstraint=eastwest;top=0;left=0;right=0;bottom=0;" parent="xc0DDMZrGfuiTKICy6-l-59" vertex="1">
          <mxGeometry y="90" width="165" height="30" as="geometry" />
        </mxCell>
        <mxCell id="xc0DDMZrGfuiTKICy6-l-67" value="" style="shape=partialRectangle;connectable=0;fillColor=none;top=0;left=0;bottom=0;right=0;editable=1;overflow=hidden;whiteSpace=wrap;html=1;" parent="xc0DDMZrGfuiTKICy6-l-66" vertex="1">
          <mxGeometry width="30" height="30" as="geometry">
            <mxRectangle width="30" height="30" as="alternateBounds" />
          </mxGeometry>
        </mxCell>
        <mxCell id="xc0DDMZrGfuiTKICy6-l-68" value="&lt;span style=&quot;font-family: Aptos, sans-serif; font-size: 14.6667px;&quot;&gt;payTime&lt;/span&gt;" style="shape=partialRectangle;connectable=0;fillColor=none;top=0;left=0;bottom=0;right=0;align=left;spacingLeft=6;overflow=hidden;whiteSpace=wrap;html=1;" parent="xc0DDMZrGfuiTKICy6-l-66" vertex="1">
          <mxGeometry x="30" width="135" height="30" as="geometry">
            <mxRectangle width="135" height="30" as="alternateBounds" />
          </mxGeometry>
        </mxCell>
        <mxCell id="xc0DDMZrGfuiTKICy6-l-69" value="Service" style="shape=table;startSize=30;container=1;collapsible=1;childLayout=tableLayout;fixedRows=1;rowLines=0;fontStyle=1;align=center;resizeLast=1;html=1;" parent="1" vertex="1">
          <mxGeometry x="872" y="39" width="165" height="120" as="geometry" />
        </mxCell>
        <mxCell id="xc0DDMZrGfuiTKICy6-l-70" value="" style="shape=tableRow;horizontal=0;startSize=0;swimlaneHead=0;swimlaneBody=0;fillColor=none;collapsible=0;dropTarget=0;points=[[0,0.5],[1,0.5]];portConstraint=eastwest;top=0;left=0;right=0;bottom=1;" parent="xc0DDMZrGfuiTKICy6-l-69" vertex="1">
          <mxGeometry y="30" width="165" height="30" as="geometry" />
        </mxCell>
        <mxCell id="xc0DDMZrGfuiTKICy6-l-71" value="PK" style="shape=partialRectangle;connectable=0;fillColor=none;top=0;left=0;bottom=0;right=0;fontStyle=1;overflow=hidden;whiteSpace=wrap;html=1;" parent="xc0DDMZrGfuiTKICy6-l-70" vertex="1">
          <mxGeometry width="30" height="30" as="geometry">
            <mxRectangle width="30" height="30" as="alternateBounds" />
          </mxGeometry>
        </mxCell>
        <mxCell id="xc0DDMZrGfuiTKICy6-l-72" value="&lt;span style=&quot;font-size: 11pt; line-height: 15.6933px; font-family: Aptos, sans-serif;&quot; lang=&quot;EN-AU&quot;&gt;prescribedCode&lt;/span&gt;&lt;span style=&quot;font-size: medium; font-weight: 400;&quot;&gt;&lt;/span&gt;" style="shape=partialRectangle;connectable=0;fillColor=none;top=0;left=0;bottom=0;right=0;align=left;spacingLeft=6;fontStyle=5;overflow=hidden;whiteSpace=wrap;html=1;" parent="xc0DDMZrGfuiTKICy6-l-70" vertex="1">
          <mxGeometry x="30" width="135" height="30" as="geometry">
            <mxRectangle width="135" height="30" as="alternateBounds" />
          </mxGeometry>
        </mxCell>
        <mxCell id="xc0DDMZrGfuiTKICy6-l-73" value="" style="shape=tableRow;horizontal=0;startSize=0;swimlaneHead=0;swimlaneBody=0;fillColor=none;collapsible=0;dropTarget=0;points=[[0,0.5],[1,0.5]];portConstraint=eastwest;top=0;left=0;right=0;bottom=0;" parent="xc0DDMZrGfuiTKICy6-l-69" vertex="1">
          <mxGeometry y="60" width="165" height="30" as="geometry" />
        </mxCell>
        <mxCell id="xc0DDMZrGfuiTKICy6-l-74" value="" style="shape=partialRectangle;connectable=0;fillColor=none;top=0;left=0;bottom=0;right=0;editable=1;overflow=hidden;whiteSpace=wrap;html=1;" parent="xc0DDMZrGfuiTKICy6-l-73" vertex="1">
          <mxGeometry width="30" height="30" as="geometry">
            <mxRectangle width="30" height="30" as="alternateBounds" />
          </mxGeometry>
        </mxCell>
        <mxCell id="xc0DDMZrGfuiTKICy6-l-75" value="&lt;span style=&quot;font-family: Aptos, sans-serif; font-size: 14.6667px;&quot;&gt;description&lt;/span&gt;" style="shape=partialRectangle;connectable=0;fillColor=none;top=0;left=0;bottom=0;right=0;align=left;spacingLeft=6;overflow=hidden;whiteSpace=wrap;html=1;" parent="xc0DDMZrGfuiTKICy6-l-73" vertex="1">
          <mxGeometry x="30" width="135" height="30" as="geometry">
            <mxRectangle width="135" height="30" as="alternateBounds" />
          </mxGeometry>
        </mxCell>
        <mxCell id="xc0DDMZrGfuiTKICy6-l-76" value="" style="shape=tableRow;horizontal=0;startSize=0;swimlaneHead=0;swimlaneBody=0;fillColor=none;collapsible=0;dropTarget=0;points=[[0,0.5],[1,0.5]];portConstraint=eastwest;top=0;left=0;right=0;bottom=0;" parent="xc0DDMZrGfuiTKICy6-l-69" vertex="1">
          <mxGeometry y="90" width="165" height="30" as="geometry" />
        </mxCell>
        <mxCell id="xc0DDMZrGfuiTKICy6-l-77" value="" style="shape=partialRectangle;connectable=0;fillColor=none;top=0;left=0;bottom=0;right=0;editable=1;overflow=hidden;whiteSpace=wrap;html=1;" parent="xc0DDMZrGfuiTKICy6-l-76" vertex="1">
          <mxGeometry width="30" height="30" as="geometry">
            <mxRectangle width="30" height="30" as="alternateBounds" />
          </mxGeometry>
        </mxCell>
        <mxCell id="xc0DDMZrGfuiTKICy6-l-78" value="&lt;span style=&quot;font-family: Aptos, sans-serif; font-size: 14.6667px;&quot;&gt;serviceFee&lt;/span&gt;" style="shape=partialRectangle;connectable=0;fillColor=none;top=0;left=0;bottom=0;right=0;align=left;spacingLeft=6;overflow=hidden;whiteSpace=wrap;html=1;" parent="xc0DDMZrGfuiTKICy6-l-76" vertex="1">
          <mxGeometry x="30" width="135" height="30" as="geometry">
            <mxRectangle width="135" height="30" as="alternateBounds" />
          </mxGeometry>
        </mxCell>
        <mxCell id="xc0DDMZrGfuiTKICy6-l-79" style="edgeStyle=orthogonalEdgeStyle;rounded=0;orthogonalLoop=1;jettySize=auto;html=1;exitX=0.5;exitY=0;exitDx=0;exitDy=0;entryX=1;entryY=0.5;entryDx=0;entryDy=0;endArrow=none;endFill=0;" parent="1" source="xc0DDMZrGfuiTKICy6-l-81" target="xc0DDMZrGfuiTKICy6-l-70" edge="1">
          <mxGeometry relative="1" as="geometry" />
        </mxCell>
        <mxCell id="xc0DDMZrGfuiTKICy6-l-80" style="edgeStyle=orthogonalEdgeStyle;rounded=0;orthogonalLoop=1;jettySize=auto;html=1;entryX=1;entryY=0.5;entryDx=0;entryDy=0;endArrow=none;endFill=0;exitX=0.522;exitY=1.029;exitDx=0;exitDy=0;exitPerimeter=0;" parent="1" source="xc0DDMZrGfuiTKICy6-l-97" target="xc0DDMZrGfuiTKICy6-l-63" edge="1">
          <mxGeometry relative="1" as="geometry" />
        </mxCell>
        <mxCell id="xc0DDMZrGfuiTKICy6-l-81" value="Invoices" style="shape=table;startSize=30;container=1;collapsible=1;childLayout=tableLayout;fixedRows=1;rowLines=0;fontStyle=1;align=center;resizeLast=1;html=1;" parent="1" vertex="1">
          <mxGeometry x="983.25" y="451" width="165" height="210" as="geometry" />
        </mxCell>
        <mxCell id="xc0DDMZrGfuiTKICy6-l-82" value="" style="shape=tableRow;horizontal=0;startSize=0;swimlaneHead=0;swimlaneBody=0;fillColor=none;collapsible=0;dropTarget=0;points=[[0,0.5],[1,0.5]];portConstraint=eastwest;top=0;left=0;right=0;bottom=1;" parent="xc0DDMZrGfuiTKICy6-l-81" vertex="1">
          <mxGeometry y="30" width="165" height="30" as="geometry" />
        </mxCell>
        <mxCell id="xc0DDMZrGfuiTKICy6-l-83" value="PK" style="shape=partialRectangle;connectable=0;fillColor=none;top=0;left=0;bottom=0;right=0;fontStyle=1;overflow=hidden;whiteSpace=wrap;html=1;" parent="xc0DDMZrGfuiTKICy6-l-82" vertex="1">
          <mxGeometry width="30" height="30" as="geometry">
            <mxRectangle width="30" height="30" as="alternateBounds" />
          </mxGeometry>
        </mxCell>
        <mxCell id="xc0DDMZrGfuiTKICy6-l-84" value="&lt;span style=&quot;font-size: 11pt; line-height: 15.6933px; font-family: Aptos, sans-serif;&quot; lang=&quot;EN-AU&quot;&gt;invoiceNo&lt;/span&gt;&lt;span style=&quot;font-size: medium; font-weight: 400;&quot;&gt;&lt;/span&gt;" style="shape=partialRectangle;connectable=0;fillColor=none;top=0;left=0;bottom=0;right=0;align=left;spacingLeft=6;fontStyle=5;overflow=hidden;whiteSpace=wrap;html=1;" parent="xc0DDMZrGfuiTKICy6-l-82" vertex="1">
          <mxGeometry x="30" width="135" height="30" as="geometry">
            <mxRectangle width="135" height="30" as="alternateBounds" />
          </mxGeometry>
        </mxCell>
        <mxCell id="xc0DDMZrGfuiTKICy6-l-85" value="" style="shape=tableRow;horizontal=0;startSize=0;swimlaneHead=0;swimlaneBody=0;fillColor=none;collapsible=0;dropTarget=0;points=[[0,0.5],[1,0.5]];portConstraint=eastwest;top=0;left=0;right=0;bottom=0;" parent="xc0DDMZrGfuiTKICy6-l-81" vertex="1">
          <mxGeometry y="60" width="165" height="30" as="geometry" />
        </mxCell>
        <mxCell id="xc0DDMZrGfuiTKICy6-l-86" value="" style="shape=partialRectangle;connectable=0;fillColor=none;top=0;left=0;bottom=0;right=0;editable=1;overflow=hidden;whiteSpace=wrap;html=1;" parent="xc0DDMZrGfuiTKICy6-l-85" vertex="1">
          <mxGeometry width="30" height="30" as="geometry">
            <mxRectangle width="30" height="30" as="alternateBounds" />
          </mxGeometry>
        </mxCell>
        <mxCell id="xc0DDMZrGfuiTKICy6-l-87" value="&lt;span style=&quot;font-size: 11pt; line-height: 15.6933px; font-family: Aptos, sans-serif;&quot; lang=&quot;EN-AU&quot;&gt;createDate&lt;/span&gt;&lt;span style=&quot;font-size: medium;&quot;&gt;&lt;/span&gt;&lt;br&gt;&lt;span style=&quot;font-size: medium;&quot;&gt;&lt;/span&gt;" style="shape=partialRectangle;connectable=0;fillColor=none;top=0;left=0;bottom=0;right=0;align=left;spacingLeft=6;overflow=hidden;whiteSpace=wrap;html=1;" parent="xc0DDMZrGfuiTKICy6-l-85" vertex="1">
          <mxGeometry x="30" width="135" height="30" as="geometry">
            <mxRectangle width="135" height="30" as="alternateBounds" />
          </mxGeometry>
        </mxCell>
        <mxCell id="xc0DDMZrGfuiTKICy6-l-88" value="" style="shape=tableRow;horizontal=0;startSize=0;swimlaneHead=0;swimlaneBody=0;fillColor=none;collapsible=0;dropTarget=0;points=[[0,0.5],[1,0.5]];portConstraint=eastwest;top=0;left=0;right=0;bottom=0;" parent="xc0DDMZrGfuiTKICy6-l-81" vertex="1">
          <mxGeometry y="90" width="165" height="30" as="geometry" />
        </mxCell>
        <mxCell id="xc0DDMZrGfuiTKICy6-l-89" value="" style="shape=partialRectangle;connectable=0;fillColor=none;top=0;left=0;bottom=0;right=0;editable=1;overflow=hidden;whiteSpace=wrap;html=1;" parent="xc0DDMZrGfuiTKICy6-l-88" vertex="1">
          <mxGeometry width="30" height="30" as="geometry">
            <mxRectangle width="30" height="30" as="alternateBounds" />
          </mxGeometry>
        </mxCell>
        <mxCell id="xc0DDMZrGfuiTKICy6-l-90" value="&lt;span style=&quot;font-size: 11pt; line-height: 15.6933px; font-family: Aptos, sans-serif;&quot; lang=&quot;EN-AU&quot;&gt;finalDate&lt;/span&gt;&lt;span style=&quot;font-size: medium;&quot;&gt;&lt;/span&gt;&lt;br&gt;&lt;span style=&quot;font-size: medium;&quot;&gt;&lt;/span&gt;" style="shape=partialRectangle;connectable=0;fillColor=none;top=0;left=0;bottom=0;right=0;align=left;spacingLeft=6;overflow=hidden;whiteSpace=wrap;html=1;" parent="xc0DDMZrGfuiTKICy6-l-88" vertex="1">
          <mxGeometry x="30" width="135" height="30" as="geometry">
            <mxRectangle width="135" height="30" as="alternateBounds" />
          </mxGeometry>
        </mxCell>
        <mxCell id="xc0DDMZrGfuiTKICy6-l-91" value="" style="shape=tableRow;horizontal=0;startSize=0;swimlaneHead=0;swimlaneBody=0;fillColor=none;collapsible=0;dropTarget=0;points=[[0,0.5],[1,0.5]];portConstraint=eastwest;top=0;left=0;right=0;bottom=0;" parent="xc0DDMZrGfuiTKICy6-l-81" vertex="1">
          <mxGeometry y="120" width="165" height="30" as="geometry" />
        </mxCell>
        <mxCell id="xc0DDMZrGfuiTKICy6-l-92" value="" style="shape=partialRectangle;connectable=0;fillColor=none;top=0;left=0;bottom=0;right=0;editable=1;overflow=hidden;whiteSpace=wrap;html=1;" parent="xc0DDMZrGfuiTKICy6-l-91" vertex="1">
          <mxGeometry width="30" height="30" as="geometry">
            <mxRectangle width="30" height="30" as="alternateBounds" />
          </mxGeometry>
        </mxCell>
        <mxCell id="xc0DDMZrGfuiTKICy6-l-93" value="&lt;span style=&quot;font-size: 11pt; line-height: 15.6933px; font-family: Aptos, sans-serif;&quot; lang=&quot;EN-AU&quot;&gt;clinicalComment&lt;/span&gt;&lt;span style=&quot;font-size: medium;&quot;&gt;&lt;/span&gt;&lt;br&gt;&lt;span style=&quot;font-size: medium;&quot;&gt;&lt;/span&gt;" style="shape=partialRectangle;connectable=0;fillColor=none;top=0;left=0;bottom=0;right=0;align=left;spacingLeft=6;overflow=hidden;whiteSpace=wrap;html=1;" parent="xc0DDMZrGfuiTKICy6-l-91" vertex="1">
          <mxGeometry x="30" width="135" height="30" as="geometry">
            <mxRectangle width="135" height="30" as="alternateBounds" />
          </mxGeometry>
        </mxCell>
        <mxCell id="xc0DDMZrGfuiTKICy6-l-94" value="" style="shape=tableRow;horizontal=0;startSize=0;swimlaneHead=0;swimlaneBody=0;fillColor=none;collapsible=0;dropTarget=0;points=[[0,0.5],[1,0.5]];portConstraint=eastwest;top=0;left=0;right=0;bottom=0;" parent="xc0DDMZrGfuiTKICy6-l-81" vertex="1">
          <mxGeometry y="150" width="165" height="30" as="geometry" />
        </mxCell>
        <mxCell id="xc0DDMZrGfuiTKICy6-l-95" value="" style="shape=partialRectangle;connectable=0;fillColor=none;top=0;left=0;bottom=0;right=0;editable=1;overflow=hidden;whiteSpace=wrap;html=1;" parent="xc0DDMZrGfuiTKICy6-l-94" vertex="1">
          <mxGeometry width="30" height="30" as="geometry">
            <mxRectangle width="30" height="30" as="alternateBounds" />
          </mxGeometry>
        </mxCell>
        <mxCell id="xc0DDMZrGfuiTKICy6-l-96" value="&lt;a style=&quot;font-size: medium;&quot; name=&quot;OLE_LINK62&quot;&gt;&lt;/a&gt;&lt;span style=&quot;font-size: 11pt; line-height: 15.6933px; font-family: Aptos, sans-serif;&quot; lang=&quot;EN-AU&quot;&gt;/totalFee&lt;/span&gt;&lt;span style=&quot;font-size: medium;&quot;&gt;&lt;/span&gt;&lt;br&gt;&lt;span style=&quot;font-size: medium;&quot;&gt;&lt;/span&gt;" style="shape=partialRectangle;connectable=0;fillColor=none;top=0;left=0;bottom=0;right=0;align=left;spacingLeft=6;overflow=hidden;whiteSpace=wrap;html=1;" parent="xc0DDMZrGfuiTKICy6-l-94" vertex="1">
          <mxGeometry x="30" width="135" height="30" as="geometry">
            <mxRectangle width="135" height="30" as="alternateBounds" />
          </mxGeometry>
        </mxCell>
        <mxCell id="xc0DDMZrGfuiTKICy6-l-97" value="" style="shape=tableRow;horizontal=0;startSize=0;swimlaneHead=0;swimlaneBody=0;fillColor=none;collapsible=0;dropTarget=0;points=[[0,0.5],[1,0.5]];portConstraint=eastwest;top=0;left=0;right=0;bottom=0;" parent="xc0DDMZrGfuiTKICy6-l-81" vertex="1">
          <mxGeometry y="180" width="165" height="30" as="geometry" />
        </mxCell>
        <mxCell id="xc0DDMZrGfuiTKICy6-l-98" value="" style="shape=partialRectangle;connectable=0;fillColor=none;top=0;left=0;bottom=0;right=0;editable=1;overflow=hidden;whiteSpace=wrap;html=1;" parent="xc0DDMZrGfuiTKICy6-l-97" vertex="1">
          <mxGeometry width="30" height="30" as="geometry">
            <mxRectangle width="30" height="30" as="alternateBounds" />
          </mxGeometry>
        </mxCell>
        <mxCell id="xc0DDMZrGfuiTKICy6-l-99" value="&lt;span style=&quot;font-size: 11pt; line-height: 15.6933px; font-family: Aptos, sans-serif;&quot; lang=&quot;EN-AU&quot;&gt;status&lt;/span&gt;&lt;span style=&quot;font-size: medium;&quot;&gt;&lt;/span&gt;&lt;br&gt;&lt;span style=&quot;font-size: medium;&quot;&gt;&lt;/span&gt;" style="shape=partialRectangle;connectable=0;fillColor=none;top=0;left=0;bottom=0;right=0;align=left;spacingLeft=6;overflow=hidden;whiteSpace=wrap;html=1;" parent="xc0DDMZrGfuiTKICy6-l-97" vertex="1">
          <mxGeometry x="30" width="135" height="30" as="geometry">
            <mxRectangle width="135" height="30" as="alternateBounds" />
          </mxGeometry>
        </mxCell>
        <mxCell id="xc0DDMZrGfuiTKICy6-l-100" style="edgeStyle=orthogonalEdgeStyle;rounded=0;orthogonalLoop=1;jettySize=auto;html=1;exitX=1;exitY=0.5;exitDx=0;exitDy=0;endArrow=none;endFill=0;entryX=0.5;entryY=0;entryDx=0;entryDy=0;" parent="1" source="xc0DDMZrGfuiTKICy6-l-25" target="xc0DDMZrGfuiTKICy6-l-1" edge="1">
          <mxGeometry relative="1" as="geometry">
            <mxPoint x="903" y="114" as="targetPoint" />
          </mxGeometry>
        </mxCell>
        <mxCell id="xc0DDMZrGfuiTKICy6-l-101" value="1..1" style="text;html=1;align=center;verticalAlign=middle;resizable=0;points=[];autosize=1;strokeColor=none;fillColor=none;" parent="1" vertex="1">
          <mxGeometry x="1069.5" y="421" width="40" height="30" as="geometry" />
        </mxCell>
        <mxCell id="xc0DDMZrGfuiTKICy6-l-102" style="edgeStyle=orthogonalEdgeStyle;rounded=0;orthogonalLoop=1;jettySize=auto;html=1;entryX=0;entryY=0.5;entryDx=0;entryDy=0;endArrow=none;endFill=0;exitX=0;exitY=0.5;exitDx=0;exitDy=0;" parent="1" source="xc0DDMZrGfuiTKICy6-l-107" target="xc0DDMZrGfuiTKICy6-l-41" edge="1">
          <mxGeometry relative="1" as="geometry">
            <mxPoint x="865.056" y="789.77" as="targetPoint" />
            <Array as="points">
              <mxPoint x="56" y="114" />
              <mxPoint x="56" y="264" />
              <mxPoint x="120" y="264" />
            </Array>
          </mxGeometry>
        </mxCell>
        <mxCell id="xc0DDMZrGfuiTKICy6-l-103" value="Clinic" style="shape=table;startSize=30;container=1;collapsible=1;childLayout=tableLayout;fixedRows=1;rowLines=0;fontStyle=1;align=center;resizeLast=1;html=1;" parent="1" vertex="1">
          <mxGeometry x="120" y="39" width="165" height="90" as="geometry" />
        </mxCell>
        <mxCell id="xc0DDMZrGfuiTKICy6-l-104" value="" style="shape=tableRow;horizontal=0;startSize=0;swimlaneHead=0;swimlaneBody=0;fillColor=none;collapsible=0;dropTarget=0;points=[[0,0.5],[1,0.5]];portConstraint=eastwest;top=0;left=0;right=0;bottom=1;" parent="xc0DDMZrGfuiTKICy6-l-103" vertex="1">
          <mxGeometry y="30" width="165" height="30" as="geometry" />
        </mxCell>
        <mxCell id="xc0DDMZrGfuiTKICy6-l-105" value="PK" style="shape=partialRectangle;connectable=0;fillColor=none;top=0;left=0;bottom=0;right=0;fontStyle=1;overflow=hidden;whiteSpace=wrap;html=1;" parent="xc0DDMZrGfuiTKICy6-l-104" vertex="1">
          <mxGeometry width="30" height="30" as="geometry">
            <mxRectangle width="30" height="30" as="alternateBounds" />
          </mxGeometry>
        </mxCell>
        <mxCell id="xc0DDMZrGfuiTKICy6-l-106" value="&lt;span style=&quot;font-size: 11pt; line-height: 15.6933px; font-family: Aptos, sans-serif;&quot; lang=&quot;EN-US&quot;&gt;clinicNo&lt;/span&gt;&lt;span style=&quot;font-size: medium; font-weight: 400;&quot;&gt;&lt;/span&gt;" style="shape=partialRectangle;connectable=0;fillColor=none;top=0;left=0;bottom=0;right=0;align=left;spacingLeft=6;fontStyle=5;overflow=hidden;whiteSpace=wrap;html=1;" parent="xc0DDMZrGfuiTKICy6-l-104" vertex="1">
          <mxGeometry x="30" width="135" height="30" as="geometry">
            <mxRectangle width="135" height="30" as="alternateBounds" />
          </mxGeometry>
        </mxCell>
        <mxCell id="xc0DDMZrGfuiTKICy6-l-107" value="" style="shape=tableRow;horizontal=0;startSize=0;swimlaneHead=0;swimlaneBody=0;fillColor=none;collapsible=0;dropTarget=0;points=[[0,0.5],[1,0.5]];portConstraint=eastwest;top=0;left=0;right=0;bottom=0;" parent="xc0DDMZrGfuiTKICy6-l-103" vertex="1">
          <mxGeometry y="60" width="165" height="30" as="geometry" />
        </mxCell>
        <mxCell id="xc0DDMZrGfuiTKICy6-l-108" value="" style="shape=partialRectangle;connectable=0;fillColor=none;top=0;left=0;bottom=0;right=0;editable=1;overflow=hidden;whiteSpace=wrap;html=1;" parent="xc0DDMZrGfuiTKICy6-l-107" vertex="1">
          <mxGeometry width="30" height="30" as="geometry">
            <mxRectangle width="30" height="30" as="alternateBounds" />
          </mxGeometry>
        </mxCell>
        <mxCell id="xc0DDMZrGfuiTKICy6-l-109" value="&lt;span style=&quot;font-size: 11pt; line-height: 15.6933px; font-family: Aptos, sans-serif;&quot; lang=&quot;EN-US&quot;&gt;clinicName&lt;/span&gt;&lt;span style=&quot;font-size: medium;&quot;&gt;&lt;/span&gt;" style="shape=partialRectangle;connectable=0;fillColor=none;top=0;left=0;bottom=0;right=0;align=left;spacingLeft=6;overflow=hidden;whiteSpace=wrap;html=1;" parent="xc0DDMZrGfuiTKICy6-l-107" vertex="1">
          <mxGeometry x="30" width="135" height="30" as="geometry">
            <mxRectangle width="135" height="30" as="alternateBounds" />
          </mxGeometry>
        </mxCell>
        <mxCell id="xc0DDMZrGfuiTKICy6-l-110" style="edgeStyle=orthogonalEdgeStyle;rounded=0;orthogonalLoop=1;jettySize=auto;html=1;entryX=0;entryY=0.5;entryDx=0;entryDy=0;exitX=1;exitY=0.5;exitDx=0;exitDy=0;endArrow=none;endFill=0;" parent="1" source="xc0DDMZrGfuiTKICy6-l-104" target="xc0DDMZrGfuiTKICy6-l-13" edge="1">
          <mxGeometry relative="1" as="geometry" />
        </mxCell>
        <mxCell id="xc0DDMZrGfuiTKICy6-l-111" value="1..1" style="text;html=1;align=center;verticalAlign=middle;resizable=0;points=[];autosize=1;strokeColor=none;fillColor=none;" parent="1" vertex="1">
          <mxGeometry x="943.25" y="560" width="40" height="30" as="geometry" />
        </mxCell>
        <mxCell id="xc0DDMZrGfuiTKICy6-l-112" value="1..*" style="text;html=1;align=center;verticalAlign=middle;resizable=0;points=[];autosize=1;strokeColor=none;fillColor=none;" parent="1" vertex="1">
          <mxGeometry x="712" y="84" width="40" height="30" as="geometry" />
        </mxCell>
        <mxCell id="xc0DDMZrGfuiTKICy6-l-113" value="1..*" style="text;html=1;align=center;verticalAlign=middle;resizable=0;points=[];autosize=1;strokeColor=none;fillColor=none;" parent="1" vertex="1">
          <mxGeometry x="507" y="50" width="40" height="30" as="geometry" />
        </mxCell>
        <mxCell id="xc0DDMZrGfuiTKICy6-l-114" value="1..1" style="text;html=1;align=center;verticalAlign=middle;resizable=0;points=[];autosize=1;strokeColor=none;fillColor=none;" parent="1" vertex="1">
          <mxGeometry x="285" y="50" width="40" height="30" as="geometry" />
        </mxCell>
        <mxCell id="xc0DDMZrGfuiTKICy6-l-115" value="1..*" style="text;html=1;align=center;verticalAlign=middle;resizable=0;points=[];autosize=1;strokeColor=none;fillColor=none;" parent="1" vertex="1">
          <mxGeometry x="556.5" y="590" width="40" height="30" as="geometry" />
        </mxCell>
        <mxCell id="xc0DDMZrGfuiTKICy6-l-116" value="0..*" style="text;html=1;align=center;verticalAlign=middle;resizable=0;points=[];autosize=1;strokeColor=none;fillColor=none;" parent="1" vertex="1">
          <mxGeometry x="377" y="714" width="40" height="30" as="geometry" />
        </mxCell>
        <mxCell id="xc0DDMZrGfuiTKICy6-l-117" value="1..5" style="text;html=1;align=center;verticalAlign=middle;resizable=0;points=[];autosize=1;strokeColor=none;fillColor=none;" parent="1" vertex="1">
          <mxGeometry x="1037" y="50" width="40" height="30" as="geometry" />
        </mxCell>
        <mxCell id="xc0DDMZrGfuiTKICy6-l-118" value="1..1" style="text;html=1;align=center;verticalAlign=middle;resizable=0;points=[];autosize=1;strokeColor=none;fillColor=none;" parent="1" vertex="1">
          <mxGeometry x="832" y="560" width="40" height="30" as="geometry" />
        </mxCell>
        <mxCell id="xc0DDMZrGfuiTKICy6-l-119" value="1..1" style="text;html=1;align=center;verticalAlign=middle;resizable=0;points=[];autosize=1;strokeColor=none;fillColor=none;" parent="1" vertex="1">
          <mxGeometry x="390" y="566.5" width="40" height="30" as="geometry" />
        </mxCell>
        <mxCell id="xc0DDMZrGfuiTKICy6-l-120" value="0..*" style="text;html=1;align=center;verticalAlign=middle;resizable=0;points=[];autosize=1;strokeColor=none;fillColor=none;" parent="1" vertex="1">
          <mxGeometry x="315" y="611" width="40" height="30" as="geometry" />
        </mxCell>
        <mxCell id="xc0DDMZrGfuiTKICy6-l-121" value="1..1" style="text;html=1;align=center;verticalAlign=middle;resizable=0;points=[];autosize=1;strokeColor=none;fillColor=none;" parent="1" vertex="1">
          <mxGeometry x="80" y="80" width="40" height="30" as="geometry" />
        </mxCell>
        <mxCell id="xc0DDMZrGfuiTKICy6-l-122" value="1..1" style="text;html=1;align=center;verticalAlign=middle;resizable=0;points=[];autosize=1;strokeColor=none;fillColor=none;" parent="1" vertex="1">
          <mxGeometry x="50" y="581" width="40" height="30" as="geometry" />
        </mxCell>
        <mxCell id="xc0DDMZrGfuiTKICy6-l-123" value="" style="group" parent="1" vertex="1" connectable="0">
          <mxGeometry x="377" y="50" width="51" height="30" as="geometry" />
        </mxCell>
        <mxCell id="xc0DDMZrGfuiTKICy6-l-124" value="" style="shape=image;html=1;verticalAlign=top;verticalLabelPosition=bottom;labelBackgroundColor=#ffffff;imageAspect=0;aspect=fixed;image=https://cdn4.iconfinder.com/data/icons/essential-app-2/16/play-music-triangle-media-128.png" parent="xc0DDMZrGfuiTKICy6-l-123" vertex="1">
          <mxGeometry x="40" y="9.5" width="10.5" height="10.5" as="geometry" />
        </mxCell>
        <mxCell id="xc0DDMZrGfuiTKICy6-l-125" value="hires" style="text;html=1;align=center;verticalAlign=middle;resizable=0;points=[];autosize=1;strokeColor=none;fillColor=none;" parent="xc0DDMZrGfuiTKICy6-l-123" vertex="1">
          <mxGeometry x="-5" width="50" height="30" as="geometry" />
        </mxCell>
        <mxCell id="xc0DDMZrGfuiTKICy6-l-126" value="" style="group;rotation=-180;" parent="1" vertex="1" connectable="0">
          <mxGeometry x="919" y="749" width="56" height="30" as="geometry" />
        </mxCell>
        <mxCell id="xc0DDMZrGfuiTKICy6-l-127" value="" style="shape=image;html=1;verticalAlign=top;verticalLabelPosition=bottom;labelBackgroundColor=#ffffff;imageAspect=0;aspect=fixed;image=https://cdn4.iconfinder.com/data/icons/essential-app-2/16/play-music-triangle-media-128.png;rotation=-180;" parent="xc0DDMZrGfuiTKICy6-l-126" vertex="1">
          <mxGeometry x="4" y="9" width="11" height="11" as="geometry" />
        </mxCell>
        <mxCell id="xc0DDMZrGfuiTKICy6-l-128" value="&lt;span style=&quot;font-size: 11px; background-color: rgb(255, 255, 255);&quot;&gt;sends&lt;/span&gt;" style="text;html=1;align=center;verticalAlign=middle;resizable=0;points=[];autosize=1;strokeColor=none;fillColor=none;" parent="xc0DDMZrGfuiTKICy6-l-126" vertex="1">
          <mxGeometry x="6" y="-1" width="50" height="30" as="geometry" />
        </mxCell>
        <mxCell id="xc0DDMZrGfuiTKICy6-l-129" value="" style="group" parent="1" vertex="1" connectable="0">
          <mxGeometry x="56" y="149" width="60" height="45" as="geometry" />
        </mxCell>
        <mxCell id="xc0DDMZrGfuiTKICy6-l-130" value="assigns" style="text;html=1;align=center;verticalAlign=middle;resizable=0;points=[];autosize=1;strokeColor=none;fillColor=none;" parent="xc0DDMZrGfuiTKICy6-l-129" vertex="1">
          <mxGeometry y="6" width="60" height="30" as="geometry" />
        </mxCell>
        <mxCell id="xc0DDMZrGfuiTKICy6-l-131" value="" style="shape=image;html=1;verticalAlign=top;verticalLabelPosition=bottom;labelBackgroundColor=#ffffff;imageAspect=0;aspect=fixed;image=https://cdn1.iconfinder.com/data/icons/ionicons-fill-vol-2/512/triangle-128.png;rotation=-180;" parent="xc0DDMZrGfuiTKICy6-l-129" vertex="1">
          <mxGeometry x="25" y="30" width="10" height="10" as="geometry" />
        </mxCell>
        <mxCell id="xc0DDMZrGfuiTKICy6-l-132" value="" style="group;rotation=-90;" parent="1" vertex="1" connectable="0">
          <mxGeometry x="1065" y="299" width="67.5" height="45" as="geometry" />
        </mxCell>
        <mxCell id="xc0DDMZrGfuiTKICy6-l-133" value="" style="shape=image;html=1;verticalAlign=top;verticalLabelPosition=bottom;labelBackgroundColor=#ffffff;imageAspect=0;aspect=fixed;image=https://cdn1.iconfinder.com/data/icons/ionicons-fill-vol-2/512/triangle-128.png;rotation=0;" parent="xc0DDMZrGfuiTKICy6-l-132" vertex="1">
          <mxGeometry x="22" y="-11" width="11" height="11" as="geometry" />
        </mxCell>
        <mxCell id="xc0DDMZrGfuiTKICy6-l-134" value="&lt;span style=&quot;font-size: 11px; background-color: rgb(255, 255, 255);&quot;&gt;identifies&lt;/span&gt;" style="text;html=1;align=center;verticalAlign=middle;resizable=0;points=[];autosize=1;strokeColor=none;fillColor=none;rotation=0;" parent="xc0DDMZrGfuiTKICy6-l-132" vertex="1">
          <mxGeometry x="-7.5" y="-11" width="70" height="30" as="geometry" />
        </mxCell>
        <mxCell id="xc0DDMZrGfuiTKICy6-l-135" value="" style="group;rotation=-180;" parent="1" vertex="1" connectable="0">
          <mxGeometry x="770" y="84" width="51" height="30" as="geometry" />
        </mxCell>
        <mxCell id="xc0DDMZrGfuiTKICy6-l-136" value="" style="shape=image;html=1;verticalAlign=top;verticalLabelPosition=bottom;labelBackgroundColor=#ffffff;imageAspect=0;aspect=fixed;image=https://cdn4.iconfinder.com/data/icons/essential-app-2/16/play-music-triangle-media-128.png;rotation=-360;" parent="xc0DDMZrGfuiTKICy6-l-135" vertex="1">
          <mxGeometry x="46" y="10" width="10.5" height="10.5" as="geometry" />
        </mxCell>
        <mxCell id="xc0DDMZrGfuiTKICy6-l-137" value="gives" style="text;html=1;align=center;verticalAlign=middle;resizable=0;points=[];autosize=1;strokeColor=none;fillColor=none;" parent="xc0DDMZrGfuiTKICy6-l-135" vertex="1">
          <mxGeometry y="-1" width="50" height="30" as="geometry" />
        </mxCell>
        <mxCell id="xc0DDMZrGfuiTKICy6-l-138" value="x" style="group" parent="1" vertex="1" connectable="0">
          <mxGeometry x="865.25" y="560" width="78" height="30" as="geometry" />
        </mxCell>
        <mxCell id="xc0DDMZrGfuiTKICy6-l-139" value="" style="shape=image;html=1;verticalAlign=top;verticalLabelPosition=bottom;labelBackgroundColor=#ffffff;imageAspect=0;aspect=fixed;image=https://cdn4.iconfinder.com/data/icons/essential-app-2/16/play-music-triangle-media-128.png;rotation=0;" parent="xc0DDMZrGfuiTKICy6-l-138" vertex="1">
          <mxGeometry x="67.5" y="9.75" width="10.5" height="10.5" as="geometry" />
        </mxCell>
        <mxCell id="xc0DDMZrGfuiTKICy6-l-140" value="&lt;span style=&quot;font-size: 11px; background-color: rgb(255, 255, 255);&quot;&gt;generates&lt;/span&gt;" style="text;html=1;align=center;verticalAlign=middle;resizable=0;points=[];autosize=1;strokeColor=none;fillColor=none;" parent="xc0DDMZrGfuiTKICy6-l-138" vertex="1">
          <mxGeometry x="3" width="70" height="30" as="geometry" />
        </mxCell>
        <mxCell id="xc0DDMZrGfuiTKICy6-l-141" style="edgeStyle=orthogonalEdgeStyle;rounded=0;orthogonalLoop=1;jettySize=auto;html=1;endArrow=block;endFill=0;exitX=0.5;exitY=0;exitDx=0;exitDy=0;entryX=0.5;entryY=1.001;entryDx=0;entryDy=0;entryPerimeter=0;" parent="1" target="xc0DDMZrGfuiTKICy6-l-56" edge="1">
          <mxGeometry relative="1" as="geometry">
            <mxPoint x="108.5" y="525" as="sourcePoint" />
            <mxPoint x="210" y="469" as="targetPoint" />
            <Array as="points">
              <mxPoint x="109" y="479" />
              <mxPoint x="202" y="479" />
              <mxPoint x="202" y="469" />
              <mxPoint x="203" y="469" />
            </Array>
          </mxGeometry>
        </mxCell>
        <mxCell id="xc0DDMZrGfuiTKICy6-l-142" value="{mandatory, and}" style="text;html=1;align=center;verticalAlign=middle;resizable=0;points=[];autosize=1;strokeColor=none;fillColor=none;" parent="1" vertex="1">
          <mxGeometry x="147.5" y="479" width="110" height="30" as="geometry" />
        </mxCell>
        <mxCell id="xc0DDMZrGfuiTKICy6-l-143" style="edgeStyle=orthogonalEdgeStyle;rounded=0;orthogonalLoop=1;jettySize=auto;html=1;endArrow=block;endFill=0;exitX=0.5;exitY=0;exitDx=0;exitDy=0;entryX=0.499;entryY=0.995;entryDx=0;entryDy=0;entryPerimeter=0;" parent="1" source="xc0DDMZrGfuiTKICy6-l-180" target="xc0DDMZrGfuiTKICy6-l-56" edge="1">
          <mxGeometry relative="1" as="geometry">
            <mxPoint x="309.5" y="525" as="sourcePoint" />
            <mxPoint x="196" y="389" as="targetPoint" />
            <Array as="points">
              <mxPoint x="310" y="479" />
              <mxPoint x="202" y="479" />
            </Array>
          </mxGeometry>
        </mxCell>
        <mxCell id="xc0DDMZrGfuiTKICy6-l-144" style="edgeStyle=orthogonalEdgeStyle;rounded=0;orthogonalLoop=1;jettySize=auto;html=1;entryX=0;entryY=0.5;entryDx=0;entryDy=0;endArrow=none;endFill=0;" parent="1" target="xc0DDMZrGfuiTKICy6-l-63" edge="1">
          <mxGeometry relative="1" as="geometry">
            <mxPoint x="50" y="580" as="sourcePoint" />
            <mxPoint x="378.34000000000015" y="774.1300000000001" as="targetPoint" />
          </mxGeometry>
        </mxCell>
        <mxCell id="xc0DDMZrGfuiTKICy6-l-146" style="edgeStyle=orthogonalEdgeStyle;rounded=0;orthogonalLoop=1;jettySize=auto;html=1;exitX=0;exitY=0.5;exitDx=0;exitDy=0;endArrow=none;endFill=0;entryX=0.5;entryY=0;entryDx=0;entryDy=0;" parent="1" source="xc0DDMZrGfuiTKICy6-l-22" target="xc0DDMZrGfuiTKICy6-l-153" edge="1">
          <mxGeometry relative="1" as="geometry" />
        </mxCell>
        <mxCell id="xc0DDMZrGfuiTKICy6-l-147" style="edgeStyle=orthogonalEdgeStyle;rounded=0;orthogonalLoop=1;jettySize=auto;html=1;entryX=0;entryY=0.5;entryDx=0;entryDy=0;endArrow=none;endFill=0;exitX=1;exitY=0.5;exitDx=0;exitDy=0;" parent="1" source="xc0DDMZrGfuiTKICy6-l-188" target="xc0DDMZrGfuiTKICy6-l-88" edge="1">
          <mxGeometry relative="1" as="geometry">
            <mxPoint x="832" y="584" as="sourcePoint" />
            <mxPoint x="958.4450000000002" y="569.5799999999999" as="targetPoint" />
          </mxGeometry>
        </mxCell>
        <mxCell id="xc0DDMZrGfuiTKICy6-l-148" value="" style="edgeStyle=orthogonalEdgeStyle;rounded=0;orthogonalLoop=1;jettySize=auto;html=1;entryX=0.525;entryY=0.987;entryDx=0;entryDy=0;endArrow=none;endFill=0;entryPerimeter=0;exitX=0.756;exitY=0.996;exitDx=0;exitDy=0;exitPerimeter=0;" parent="1" source="xc0DDMZrGfuiTKICy6-l-184" target="xc0DDMZrGfuiTKICy6-l-182" edge="1">
          <mxGeometry relative="1" as="geometry">
            <mxPoint x="108.5" y="605" as="sourcePoint" />
            <mxPoint x="162.49999999999977" y="681.5" as="targetPoint" />
          </mxGeometry>
        </mxCell>
        <mxCell id="xc0DDMZrGfuiTKICy6-l-149" value="1..*" style="text;html=1;align=center;verticalAlign=middle;resizable=0;points=[];autosize=1;strokeColor=none;fillColor=none;" parent="1" vertex="1">
          <mxGeometry x="832" y="84" width="40" height="30" as="geometry" />
        </mxCell>
        <mxCell id="xc0DDMZrGfuiTKICy6-l-150" value="0..*" style="text;html=1;align=center;verticalAlign=middle;resizable=0;points=[];autosize=1;strokeColor=none;fillColor=none;" parent="1" vertex="1">
          <mxGeometry x="80" y="269" width="40" height="30" as="geometry" />
        </mxCell>
        <mxCell id="xc0DDMZrGfuiTKICy6-l-151" value="1..1" style="text;html=1;align=center;verticalAlign=middle;resizable=0;points=[];autosize=1;strokeColor=none;fillColor=none;" parent="1" vertex="1">
          <mxGeometry x="582" y="749" width="40" height="30" as="geometry" />
        </mxCell>
        <mxCell id="xc0DDMZrGfuiTKICy6-l-152" value="1..1" style="text;html=1;align=center;verticalAlign=middle;resizable=0;points=[];autosize=1;strokeColor=none;fillColor=none;" parent="1" vertex="1">
          <mxGeometry x="1069.5" y="661" width="40" height="30" as="geometry" />
        </mxCell>
        <mxCell id="xc0DDMZrGfuiTKICy6-l-153" value="Treatment" style="shape=table;startSize=30;container=1;collapsible=1;childLayout=tableLayout;fixedRows=1;rowLines=0;fontStyle=1;align=center;resizeLast=1;html=1;" parent="1" vertex="1">
          <mxGeometry x="320" y="259" width="165" height="90" as="geometry" />
        </mxCell>
        <mxCell id="xc0DDMZrGfuiTKICy6-l-154" value="" style="shape=tableRow;horizontal=0;startSize=0;swimlaneHead=0;swimlaneBody=0;fillColor=none;collapsible=0;dropTarget=0;points=[[0,0.5],[1,0.5]];portConstraint=eastwest;top=0;left=0;right=0;bottom=1;" parent="xc0DDMZrGfuiTKICy6-l-153" vertex="1">
          <mxGeometry y="30" width="165" height="30" as="geometry" />
        </mxCell>
        <mxCell id="xc0DDMZrGfuiTKICy6-l-155" value="PK" style="shape=partialRectangle;connectable=0;fillColor=none;top=0;left=0;bottom=0;right=0;fontStyle=1;overflow=hidden;whiteSpace=wrap;html=1;" parent="xc0DDMZrGfuiTKICy6-l-154" vertex="1">
          <mxGeometry width="30" height="30" as="geometry">
            <mxRectangle width="30" height="30" as="alternateBounds" />
          </mxGeometry>
        </mxCell>
        <mxCell id="xc0DDMZrGfuiTKICy6-l-156" value="&lt;span style=&quot;font-size: 11pt; line-height: 15.6933px; font-family: Aptos, sans-serif;&quot; lang=&quot;EN-AU&quot;&gt;treatmentID&lt;/span&gt;&lt;span style=&quot;font-size: medium; font-weight: 400;&quot;&gt;&lt;/span&gt;" style="shape=partialRectangle;connectable=0;fillColor=none;top=0;left=0;bottom=0;right=0;align=left;spacingLeft=6;fontStyle=5;overflow=hidden;whiteSpace=wrap;html=1;" parent="xc0DDMZrGfuiTKICy6-l-154" vertex="1">
          <mxGeometry x="30" width="135" height="30" as="geometry">
            <mxRectangle width="135" height="30" as="alternateBounds" />
          </mxGeometry>
        </mxCell>
        <mxCell id="xc0DDMZrGfuiTKICy6-l-157" value="" style="shape=tableRow;horizontal=0;startSize=0;swimlaneHead=0;swimlaneBody=0;fillColor=none;collapsible=0;dropTarget=0;points=[[0,0.5],[1,0.5]];portConstraint=eastwest;top=0;left=0;right=0;bottom=0;" parent="xc0DDMZrGfuiTKICy6-l-153" vertex="1">
          <mxGeometry y="60" width="165" height="30" as="geometry" />
        </mxCell>
        <mxCell id="xc0DDMZrGfuiTKICy6-l-158" value="" style="shape=partialRectangle;connectable=0;fillColor=none;top=0;left=0;bottom=0;right=0;editable=1;overflow=hidden;whiteSpace=wrap;html=1;" parent="xc0DDMZrGfuiTKICy6-l-157" vertex="1">
          <mxGeometry width="30" height="30" as="geometry">
            <mxRectangle width="30" height="30" as="alternateBounds" />
          </mxGeometry>
        </mxCell>
        <mxCell id="xc0DDMZrGfuiTKICy6-l-159" value="&lt;span style=&quot;font-family: Aptos, sans-serif; font-size: 14.6667px;&quot;&gt;description&lt;/span&gt;" style="shape=partialRectangle;connectable=0;fillColor=none;top=0;left=0;bottom=0;right=0;align=left;spacingLeft=6;overflow=hidden;whiteSpace=wrap;html=1;" parent="xc0DDMZrGfuiTKICy6-l-157" vertex="1">
          <mxGeometry x="30" width="135" height="30" as="geometry">
            <mxRectangle width="135" height="30" as="alternateBounds" />
          </mxGeometry>
        </mxCell>
        <mxCell id="xc0DDMZrGfuiTKICy6-l-166" value="1..*" style="text;html=1;align=center;verticalAlign=middle;resizable=0;points=[];autosize=1;strokeColor=none;fillColor=none;" parent="1" vertex="1">
          <mxGeometry x="360" y="229" width="40" height="30" as="geometry" />
        </mxCell>
        <mxCell id="xc0DDMZrGfuiTKICy6-l-167" value="0..*" style="text;html=1;align=center;verticalAlign=middle;resizable=0;points=[];autosize=1;strokeColor=none;fillColor=none;" parent="1" vertex="1">
          <mxGeometry x="712" y="207" width="40" height="30" as="geometry" />
        </mxCell>
        <mxCell id="xc0DDMZrGfuiTKICy6-l-168" value="" style="group" parent="1" vertex="1" connectable="0">
          <mxGeometry x="810" y="207" width="51" height="30" as="geometry" />
        </mxCell>
        <mxCell id="xc0DDMZrGfuiTKICy6-l-169" value="" style="shape=image;html=1;verticalAlign=top;verticalLabelPosition=bottom;labelBackgroundColor=#ffffff;imageAspect=0;aspect=fixed;image=https://cdn4.iconfinder.com/data/icons/essential-app-2/16/play-music-triangle-media-128.png" parent="xc0DDMZrGfuiTKICy6-l-168" vertex="1">
          <mxGeometry x="40" y="9.5" width="11" height="11" as="geometry" />
        </mxCell>
        <mxCell id="xc0DDMZrGfuiTKICy6-l-170" value="has" style="text;html=1;align=center;verticalAlign=middle;resizable=0;points=[];autosize=1;strokeColor=none;fillColor=none;" parent="xc0DDMZrGfuiTKICy6-l-168" vertex="1">
          <mxGeometry width="40" height="30" as="geometry" />
        </mxCell>
        <mxCell id="xc0DDMZrGfuiTKICy6-l-171" value="1..2" style="text;html=1;align=center;verticalAlign=middle;resizable=0;points=[];autosize=1;strokeColor=none;fillColor=none;" parent="1" vertex="1">
          <mxGeometry x="850" y="238.5" width="40" height="30" as="geometry" />
        </mxCell>
        <mxCell id="xc0DDMZrGfuiTKICy6-l-172" value="" style="group;rotation=-180;" parent="1" vertex="1" connectable="0">
          <mxGeometry x="419" y="141" width="72" height="30" as="geometry" />
        </mxCell>
        <mxCell id="xc0DDMZrGfuiTKICy6-l-173" value="" style="shape=image;html=1;verticalAlign=top;verticalLabelPosition=bottom;labelBackgroundColor=#ffffff;imageAspect=0;aspect=fixed;image=https://cdn4.iconfinder.com/data/icons/essential-app-2/16/play-music-triangle-media-128.png;rotation=-180;" parent="xc0DDMZrGfuiTKICy6-l-172" vertex="1">
          <mxGeometry x="4" y="9" width="11" height="11" as="geometry" />
        </mxCell>
        <mxCell id="xc0DDMZrGfuiTKICy6-l-174" value="&lt;span style=&quot;font-size: 12px;&quot;&gt;specializes&lt;/span&gt;" style="text;html=1;align=center;verticalAlign=middle;resizable=0;points=[];autosize=1;strokeColor=none;fillColor=none;" parent="xc0DDMZrGfuiTKICy6-l-172" vertex="1">
          <mxGeometry x="8" y="-2" width="80" height="30" as="geometry" />
        </mxCell>
        <mxCell id="xc0DDMZrGfuiTKICy6-l-175" value="1..*" style="text;html=1;align=center;verticalAlign=middle;resizable=0;points=[];autosize=1;strokeColor=none;fillColor=none;" parent="1" vertex="1">
          <mxGeometry x="507" y="141" width="40" height="30" as="geometry" />
        </mxCell>
        <mxCell id="xc0DDMZrGfuiTKICy6-l-176" style="edgeStyle=orthogonalEdgeStyle;rounded=0;orthogonalLoop=1;jettySize=auto;html=1;exitX=0.75;exitY=0;exitDx=0;exitDy=0;entryX=0.185;entryY=1.008;entryDx=0;entryDy=0;entryPerimeter=0;endArrow=none;endFill=0;" parent="1" source="xc0DDMZrGfuiTKICy6-l-180" target="xc0DDMZrGfuiTKICy6-l-157" edge="1">
          <mxGeometry relative="1" as="geometry">
            <mxPoint x="337.75" y="525" as="sourcePoint" />
          </mxGeometry>
        </mxCell>
        <mxCell id="xc0DDMZrGfuiTKICy6-l-177" value="" style="group;rotation=-180;" parent="1" vertex="1" connectable="0">
          <mxGeometry x="350" y="391" width="65" height="45" as="geometry" />
        </mxCell>
        <mxCell id="xc0DDMZrGfuiTKICy6-l-178" value="requires" style="text;html=1;align=center;verticalAlign=middle;resizable=0;points=[];autosize=1;strokeColor=none;fillColor=none;rotation=0;" parent="xc0DDMZrGfuiTKICy6-l-177" vertex="1">
          <mxGeometry x="-5" y="7" width="70" height="30" as="geometry" />
        </mxCell>
        <mxCell id="xc0DDMZrGfuiTKICy6-l-179" value="" style="shape=image;html=1;verticalAlign=top;verticalLabelPosition=bottom;labelBackgroundColor=#ffffff;imageAspect=0;aspect=fixed;image=https://cdn1.iconfinder.com/data/icons/ionicons-fill-vol-2/512/triangle-128.png;rotation=-360;" parent="xc0DDMZrGfuiTKICy6-l-177" vertex="1">
          <mxGeometry x="25" y="5" width="10" height="10" as="geometry" />
        </mxCell>
        <mxCell id="xc0DDMZrGfuiTKICy6-l-180" value="Patient" style="swimlane;fontStyle=1;childLayout=stackLayout;horizontal=1;startSize=26;horizontalStack=0;resizeParent=1;resizeParentMax=0;resizeLast=0;collapsible=1;marginBottom=0;align=center;fontSize=14;" parent="1" vertex="1">
          <mxGeometry x="230" y="525" width="160" height="86" as="geometry" />
        </mxCell>
        <mxCell id="xc0DDMZrGfuiTKICy6-l-181" value="medicareNo" style="text;strokeColor=none;fillColor=none;spacingLeft=4;spacingRight=4;overflow=hidden;rotatable=0;points=[[0,0.5],[1,0.5]];portConstraint=eastwest;fontSize=12;whiteSpace=wrap;html=1;" parent="xc0DDMZrGfuiTKICy6-l-180" vertex="1">
          <mxGeometry y="26" width="160" height="30" as="geometry" />
        </mxCell>
        <mxCell id="xc0DDMZrGfuiTKICy6-l-182" value="DOB" style="text;strokeColor=none;fillColor=none;spacingLeft=4;spacingRight=4;overflow=hidden;rotatable=0;points=[[0,0.5],[1,0.5]];portConstraint=eastwest;fontSize=12;whiteSpace=wrap;html=1;" parent="xc0DDMZrGfuiTKICy6-l-180" vertex="1">
          <mxGeometry y="56" width="160" height="30" as="geometry" />
        </mxCell>
        <mxCell id="xc0DDMZrGfuiTKICy6-l-183" value="Custome" style="swimlane;fontStyle=1;childLayout=stackLayout;horizontal=1;startSize=26;horizontalStack=0;resizeParent=1;resizeParentMax=0;resizeLast=0;collapsible=1;marginBottom=0;align=center;fontSize=14;" parent="1" vertex="1">
          <mxGeometry x="20" y="525" width="160" height="56" as="geometry" />
        </mxCell>
        <mxCell id="xc0DDMZrGfuiTKICy6-l-184" value="payment" style="text;strokeColor=none;fillColor=none;spacingLeft=4;spacingRight=4;overflow=hidden;rotatable=0;points=[[0,0.5],[1,0.5]];portConstraint=eastwest;fontSize=12;whiteSpace=wrap;html=1;" parent="xc0DDMZrGfuiTKICy6-l-183" vertex="1">
          <mxGeometry y="26" width="160" height="30" as="geometry" />
        </mxCell>
        <mxCell id="xc0DDMZrGfuiTKICy6-l-185" value="1..*" style="text;html=1;align=center;verticalAlign=middle;resizable=0;points=[];autosize=1;strokeColor=none;fillColor=none;" parent="1" vertex="1">
          <mxGeometry x="350" y="349" width="40" height="30" as="geometry" />
        </mxCell>
        <mxCell id="xc0DDMZrGfuiTKICy6-l-186" value="0..*" style="text;html=1;align=center;verticalAlign=middle;resizable=0;points=[];autosize=1;strokeColor=none;fillColor=none;" parent="1" vertex="1">
          <mxGeometry x="350" y="491.63" width="40" height="30" as="geometry" />
        </mxCell>
        <mxCell id="xc0DDMZrGfuiTKICy6-l-187" value="Appointment" style="shape=table;startSize=30;container=1;collapsible=1;childLayout=tableLayout;fixedRows=1;rowLines=0;fontStyle=1;align=center;resizeLast=1;html=1;" parent="1" vertex="1">
          <mxGeometry x="600" y="491.99" width="185" height="120.02999999999997" as="geometry" />
        </mxCell>
        <mxCell id="xc0DDMZrGfuiTKICy6-l-188" value="" style="shape=tableRow;horizontal=0;startSize=0;swimlaneHead=0;swimlaneBody=0;fillColor=none;collapsible=0;dropTarget=0;points=[[0,0.5],[1,0.5]];portConstraint=eastwest;top=0;left=0;right=0;bottom=1;" parent="xc0DDMZrGfuiTKICy6-l-187" vertex="1">
          <mxGeometry y="30" width="185" height="30" as="geometry" />
        </mxCell>
        <mxCell id="xc0DDMZrGfuiTKICy6-l-189" value="PK" style="shape=partialRectangle;connectable=0;fillColor=none;top=0;left=0;bottom=0;right=0;fontStyle=1;overflow=hidden;whiteSpace=wrap;html=1;" parent="xc0DDMZrGfuiTKICy6-l-188" vertex="1">
          <mxGeometry width="57" height="30" as="geometry">
            <mxRectangle width="57" height="30" as="alternateBounds" />
          </mxGeometry>
        </mxCell>
        <mxCell id="xc0DDMZrGfuiTKICy6-l-190" value="&lt;span style=&quot;font-family: Aptos, sans-serif; font-size: 14.6667px;&quot;&gt;appointmentNo&lt;/span&gt;&lt;br&gt;&lt;span style=&quot;font-size: medium; font-weight: 400;&quot;&gt;&lt;/span&gt;" style="shape=partialRectangle;connectable=0;fillColor=none;top=0;left=0;bottom=0;right=0;align=left;spacingLeft=6;fontStyle=5;overflow=hidden;whiteSpace=wrap;html=1;" parent="xc0DDMZrGfuiTKICy6-l-188" vertex="1">
          <mxGeometry x="57" width="128" height="30" as="geometry">
            <mxRectangle width="128" height="30" as="alternateBounds" />
          </mxGeometry>
        </mxCell>
        <mxCell id="xc0DDMZrGfuiTKICy6-l-191" value="" style="shape=tableRow;horizontal=0;startSize=0;swimlaneHead=0;swimlaneBody=0;fillColor=none;collapsible=0;dropTarget=0;points=[[0,0.5],[1,0.5]];portConstraint=eastwest;top=0;left=0;right=0;bottom=0;" parent="xc0DDMZrGfuiTKICy6-l-187" vertex="1">
          <mxGeometry y="60" width="185" height="30" as="geometry" />
        </mxCell>
        <mxCell id="xc0DDMZrGfuiTKICy6-l-192" value="" style="shape=partialRectangle;connectable=0;fillColor=none;top=0;left=0;bottom=0;right=0;editable=1;overflow=hidden;whiteSpace=wrap;html=1;" parent="xc0DDMZrGfuiTKICy6-l-191" vertex="1">
          <mxGeometry width="57" height="30" as="geometry">
            <mxRectangle width="57" height="30" as="alternateBounds" />
          </mxGeometry>
        </mxCell>
        <mxCell id="xc0DDMZrGfuiTKICy6-l-193" value="startDate&lt;span style=&quot;font-size: medium;&quot;&gt;&lt;/span&gt;" style="shape=partialRectangle;connectable=0;fillColor=none;top=0;left=0;bottom=0;right=0;align=left;spacingLeft=6;overflow=hidden;whiteSpace=wrap;html=1;" parent="xc0DDMZrGfuiTKICy6-l-191" vertex="1">
          <mxGeometry x="57" width="128" height="30" as="geometry">
            <mxRectangle width="128" height="30" as="alternateBounds" />
          </mxGeometry>
        </mxCell>
        <mxCell id="iop6WLXWqYdE5R9tlNMB-4" value="" style="shape=tableRow;horizontal=0;startSize=0;swimlaneHead=0;swimlaneBody=0;fillColor=none;collapsible=0;dropTarget=0;points=[[0,0.5],[1,0.5]];portConstraint=eastwest;top=0;left=0;right=0;bottom=0;" parent="xc0DDMZrGfuiTKICy6-l-187" vertex="1">
          <mxGeometry y="90" width="185" height="30" as="geometry" />
        </mxCell>
        <mxCell id="iop6WLXWqYdE5R9tlNMB-5" value="" style="shape=partialRectangle;connectable=0;fillColor=none;top=0;left=0;bottom=0;right=0;editable=1;overflow=hidden;whiteSpace=wrap;html=1;" parent="iop6WLXWqYdE5R9tlNMB-4" vertex="1">
          <mxGeometry width="57" height="30" as="geometry">
            <mxRectangle width="57" height="30" as="alternateBounds" />
          </mxGeometry>
        </mxCell>
        <mxCell id="iop6WLXWqYdE5R9tlNMB-6" value="startTime&lt;span style=&quot;font-size: medium;&quot;&gt;&lt;/span&gt;" style="shape=partialRectangle;connectable=0;fillColor=none;top=0;left=0;bottom=0;right=0;align=left;spacingLeft=6;overflow=hidden;whiteSpace=wrap;html=1;" parent="iop6WLXWqYdE5R9tlNMB-4" vertex="1">
          <mxGeometry x="57" width="128" height="30" as="geometry">
            <mxRectangle width="128" height="30" as="alternateBounds" />
          </mxGeometry>
        </mxCell>
        <mxCell id="xc0DDMZrGfuiTKICy6-l-198" value="" style="group" parent="1" vertex="1" connectable="0">
          <mxGeometry x="180" y="714" width="51" height="30" as="geometry" />
        </mxCell>
        <mxCell id="xc0DDMZrGfuiTKICy6-l-199" value="" style="shape=image;html=1;verticalAlign=top;verticalLabelPosition=bottom;labelBackgroundColor=#ffffff;imageAspect=0;aspect=fixed;image=https://cdn4.iconfinder.com/data/icons/essential-app-2/16/play-music-triangle-media-128.png" parent="xc0DDMZrGfuiTKICy6-l-198" vertex="1">
          <mxGeometry x="40" y="9.5" width="11" height="11" as="geometry" />
        </mxCell>
        <mxCell id="xc0DDMZrGfuiTKICy6-l-200" value="pays" style="text;html=1;align=center;verticalAlign=middle;resizable=0;points=[];autosize=1;strokeColor=none;fillColor=none;" parent="xc0DDMZrGfuiTKICy6-l-198" vertex="1">
          <mxGeometry x="-5" width="50" height="30" as="geometry" />
        </mxCell>
        <mxCell id="xc0DDMZrGfuiTKICy6-l-201" value="" style="group" parent="1" vertex="1" connectable="0">
          <mxGeometry x="192" y="630" width="55" height="30" as="geometry" />
        </mxCell>
        <mxCell id="xc0DDMZrGfuiTKICy6-l-202" value="" style="shape=image;html=1;verticalAlign=top;verticalLabelPosition=bottom;labelBackgroundColor=#ffffff;imageAspect=0;aspect=fixed;image=https://cdn4.iconfinder.com/data/icons/essential-app-2/16/play-music-triangle-media-128.png" parent="xc0DDMZrGfuiTKICy6-l-201" vertex="1">
          <mxGeometry x="40" y="9.5" width="11" height="11" as="geometry" />
        </mxCell>
        <mxCell id="xc0DDMZrGfuiTKICy6-l-203" value="responds" style="text;html=1;align=center;verticalAlign=middle;resizable=0;points=[];autosize=1;strokeColor=none;fillColor=none;" parent="xc0DDMZrGfuiTKICy6-l-201" vertex="1">
          <mxGeometry x="-23" width="70" height="30" as="geometry" />
        </mxCell>
        <mxCell id="xc0DDMZrGfuiTKICy6-l-204" value="1..1" style="text;html=1;align=center;verticalAlign=middle;resizable=0;points=[];autosize=1;strokeColor=none;fillColor=none;" parent="1" vertex="1">
          <mxGeometry x="140" y="581" width="40" height="30" as="geometry" />
        </mxCell>
        <mxCell id="xc0DDMZrGfuiTKICy6-l-205" style="edgeStyle=orthogonalEdgeStyle;rounded=0;orthogonalLoop=1;jettySize=auto;html=1;endArrow=block;endFill=0;exitX=0.5;exitY=0;exitDx=0;exitDy=0;" parent="1" source="xc0DDMZrGfuiTKICy6-l-187" edge="1">
          <mxGeometry relative="1" as="geometry">
            <mxPoint x="630" y="300" as="sourcePoint" />
            <mxPoint x="630" y="290" as="targetPoint" />
            <Array as="points">
              <mxPoint x="690" y="492" />
              <mxPoint x="690" y="414" />
              <mxPoint x="630" y="414" />
            </Array>
          </mxGeometry>
        </mxCell>
        <mxCell id="xc0DDMZrGfuiTKICy6-l-207" style="edgeStyle=orthogonalEdgeStyle;rounded=0;orthogonalLoop=1;jettySize=auto;html=1;exitX=1;exitY=0.5;exitDx=0;exitDy=0;entryX=0;entryY=0.5;entryDx=0;entryDy=0;endArrow=none;endFill=0;" parent="1" source="xc0DDMZrGfuiTKICy6-l-181" target="xc0DDMZrGfuiTKICy6-l-191" edge="1">
          <mxGeometry relative="1" as="geometry">
            <mxPoint x="462" y="541" as="targetPoint" />
          </mxGeometry>
        </mxCell>
        <mxCell id="xc0DDMZrGfuiTKICy6-l-208" value="{mandatory, and}" style="text;html=1;align=center;verticalAlign=middle;resizable=0;points=[];autosize=1;strokeColor=none;fillColor=none;" parent="1" vertex="1">
          <mxGeometry x="630" y="384" width="110" height="30" as="geometry" />
        </mxCell>
        <mxCell id="hJnIffXnI46hG_06EoDJ-1" value="" style="shape=tableRow;horizontal=0;startSize=0;swimlaneHead=0;swimlaneBody=0;fillColor=none;collapsible=0;dropTarget=0;points=[[0,0.5],[1,0.5]];portConstraint=eastwest;top=1;left=0;right=0;bottom=0;" vertex="1" parent="1">
          <mxGeometry x="680" y="690" width="185" height="50" as="geometry" />
        </mxCell>
        <mxCell id="hJnIffXnI46hG_06EoDJ-2" value="unique" style="shape=partialRectangle;connectable=0;fillColor=none;top=0;left=0;bottom=0;right=0;editable=1;overflow=hidden;whiteSpace=wrap;html=1;fontStyle=1" vertex="1" parent="hJnIffXnI46hG_06EoDJ-1">
          <mxGeometry width="57" height="50" as="geometry">
            <mxRectangle width="57" height="50" as="alternateBounds" />
          </mxGeometry>
        </mxCell>
        <mxCell id="hJnIffXnI46hG_06EoDJ-3" value="SurgeonID, startDate, startTime, roomNo&lt;span style=&quot;font-size: medium;&quot;&gt;&lt;/span&gt;" style="shape=partialRectangle;connectable=0;fillColor=none;top=0;left=0;bottom=0;right=0;align=left;spacingLeft=6;overflow=hidden;whiteSpace=wrap;html=1;" vertex="1" parent="hJnIffXnI46hG_06EoDJ-1">
          <mxGeometry x="57" width="128" height="50" as="geometry">
            <mxRectangle width="128" height="50" as="alternateBounds" />
          </mxGeometry>
        </mxCell>
        <mxCell id="VaIH6j3UecVjwN6MMfti-1" value="x" style="group" vertex="1" connectable="0" parent="1">
          <mxGeometry x="470" y="530" width="78" height="30" as="geometry" />
        </mxCell>
        <mxCell id="VaIH6j3UecVjwN6MMfti-2" value="" style="shape=image;html=1;verticalAlign=top;verticalLabelPosition=bottom;labelBackgroundColor=#ffffff;imageAspect=0;aspect=fixed;image=https://cdn4.iconfinder.com/data/icons/essential-app-2/16/play-music-triangle-media-128.png;rotation=0;" vertex="1" parent="VaIH6j3UecVjwN6MMfti-1">
          <mxGeometry x="67.5" y="9.75" width="10.5" height="10.5" as="geometry" />
        </mxCell>
        <mxCell id="VaIH6j3UecVjwN6MMfti-3" value="&lt;span style=&quot;font-size: 11px; background-color: rgb(255, 255, 255);&quot;&gt;generates&lt;/span&gt;" style="text;html=1;align=center;verticalAlign=middle;resizable=0;points=[];autosize=1;strokeColor=none;fillColor=none;" vertex="1" parent="VaIH6j3UecVjwN6MMfti-1">
          <mxGeometry x="3" width="70" height="30" as="geometry" />
        </mxCell>
      </root>
    </mxGraphModel>
  </diagram>
  <diagram id="q0mJYSWoQEMM-JWwcDSD" name="Page-3">
    <mxGraphModel dx="1114" dy="693" grid="1" gridSize="10" guides="1" tooltips="1" connect="1" arrows="1" fold="1" page="1" pageScale="1" pageWidth="1169" pageHeight="827" math="0" shadow="0">
      <root>
        <mxCell id="0" />
        <mxCell id="1" parent="0" />
      </root>
    </mxGraphModel>
  </diagram>
</mxfile>
